<svg width="795" height="506" viewBox="0 0 795 506" fill="none" xmlns="http://www.w3.org/2000/svg">
<g clip-path="url(#clip0)">
<path d="M44.5188 503.871C32.2679 502.863 21.4518 494 15.3008 483.357C13.238 479.788 11.8247 475.107 14.1606 471.71C14.8292 470.738 15.7533 469.969 16.8309 469.488C17.9085 469.008 19.0979 468.834 20.2679 468.986C21.438 469.138 22.5434 469.61 23.4623 470.351C24.3811 471.091 25.0778 472.07 25.4756 473.181C24.7232 469.012 24.3999 464.776 24.5108 460.54C24.6049 456.954 25.2825 452.9 28.2643 450.906C31.7236 448.592 36.7098 450.429 39.226 453.744C41.7422 457.059 42.425 461.37 43.0289 465.488C42.5358 463.745 42.4877 461.907 42.889 460.14C43.2903 458.374 44.1281 456.737 45.3258 455.378C46.5234 454.02 48.0427 452.983 49.7446 452.363C51.4465 451.743 53.2766 451.56 55.0675 451.831C60.1342 452.596 64.1033 456.983 65.6521 461.867C67.2008 466.752 66.7173 472.048 65.7205 477.074C64.5516 482.968 62.6547 488.815 59.2395 493.758C55.8243 498.702 50.7515 502.687 44.866 503.897L44.5188 503.871Z" fill="#F2F2F2"/>
<path d="M794.122 106C794.122 127.984 787.289 149.424 774.569 167.354C761.849 185.284 743.871 198.817 723.122 206.08C722.462 206.31 721.792 206.54 721.122 206.75V99.04H582.352C582.392 98.37 582.442 97.7 582.502 97.04H721.122V76C721.121 74.6741 720.594 73.4026 719.657 72.4651C718.719 71.5275 717.448 71.0005 716.122 71H588.042C588.272 70.33 588.512 69.66 588.772 69C597.449 45.7103 614.032 26.2096 635.626 13.9047C657.22 1.59972 682.45 -2.72714 706.91 1.68C731.369 6.08714 753.503 18.9481 769.444 38.016C785.385 57.0839 794.119 81.1465 794.122 106V106Z" fill="#F2F2F2"/>
<path d="M716.122 69H229.122C227.266 69.0021 225.487 69.7402 224.174 71.0525C222.862 72.3648 222.124 74.1441 222.122 76V406C222.124 407.856 222.862 409.635 224.174 410.947C225.487 412.26 227.266 412.998 229.122 413H716.122C717.978 412.998 719.757 412.26 721.069 410.947C722.382 409.635 723.12 407.856 723.122 406V76C723.12 74.1441 722.382 72.3648 721.069 71.0525C719.757 69.7402 717.978 69.0021 716.122 69V69ZM721.122 406C721.121 407.326 720.594 408.597 719.657 409.535C718.719 410.473 717.448 411 716.122 411H229.122C227.796 411 226.524 410.473 225.587 409.535C224.649 408.597 224.122 407.326 224.122 406V76C224.122 74.6741 224.649 73.4026 225.587 72.4651C226.524 71.5275 227.796 71.0005 229.122 71H716.122C717.448 71.0005 718.719 71.5275 719.657 72.4651C720.594 73.4026 721.121 74.6741 721.122 76V406Z" fill="#3F3D56"/>
<path d="M722.122 97.04H223.122V99.04H722.122V97.04Z" fill="#3F3D56"/>
<path d="M240.122 90C243.436 90 246.122 87.3137 246.122 84C246.122 80.6863 243.436 78 240.122 78C236.808 78 234.122 80.6863 234.122 84C234.122 87.3137 236.808 90 240.122 90Z" fill="#3F3D56"/>
<path d="M257.372 90C260.686 90 263.372 87.3137 263.372 84C263.372 80.6863 260.686 78 257.372 78C254.058 78 251.372 80.6863 251.372 84C251.372 87.3137 254.058 90 257.372 90Z" fill="#3F3D56"/>
<path d="M274.622 90C277.936 90 280.622 87.3137 280.622 84C280.622 80.6863 277.936 78 274.622 78C271.308 78 268.622 80.6863 268.622 84C268.622 87.3137 271.308 90 274.622 90Z" fill="#3F3D56"/>
<path d="M202.746 492.088L214.466 488.491L206.17 441.573L188.872 446.881L202.746 492.088Z" fill="#A0616A"/>
<path d="M240.41 492.438L203.574 503.742L199.207 489.51L221.81 482.573C223.679 482 225.643 481.8 227.589 481.985C229.535 482.171 231.426 482.737 233.153 483.653C234.88 484.569 236.41 485.817 237.655 487.324C238.9 488.831 239.836 490.569 240.41 492.438V492.438V492.438Z" fill="#2F2E41"/>
<path d="M102.748 492.358L115.008 492.357L120.84 445.069L102.746 445.07L102.748 492.358Z" fill="#A0616A"/>
<path d="M138.652 503.74L100.121 503.742L100.121 488.855L123.764 488.854C125.719 488.854 127.655 489.239 129.461 489.987C131.268 490.735 132.909 491.832 134.291 493.214C135.674 494.596 136.77 496.237 137.519 498.043C138.267 499.849 138.652 501.785 138.652 503.74L138.652 503.74Z" fill="#2F2E41"/>
<path d="M101.868 355.28C100.861 354.398 100.06 353.304 99.5207 352.078C98.9816 350.852 98.7179 349.523 98.7483 348.183C98.7786 346.844 99.1022 345.528 99.6962 344.328C100.29 343.127 101.14 342.071 102.186 341.235L111.692 221.54L131.023 226.37L115.545 343.129C116.834 344.979 117.399 347.238 117.133 349.478C116.868 351.717 115.79 353.781 114.104 355.279C112.418 356.777 110.242 357.605 107.986 357.605C105.731 357.605 103.554 356.778 101.868 355.28V355.28Z" fill="#A0616A"/>
<path d="M140.579 175.116C154.144 175.116 165.14 164.12 165.14 150.555C165.14 136.991 154.144 125.994 140.579 125.994C127.015 125.994 116.018 136.991 116.018 150.555C116.018 164.12 127.015 175.116 140.579 175.116Z" fill="#A0616A"/>
<path d="M119.223 217.859C113.681 210.25 113.51 199.772 119.48 192.495C123.375 187.745 129.892 183.945 140.772 183.945C169.772 183.945 180.772 206.945 180.772 206.945C180.772 206.945 192.772 228.945 185.772 248.945C178.772 268.945 178.772 270.945 178.772 270.945L132.772 266.945C132.772 266.945 140.532 247.113 119.223 217.859Z" fill="#CCCCCC"/>
<path d="M105.037 237.767L114.947 205.346C115.611 203.175 116.743 201.177 118.264 199.492C119.785 197.807 121.658 196.476 123.75 195.594C125.842 194.712 128.102 194.301 130.37 194.388C132.638 194.476 134.86 195.061 136.877 196.101V196.101C140.378 197.914 143.058 200.99 144.374 204.706C145.69 208.422 145.544 212.499 143.965 216.111L131.367 244.802L105.037 237.767Z" fill="#CCCCCC"/>
<path d="M177.772 265.945L216.772 467.945L195.772 473.945L144.772 340.945L121.772 476.945L99.7721 479.945C99.7721 479.945 90.1218 300 132.772 266.945L177.772 265.945Z" fill="#2F2E41"/>
<path d="M233.903 256.477C233.548 256.901 233.226 257.352 232.941 257.827L183.406 260.228L173.867 231.109L157.305 238.98L172.893 282.352L234.155 270.371C235.595 271.942 237.479 273.039 239.557 273.513C241.634 273.988 243.807 273.819 245.787 273.029C247.766 272.239 249.458 270.865 250.637 269.09C251.817 267.314 252.428 265.222 252.389 263.091C252.35 260.96 251.664 258.892 250.421 257.16C249.178 255.429 247.437 254.117 245.431 253.399C243.424 252.681 241.246 252.591 239.187 253.141C237.128 253.691 235.285 254.855 233.903 256.477V256.477Z" fill="#A0616A"/>
<path d="M150.375 209.849C150.11 207.595 150.343 205.309 151.058 203.155C151.773 201 152.953 199.029 154.514 197.381C156.074 195.732 157.978 194.447 160.09 193.615C162.203 192.783 164.472 192.425 166.737 192.567V192.567C170.671 192.82 174.362 194.559 177.061 197.432C179.76 200.305 181.266 204.097 181.272 208.039V239.374L154.336 243.518L150.375 209.849Z" fill="#CCCCCC"/>
<path d="M145.981 175.339C142.294 175.323 139.45 171.442 139.616 167.759C139.781 164.076 142.254 160.836 145.234 158.666C148.214 156.496 151.709 155.174 155.032 153.579C158.356 151.983 161.65 149.993 163.702 146.931C164.941 144.926 165.681 142.653 165.859 140.303C166.037 137.953 165.648 135.595 164.725 133.426C162.815 129.089 159.537 125.498 155.392 123.202C149.234 119.598 141.944 118.445 134.975 119.974C128.006 121.503 121.868 125.601 117.785 131.452L113.577 142.91C109.289 148.066 108.609 155.724 111.244 161.89C113.88 168.056 119.493 172.696 125.826 174.901C132.251 176.966 139.129 177.172 145.667 175.496" fill="#2F2E41"/>
<path d="M123.534 137.179C121.725 134.279 118.59 132.435 115.348 131.353C111.593 130.1 107.599 129.73 103.677 130.272C99.7559 130.814 96.0123 132.255 92.7384 134.481C89.4645 136.707 86.7485 139.658 84.802 143.105C82.8554 146.553 81.7309 150.403 81.5158 154.356C81.1722 160.67 83.1494 166.845 84.3112 173.061C85.473 179.277 85.7041 186.143 82.2768 191.457C79.6662 195.505 75.3129 198.054 71.0159 200.23C67.4346 202.044 63.5609 203.746 59.5628 203.384C55.5647 203.023 51.5464 199.856 51.6525 195.843C50.314 198.72 49.4103 201.781 48.9708 204.923C48.6896 208.079 49.4674 211.485 51.7469 213.685C55.06 216.884 60.3094 216.65 64.8626 215.96C74.7195 214.466 84.7007 211.664 92.4881 205.439C100.275 199.215 105.443 188.965 103.392 179.208C102.535 175.133 100.522 171.412 98.8952 167.579C97.2684 163.745 95.9983 159.552 96.7456 155.455C97.188 153.344 98.0882 151.356 99.3829 149.631C100.677 147.906 102.335 146.487 104.238 145.473C108.087 143.471 112.491 142.804 116.761 143.574C119.56 144.033 123.055 144.746 124.715 142.446C125.155 141.718 125.38 140.879 125.363 140.029C125.347 139.178 125.089 138.349 124.621 137.638C123.664 136.232 122.444 135.023 121.029 134.078" fill="#2F2E41"/>
<path d="M308.485 505.345H1.1907C1.03405 505.346 0.878838 505.315 0.733978 505.256C0.589119 505.196 0.457459 505.108 0.346527 504.998C0.235596 504.887 0.147578 504.756 0.0875244 504.611C0.0274707 504.466 -0.00344849 504.311 -0.00344849 504.154C-0.00344849 503.998 0.0274707 503.843 0.0875244 503.698C0.147578 503.553 0.235596 503.422 0.346527 503.311C0.457459 503.201 0.589119 503.113 0.733978 503.053C0.878838 502.994 1.03405 502.963 1.1907 502.964H308.485C308.641 502.963 308.797 502.994 308.941 503.053C309.086 503.113 309.218 503.201 309.329 503.311C309.44 503.422 309.528 503.553 309.588 503.698C309.648 503.843 309.679 503.998 309.679 504.154C309.679 504.311 309.648 504.466 309.588 504.611C309.528 504.756 309.44 504.887 309.329 504.998C309.218 505.108 309.086 505.196 308.941 505.256C308.797 505.315 308.641 505.346 308.485 505.345V505.345Z" fill="#3F3D56"/>
<path d="M428.989 77.3662L425.685 90.1328H422.979L421.203 83.0771L420.796 80.3545L420.422 83.0854L418.604 90.1328H416.081L412.694 77.3662H415.342L416.903 84.7871L417.343 87.8584L417.849 84.7871L419.675 77.3662H422.033L423.975 84.7871L424.49 87.7256L424.913 84.7871L426.349 77.3662H428.989ZM438.111 84.1147C438.111 84.9116 438.081 85.5037 438.02 85.8911H432.425C432.475 86.6714 432.719 87.2524 433.156 87.6343C433.598 88.0161 434.196 88.207 434.949 88.207C435.308 88.207 435.743 88.16 436.252 88.0659C436.767 87.9663 437.143 87.8501 437.381 87.7173L437.804 89.1865C437.478 89.4521 436.988 89.6763 436.335 89.8589C435.682 90.0415 435.001 90.1328 434.293 90.1328C433.341 90.1328 432.53 89.9391 431.861 89.5518C431.191 89.1644 430.685 88.6055 430.342 87.875C429.999 87.139 429.827 86.2591 429.827 85.2354C429.827 84.3057 430.007 83.4756 430.367 82.7451C430.726 82.0146 431.249 81.4419 431.936 81.0269C432.627 80.6118 433.449 80.4043 434.401 80.4043C435.087 80.4043 435.707 80.5288 436.26 80.7778C436.814 81.0269 437.256 81.4281 437.588 81.9814C437.926 82.5348 438.1 83.2459 438.111 84.1147ZM435.704 84.4551C435.71 84.3721 435.712 84.2503 435.712 84.0898C435.712 83.4867 435.599 83.0301 435.372 82.7202C435.145 82.4048 434.777 82.2471 434.268 82.2471C433.759 82.2471 433.352 82.4159 433.048 82.7534C432.749 83.0854 432.555 83.6527 432.467 84.4551H435.704ZM445.482 80.4043C446.174 80.4043 446.805 80.5731 447.375 80.9106C447.945 81.2427 448.399 81.749 448.736 82.4297C449.079 83.1048 449.251 83.9349 449.251 84.9199C449.251 85.9548 449.043 86.8734 448.628 87.6758C448.213 88.4727 447.63 89.0924 446.877 89.5352C446.13 89.9723 445.272 90.1909 444.304 90.1909C443.772 90.1909 443.216 90.1466 442.635 90.0581C442.06 89.9751 441.553 89.8755 441.116 89.7593C440.679 89.6431 440.411 89.5462 440.311 89.4688V76.2124H442.901V79.8398L442.834 81.4004C443.133 81.1182 443.493 80.883 443.914 80.6948C444.334 80.5011 444.857 80.4043 445.482 80.4043ZM446.537 85.061C446.537 84.0594 446.379 83.3566 446.063 82.9526C445.748 82.5431 445.289 82.3384 444.686 82.3384C444.342 82.3384 444.01 82.3937 443.689 82.5044C443.374 82.6151 443.111 82.7562 442.901 82.9277V88.0742C443.1 88.29 443.587 88.3979 444.362 88.3979C444.782 88.3979 445.156 88.2679 445.482 88.0078C445.809 87.7422 446.066 87.3576 446.254 86.854C446.443 86.3504 446.537 85.7528 446.537 85.061ZM458.415 77.3662C458.592 77.3662 458.946 77.3496 459.478 77.3164C460.219 77.2611 460.886 77.2334 461.478 77.2334C463.553 77.2334 465.103 77.7591 466.126 78.8105C467.156 79.862 467.67 81.3755 467.67 83.3511C467.67 84.7622 467.413 85.9769 466.898 86.9951C466.384 88.0133 465.651 88.7909 464.699 89.3276C463.752 89.8644 462.637 90.1328 461.354 90.1328C460.955 90.1328 460.363 90.1079 459.577 90.0581C459.096 90.0194 458.717 90 458.44 90H457.162V77.3662H458.415ZM461.52 88.1074C462.571 88.0964 463.393 87.7284 463.985 87.0034C464.583 86.2729 464.881 85.1496 464.881 83.6333C464.881 82.5487 464.749 81.6854 464.483 81.0435C464.223 80.396 463.827 79.9312 463.296 79.6489C462.765 79.3667 462.076 79.2256 461.229 79.2256C460.936 79.2256 460.579 79.2533 460.158 79.3086L459.826 79.3418V87.958C460.202 88.0576 460.767 88.1074 461.52 88.1074ZM477.573 84.1147C477.573 84.9116 477.543 85.5037 477.482 85.8911H471.887C471.937 86.6714 472.181 87.2524 472.618 87.6343C473.06 88.0161 473.658 88.207 474.411 88.207C474.77 88.207 475.205 88.16 475.714 88.0659C476.229 87.9663 476.605 87.8501 476.843 87.7173L477.266 89.1865C476.94 89.4521 476.45 89.6763 475.797 89.8589C475.144 90.0415 474.463 90.1328 473.755 90.1328C472.803 90.1328 471.992 89.9391 471.323 89.5518C470.653 89.1644 470.147 88.6055 469.804 87.875C469.461 87.139 469.289 86.2591 469.289 85.2354C469.289 84.3057 469.469 83.4756 469.829 82.7451C470.188 82.0146 470.711 81.4419 471.397 81.0269C472.089 80.6118 472.911 80.4043 473.863 80.4043C474.549 80.4043 475.169 80.5288 475.722 80.7778C476.276 81.0269 476.718 81.4281 477.05 81.9814C477.388 82.5348 477.562 83.2459 477.573 84.1147ZM475.166 84.4551C475.172 84.3721 475.174 84.2503 475.174 84.0898C475.174 83.4867 475.061 83.0301 474.834 82.7202C474.607 82.4048 474.239 82.2471 473.73 82.2471C473.221 82.2471 472.814 82.4159 472.51 82.7534C472.211 83.0854 472.017 83.6527 471.929 84.4551H475.166ZM488.124 80.5371L484.513 90.1328H482.114L478.52 80.5371H481.317L482.761 85.1855L483.367 87.4932L483.94 85.1855L485.384 80.5371H488.124ZM497.346 84.1147C497.346 84.9116 497.315 85.5037 497.254 85.8911H491.66C491.709 86.6714 491.953 87.2524 492.39 87.6343C492.833 88.0161 493.431 88.207 494.183 88.207C494.543 88.207 494.977 88.16 495.486 88.0659C496.001 87.9663 496.377 87.8501 496.615 87.7173L497.039 89.1865C496.712 89.4521 496.222 89.6763 495.569 89.8589C494.916 90.0415 494.236 90.1328 493.527 90.1328C492.576 90.1328 491.765 89.9391 491.095 89.5518C490.426 89.1644 489.919 88.6055 489.576 87.875C489.233 87.139 489.062 86.2591 489.062 85.2354C489.062 84.3057 489.241 83.4756 489.601 82.7451C489.961 82.0146 490.484 81.4419 491.17 81.0269C491.862 80.6118 492.683 80.4043 493.635 80.4043C494.321 80.4043 494.941 80.5288 495.495 80.7778C496.048 81.0269 496.491 81.4281 496.823 81.9814C497.16 82.5348 497.335 83.2459 497.346 84.1147ZM494.938 84.4551C494.944 84.3721 494.947 84.2503 494.947 84.0898C494.947 83.4867 494.833 83.0301 494.606 82.7202C494.38 82.4048 494.012 82.2471 493.502 82.2471C492.993 82.2471 492.587 82.4159 492.282 82.7534C491.983 83.0854 491.79 83.6527 491.701 84.4551H494.938ZM502.235 76.2041V90H499.645V76.2041H502.235ZM504.526 85.1772C504.526 84.1646 504.725 83.3013 505.124 82.5874C505.522 81.868 506.075 81.3257 506.784 80.9604C507.492 80.5897 508.306 80.4043 509.224 80.4043C510.27 80.4043 511.131 80.6257 511.806 81.0684C512.481 81.5055 512.971 82.0949 513.275 82.8364C513.585 83.5724 513.74 84.4053 513.74 85.335C513.74 86.3532 513.541 87.222 513.142 87.9414C512.744 88.6608 512.19 89.2059 511.482 89.5767C510.774 89.9474 509.963 90.1328 509.05 90.1328C507.998 90.1328 507.135 89.9115 506.46 89.4688C505.785 89.026 505.292 88.4339 504.982 87.6924C504.678 86.9453 504.526 86.1069 504.526 85.1772ZM511.059 85.3433C511.059 84.4578 510.901 83.7218 510.585 83.1353C510.27 82.5431 509.791 82.2471 509.149 82.2471C507.854 82.2471 507.207 83.21 507.207 85.1357C507.207 85.7168 507.273 86.248 507.406 86.7295C507.545 87.2054 507.758 87.5872 508.045 87.875C508.339 88.1628 508.704 88.3066 509.141 88.3066C510.419 88.3066 511.059 87.3188 511.059 85.3433ZM521.103 80.4043C521.794 80.4043 522.425 80.5731 522.995 80.9106C523.565 81.2427 524.019 81.749 524.356 82.4297C524.7 83.1048 524.871 83.9349 524.871 84.9199C524.871 85.9548 524.669 86.8678 524.265 87.6592C523.867 88.445 523.302 89.0537 522.572 89.4854C521.847 89.917 521.008 90.1328 520.057 90.1328C519.492 90.1328 518.969 90.0443 518.488 89.8672L518.521 91.1538V94.2002H515.931V80.5371H518.347V81.5C518.651 81.1956 519.019 80.9383 519.451 80.728C519.882 80.5122 520.433 80.4043 521.103 80.4043ZM522.157 85.061C522.157 84.0594 521.999 83.3566 521.684 82.9526C521.368 82.5431 520.909 82.3384 520.306 82.3384C519.963 82.3384 519.631 82.3937 519.31 82.5044C518.994 82.6151 518.731 82.7562 518.521 82.9277V87.9331C518.681 88.077 518.883 88.1766 519.127 88.2319C519.376 88.2873 519.661 88.3149 519.982 88.3149C520.403 88.3149 520.776 88.1877 521.103 87.9331C521.429 87.6785 521.686 87.305 521.875 86.8125C522.063 86.32 522.157 85.7362 522.157 85.061ZM538.277 80.3711C538.941 80.3711 539.494 80.4901 539.937 80.728C540.385 80.966 540.726 81.3561 540.958 81.8984C541.19 82.4352 541.307 83.1519 541.307 84.0483V90H538.717V84.6128C538.717 84.0871 538.681 83.6803 538.609 83.3926C538.537 83.0993 538.407 82.889 538.219 82.7617C538.036 82.6289 537.768 82.5625 537.414 82.5625C537.093 82.5625 536.752 82.6289 536.393 82.7617C536.038 82.8945 535.737 83.0605 535.488 83.2598C535.51 83.5033 535.521 83.7938 535.521 84.1313V90H532.931V84.6211C532.931 84.1009 532.892 83.6942 532.815 83.4009C532.743 83.1076 532.613 82.8945 532.425 82.7617C532.242 82.6289 531.979 82.5625 531.636 82.5625C531.365 82.5625 531.041 82.6234 530.665 82.7451C530.289 82.8669 529.965 83.0467 529.694 83.2847V90H527.104V80.5371H529.453L529.503 81.5498C529.885 81.262 530.361 80.9992 530.931 80.7612C531.501 80.5177 532.051 80.3877 532.583 80.3711C533.169 80.349 533.664 80.432 534.068 80.6201C534.472 80.8027 534.791 81.1016 535.023 81.5166C535.394 81.2288 535.875 80.966 536.467 80.728C537.059 80.4901 537.663 80.3711 538.277 80.3711ZM551.732 84.1147C551.732 84.9116 551.702 85.5037 551.641 85.8911H546.046C546.096 86.6714 546.34 87.2524 546.777 87.6343C547.22 88.0161 547.817 88.207 548.57 88.207C548.93 88.207 549.364 88.16 549.873 88.0659C550.388 87.9663 550.764 87.8501 551.002 87.7173L551.425 89.1865C551.099 89.4521 550.609 89.6763 549.956 89.8589C549.303 90.0415 548.622 90.1328 547.914 90.1328C546.962 90.1328 546.152 89.9391 545.482 89.5518C544.812 89.1644 544.306 88.6055 543.963 87.875C543.62 87.139 543.448 86.2591 543.448 85.2354C543.448 84.3057 543.628 83.4756 543.988 82.7451C544.347 82.0146 544.87 81.4419 545.557 81.0269C546.248 80.6118 547.07 80.4043 548.022 80.4043C548.708 80.4043 549.328 80.5288 549.881 80.7778C550.435 81.0269 550.877 81.4281 551.209 81.9814C551.547 82.5348 551.721 83.2459 551.732 84.1147ZM549.325 84.4551C549.331 84.3721 549.333 84.2503 549.333 84.0898C549.333 83.4867 549.22 83.0301 548.993 82.7202C548.766 82.4048 548.398 82.2471 547.889 82.2471C547.38 82.2471 546.973 82.4159 546.669 82.7534C546.37 83.0854 546.176 83.6527 546.088 84.4551H549.325ZM556.331 80.5371L556.381 81.5498C556.763 81.262 557.239 80.9992 557.809 80.7612C558.379 80.5233 558.929 80.396 559.46 80.3794C560.141 80.3573 560.697 80.4652 561.129 80.7031C561.561 80.9355 561.882 81.3257 562.092 81.8735C562.308 82.4159 562.416 83.1463 562.416 84.0649V90H559.826V84.6211C559.826 84.0843 559.784 83.6693 559.701 83.376C559.618 83.0771 559.477 82.8641 559.278 82.7368C559.079 82.6095 558.796 82.5514 558.431 82.5625C558.154 82.568 557.842 82.6317 557.493 82.7534C557.145 82.8752 556.837 83.0522 556.572 83.2847V90H553.982V80.5371H556.331ZM565.512 82.3301H564.375V80.9272C564.74 80.8221 565.003 80.7419 565.163 80.6865C565.329 80.6257 565.476 80.5454 565.603 80.4458C565.73 80.3407 565.83 80.2023 565.902 80.0308C566.018 79.7541 566.226 79.2035 566.524 78.3789H568.102V80.5371H570.667V82.3301H568.102V86.1318C568.102 86.7627 568.135 87.222 568.201 87.5098C568.268 87.7975 568.373 87.9829 568.517 88.0659C568.66 88.1434 568.882 88.1821 569.181 88.1821C569.413 88.1821 569.679 88.1434 569.978 88.0659C570.282 87.9829 570.506 87.8888 570.65 87.7837L570.965 89.2363C570.705 89.4688 570.315 89.6763 569.795 89.8589C569.28 90.0415 568.724 90.1328 568.126 90.1328C567.49 90.1328 566.981 90.036 566.599 89.8423C566.223 89.6431 565.946 89.3304 565.769 88.9043C565.597 88.4727 565.512 87.8999 565.512 87.186V82.3301Z" fill="black"/>
<g clip-path="url(#clip1)">
<path d="M312.119 105L286.151 139.66C293.164 143.379 298.123 149.188 299.971 155.848C301.82 162.508 300.412 169.495 296.047 175.32C291.682 181.145 284.706 185.35 276.602 187.038C268.498 188.727 259.908 187.766 252.659 184.36L225.047 221.212L491.425 354.293L578.498 238.081L312.119 105Z" fill="#F2F2F2"/>
<path d="M272.552 178.716C284.103 178.716 293.468 171.07 293.468 161.637C293.468 152.204 284.103 144.558 272.552 144.558C261 144.558 251.636 152.204 251.636 161.637C251.636 171.07 261 178.716 272.552 178.716Z" fill="#F2F2F2"/>
<path d="M466.632 390.42C507.465 390.42 540.567 388.642 540.567 386.449C540.567 384.255 507.465 382.477 466.632 382.477C425.798 382.477 392.696 384.255 392.696 386.449C392.696 388.642 425.798 390.42 466.632 390.42Z" fill="#F2F2F2"/>
<path d="M341.623 403C360.696 403 376.158 402.169 376.158 401.145C376.158 400.12 360.696 399.289 341.623 399.289C322.549 399.289 307.087 400.12 307.087 401.145C307.087 402.169 322.549 403 341.623 403Z" fill="#F2F2F2"/>
<path d="M613.529 381.285C654.363 381.285 687.465 379.507 687.465 377.313C687.465 375.119 654.363 373.341 613.529 373.341C572.696 373.341 539.594 375.119 539.594 377.313C539.594 379.507 572.696 381.285 613.529 381.285Z" fill="#F2F2F2"/>
<path d="M228.288 370.958H722" stroke="#2F2E41" stroke-width="2" stroke-miterlimit="10"/>
<path d="M669.224 174.943H314.14V370.759H669.224V174.943Z" fill="#3F3D56"/>
<path d="M314.14 189.266H669.224" stroke="#2F2E41" stroke-width="2" stroke-miterlimit="10"/>
<path d="M325.085 185.667C327.502 185.667 329.462 184.067 329.462 182.093C329.462 180.118 327.502 178.518 325.085 178.518C322.667 178.518 320.707 180.118 320.707 182.093C320.707 184.067 322.667 185.667 325.085 185.667Z" fill="#00B0FF"/>
<path d="M338.218 185.866C340.636 185.866 342.596 184.265 342.596 182.291C342.596 180.317 340.636 178.716 338.218 178.716C335.8 178.716 333.84 180.317 333.84 182.291C333.84 184.265 335.8 185.866 338.218 185.866Z" fill="#00B0FF"/>
<path d="M351.351 186.065C353.769 186.065 355.729 184.464 355.729 182.49C355.729 180.516 353.769 178.915 351.351 178.915C348.933 178.915 346.973 180.516 346.973 182.49C346.973 184.464 348.933 186.065 351.351 186.065Z" fill="#00B0FF"/>
<path opacity="0.3" d="M635.904 202.548H336.272V250.211H635.904V202.548Z" fill="#00B0FF"/>
<path opacity="0.3" d="M336.272 250.211L635.904 202.548" stroke="#00B0FF" stroke-width="2" stroke-miterlimit="10"/>
<path opacity="0.3" d="M635.904 250.211L336.272 202.548" stroke="#00B0FF" stroke-width="2" stroke-miterlimit="10"/>
<path opacity="0.3" d="M407.775 280.398H336.272V357.056H407.775V280.398Z" fill="#00B0FF"/>
<path opacity="0.3" d="M635.904 280.398H564.401V357.056H635.904V280.398Z" fill="#00B0FF"/>
<path opacity="0.3" d="M521.84 280.398H450.337V357.056H521.84V280.398Z" fill="#00B0FF"/>
<path opacity="0.3" d="M336.272 280.398L407.775 357.056" stroke="#00B0FF" stroke-width="2" stroke-miterlimit="10"/>
<path opacity="0.3" d="M407.775 280.398L336.272 357.056" stroke="#00B0FF" stroke-width="2" stroke-miterlimit="10"/>
<path opacity="0.3" d="M450.58 280.398L522.083 357.056" stroke="#00B0FF" stroke-width="2" stroke-miterlimit="10"/>
<path opacity="0.3" d="M522.083 280.398L450.58 357.056" stroke="#00B0FF" stroke-width="2" stroke-miterlimit="10"/>
<path opacity="0.3" d="M564.401 280.398L635.904 357.056" stroke="#00B0FF" stroke-width="2" stroke-miterlimit="10"/>
<path opacity="0.3" d="M635.904 280.398L564.401 357.056" stroke="#00B0FF" stroke-width="2" stroke-miterlimit="10"/>
<path d="M675.79 202.548H376.158V250.211H675.79V202.548Z" fill="#00B0FF"/>
<path d="M649.524 298.669H578.021V375.327H649.524V298.669Z" fill="#00B0FF"/>
<path d="M639.066 308.797H588.479V313.564H639.066V308.797Z" fill="#3F3D56"/>
<path d="M639.066 319.124H588.479V323.891H639.066V319.124Z" fill="#3F3D56"/>
<path d="M639.066 329.451H588.479V334.218H639.066V329.451Z" fill="#3F3D56"/>
<path d="M639.066 339.778H588.479V344.545H639.066V339.778Z" fill="#3F3D56"/>
<path d="M639.066 350.105H588.479V354.872H639.066V350.105Z" fill="#3F3D56"/>
<path d="M639.066 360.432H588.479V365.199H639.066V360.432Z" fill="#3F3D56"/>
<path d="M425.286 290.725H353.783V367.383H425.286V290.725Z" fill="#00B0FF"/>
<path d="M414.828 316.344H364.241V321.11H414.828V316.344Z" fill="#3F3D56"/>
<path d="M414.828 326.671H364.241V331.437H414.828V326.671Z" fill="#3F3D56"/>
<path d="M414.828 336.998H364.241V341.764H414.828V336.998Z" fill="#3F3D56"/>
<path d="M540.486 230.498C540.486 239.423 533.989 242.539 525.974 242.539C525.789 242.539 525.603 242.537 525.418 242.534C525.047 242.527 524.679 242.513 524.316 242.492C517.082 242.074 511.463 238.798 511.463 230.498C511.463 221.909 524.905 211.07 525.914 210.268L525.916 210.267C525.955 210.236 525.974 210.221 525.974 210.221C525.974 210.221 540.486 221.574 540.486 230.498Z" fill="#3F3D56"/>
<path d="M525.446 241.173L530.753 235.117L525.432 241.838L525.418 242.534C525.047 242.527 524.679 242.513 524.316 242.492L524.888 233.564L524.883 233.494L524.893 233.481L524.947 232.638L519.613 225.901L524.964 232.006L524.976 232.185L525.409 225.439L520.842 218.477L525.464 224.254L525.914 210.268L525.916 210.221V210.267L525.841 221.296L530.387 216.924L525.822 222.246L525.702 228.286L529.947 222.489L525.684 229.175L525.617 232.533L531.78 224.465L525.594 233.704L525.446 241.173Z" fill="#00B0FF"/>
<path d="M264.999 249.051C271.293 249.051 276.397 244.884 276.397 239.743C276.397 234.603 271.293 230.436 264.999 230.436C258.704 230.436 253.6 234.603 253.6 239.743C253.6 244.884 258.704 249.051 264.999 249.051Z" fill="#2F2E41"/>
<path d="M258.997 245.94C258.997 245.94 259.169 251.685 258.483 251.825C257.796 251.965 267.921 254.207 267.921 254.207L268.95 246.36L258.997 245.94Z" fill="#A0616A"/>
<path d="M338.964 294.984C338.964 294.984 346.514 294.984 346.686 294.283C346.858 293.582 348.402 300.028 348.402 300.028L345.313 300.869C345.313 300.869 339.479 298.767 338.964 298.767C338.449 298.767 338.964 294.984 338.964 294.984Z" fill="#A0616A"/>
<path d="M347.201 297.506C347.201 297.506 345.828 293.722 344.112 293.582C344.112 293.582 349.946 290.5 350.118 289.519C350.29 288.538 352.349 286.016 353.207 286.856C354.065 287.697 354.065 301.009 352.52 302.41C350.976 303.811 344.112 300.441 344.112 300.441C344.112 300.441 348.402 298.907 347.201 297.506Z" fill="#2F2E41"/>
<path d="M254.021 351.174L252.648 357.199L258.998 358.04V351.174H254.021Z" fill="#A0616A"/>
<path d="M254.021 356.498C254.021 356.498 252.991 353.836 252.305 354.256C251.619 354.677 250.589 357.339 250.761 358.04C250.932 358.74 252.133 364.205 251.619 365.186C251.104 366.167 254.193 371.212 258.139 370.791C262.086 370.371 261.743 367.568 261.743 367.568L260.37 363.224L259.855 356.358C259.855 356.358 255.394 355.798 254.021 356.498Z" fill="#2F2E41"/>
<path d="M261.011 233.799C263.616 233.799 265.728 232.075 265.728 229.948C265.728 227.821 263.616 226.096 261.011 226.096C258.407 226.096 256.295 227.821 256.295 229.948C256.295 232.075 258.407 233.799 261.011 233.799Z" fill="#2F2E41"/>
<path d="M254.723 227.861C254.723 226.91 255.155 225.991 255.935 225.284C256.715 224.577 257.788 224.13 258.948 224.031C258.785 224.017 258.621 224.01 258.457 224.01C257.206 224.01 256.006 224.416 255.122 225.138C254.237 225.86 253.74 226.84 253.74 227.861C253.74 228.883 254.237 229.863 255.122 230.585C256.006 231.307 257.206 231.713 258.457 231.713C258.621 231.713 258.785 231.706 258.948 231.692C257.788 231.593 256.715 231.146 255.935 230.439C255.155 229.732 254.723 228.813 254.723 227.861Z" fill="#2F2E41"/>
<path d="M265.003 249.863C268.984 249.863 272.211 247.228 272.211 243.978C272.211 240.728 268.984 238.093 265.003 238.093C261.023 238.093 257.796 240.728 257.796 243.978C257.796 247.228 261.023 249.863 265.003 249.863Z" fill="#A0616A"/>
<path d="M250.76 284.895C250.76 284.895 251.104 291.901 252.477 295.544C253.849 299.187 258.799 325.134 257.769 327.095C256.739 329.057 251.447 350.753 252.648 352.014C253.849 353.276 259.512 352.855 259.512 352.855L267.207 326.535C267.207 326.535 265.69 297.506 278.388 296.805C291.087 296.105 311.851 295.684 311.851 295.684C311.851 295.684 325.236 298.907 331.242 298.767C337.248 298.627 340.68 300.028 340.68 300.028L341.709 294.283L315.111 289.519C315.111 289.519 290.744 282.653 277.359 284.474C263.974 286.296 250.76 284.895 250.76 284.895Z" fill="#2F2E41"/>
<path d="M260.37 250.003C260.37 250.003 258.311 249.023 257.796 250.003C257.281 250.984 253.678 251.825 252.305 250.984C250.932 250.144 247.5 251.265 247.5 251.265L243.725 260.373C243.725 260.373 245.612 268.22 247.328 272.564C249.044 276.907 249.731 285.875 249.044 286.716C248.358 287.557 262.773 290.92 269.808 288.818C276.844 286.716 278.388 284.334 278.388 284.334C278.388 284.334 270.666 275.366 273.24 271.162C275.814 266.959 273.755 262.194 273.755 262.194L274.785 257.43L268.95 254.768C268.95 254.768 268.607 252.245 267.234 252.245C265.861 252.245 260.37 250.003 260.37 250.003Z" fill="#D0CDE1"/>
<path d="M272.211 257.57H274.785C275.499 258.116 276.031 258.801 276.331 259.561C276.631 260.321 276.69 261.131 276.501 261.914C275.814 264.576 272.719 273.403 272.719 273.403L270.152 267.939L272.211 257.57Z" fill="#D0CDE1"/>
<path d="M279.602 280.073C279.602 280.073 284.738 284.614 280.962 286.996C277.187 289.379 276.257 281.532 276.257 281.532L279.602 280.073Z" fill="#A0616A"/>
<path d="M272.211 270.602L273.412 274.525L275.471 277.608C275.471 277.608 282.507 281.391 282.507 282.793C282.507 282.793 279.418 279.57 275.471 282.793L271.953 275.856L272.211 270.602Z" fill="#D0CDE1"/>
<path d="M266.324 241.621C270.666 241.621 274.185 239.897 274.185 237.77C274.185 235.643 270.666 233.919 266.324 233.919C261.983 233.919 258.464 235.643 258.464 237.77C258.464 239.897 261.983 241.621 266.324 241.621Z" fill="#2F2E41"/>
<path d="M250.76 238.093C250.76 238.093 256.252 235.571 258.483 237.392C260.713 239.214 251.79 242.016 251.79 242.016L250.76 238.093Z" fill="#A0616A"/>
<path d="M248.701 251.965L247.5 251.265C247.5 251.265 246.127 249.583 244.926 250.144C243.725 250.704 236.689 248.042 236.689 248.042C236.689 248.042 239.263 249.023 239.263 247.341C239.263 245.66 239.606 245.94 241.322 245.94C243.038 245.94 243.038 246.64 243.725 245.66C244.411 244.679 244.068 244.118 245.269 244.679C246.47 245.239 247.843 244.819 248.186 244.398C248.53 243.978 254.707 243.277 254.707 243.277C254.707 243.277 252.305 237.532 251.79 237.112C251.275 236.692 238.062 241.456 238.062 241.456C238.062 241.456 221.417 245.239 225.707 249.583C229.997 253.927 245.441 260.513 245.441 260.513L248.701 251.965Z" fill="#D0CDE1"/>
<path d="M506.031 309.79H434.528V386.449H506.031V309.79Z" fill="#00B0FF"/>
<path d="M486.331 321.905H454.228V348.119H486.331V321.905Z" fill="#3F3D56"/>
<path d="M498.492 353.68H442.068V356.858H498.492V353.68Z" fill="#3F3D56"/>
<path d="M498.492 362.418H442.068V365.596H498.492V362.418Z" fill="#3F3D56"/>
<path d="M498.492 371.157H442.068V374.334H498.492V371.157Z" fill="#3F3D56"/>
<path d="M352.749 392.976C352.749 398.767 348.533 400.789 343.331 400.789C343.211 400.789 343.091 400.788 342.97 400.786C342.729 400.782 342.491 400.772 342.255 400.759C337.561 400.488 333.914 398.362 333.914 392.976C333.914 387.402 342.637 380.368 343.292 379.848L343.293 379.847C343.319 379.827 343.331 379.817 343.331 379.817C343.331 379.817 352.749 387.184 352.749 392.976Z" fill="#00B0FF"/>
<path d="M342.988 399.903L346.433 395.973L342.98 400.335L342.97 400.786C342.73 400.782 342.491 400.772 342.255 400.759L342.626 394.965L342.623 394.92L342.63 394.912L342.665 394.364L339.203 389.992L342.676 393.954L342.684 394.07L342.964 389.692L340.001 385.174L343 388.924L343.292 379.848L343.294 379.817V379.847L343.245 387.004L346.195 384.167L343.233 387.62L343.155 391.54L345.909 387.778L343.143 392.117L343.1 394.296L347.099 389.06L343.085 395.056L342.988 399.903Z" fill="#3F3D56"/>
</g>
</g>
<defs>
<clipPath id="clip0">
<rect width="794.122" height="505.345" fill="white"/>
</clipPath>
<clipPath id="clip1">
<rect width="497" height="298" fill="white" transform="translate(225 105)"/>
</clipPath>
</defs>
</svg>
