<svg width="795" height="506" viewBox="0 0 795 506" fill="none" xmlns="http://www.w3.org/2000/svg">
<g clip-path="url(#clip0)">
<path d="M44.5188 503.871C32.2679 502.863 21.4518 494 15.3008 483.357C13.238 479.788 11.8247 475.107 14.1606 471.71C14.8292 470.738 15.7533 469.969 16.8309 469.488C17.9085 469.008 19.0979 468.834 20.2679 468.986C21.438 469.138 22.5434 469.61 23.4623 470.351C24.3811 471.091 25.0778 472.07 25.4756 473.181C24.7232 469.012 24.3999 464.776 24.5108 460.54C24.6049 456.954 25.2825 452.9 28.2643 450.906C31.7236 448.592 36.7098 450.429 39.226 453.744C41.7422 457.059 42.425 461.37 43.0289 465.488C42.5358 463.745 42.4877 461.907 42.889 460.14C43.2903 458.374 44.1281 456.737 45.3258 455.378C46.5234 454.02 48.0427 452.983 49.7446 452.363C51.4465 451.743 53.2766 451.56 55.0675 451.831C60.1342 452.596 64.1033 456.983 65.6521 461.867C67.2008 466.752 66.7173 472.048 65.7205 477.074C64.5516 482.968 62.6547 488.815 59.2395 493.758C55.8243 498.702 50.7515 502.687 44.866 503.897L44.5188 503.871Z" fill="#F2F2F2"/>
<path d="M794.122 106C794.122 127.984 787.289 149.424 774.569 167.354C761.849 185.284 743.871 198.817 723.122 206.08C722.462 206.31 721.792 206.54 721.122 206.75V99.04H582.352C582.392 98.37 582.442 97.7 582.502 97.04H721.122V76C721.121 74.6741 720.594 73.4026 719.657 72.4651C718.719 71.5275 717.448 71.0005 716.122 71H588.042C588.272 70.33 588.512 69.66 588.772 69C597.449 45.7103 614.032 26.2096 635.626 13.9047C657.22 1.59972 682.45 -2.72714 706.91 1.68C731.369 6.08714 753.503 18.9481 769.444 38.016C785.385 57.0839 794.119 81.1465 794.122 106Z" fill="#F2F2F2"/>
<path d="M716.122 69H229.122C227.266 69.0021 225.487 69.7402 224.174 71.0525C222.862 72.3648 222.124 74.1441 222.122 76V406C222.124 407.856 222.862 409.635 224.174 410.947C225.487 412.26 227.266 412.998 229.122 413H716.122C717.978 412.998 719.757 412.26 721.069 410.947C722.382 409.635 723.12 407.856 723.122 406V76C723.12 74.1441 722.382 72.3648 721.069 71.0525C719.757 69.7402 717.978 69.0021 716.122 69ZM721.122 406C721.121 407.326 720.594 408.597 719.657 409.535C718.719 410.473 717.448 411 716.122 411H229.122C227.796 411 226.524 410.473 225.587 409.535C224.649 408.597 224.122 407.326 224.122 406V76C224.122 74.6741 224.649 73.4026 225.587 72.4651C226.524 71.5275 227.796 71.0005 229.122 71H716.122C717.448 71.0005 718.719 71.5275 719.657 72.4651C720.594 73.4026 721.121 74.6741 721.122 76V406Z" fill="#3F3D56"/>
<g clip-path="url(#clip1)">
<path d="M571.645 302.533C571.645 302.533 581.118 357.985 636.542 376.411L524.339 376.542L412.136 376.673C467.501 358.121 476.809 302.628 476.809 302.628L571.645 302.533Z" fill="#E0E0E0"/>
<path d="M637.536 376.403L411.02 376.673L411.039 388.389L637.555 388.119L637.536 376.403Z" fill="url(#paint0_linear)"/>
<path d="M636.545 376.404L412.146 376.672L412.161 385.708L636.56 385.441L636.545 376.404Z" fill="#F5F5F5"/>
<path d="M706.39 103L341.451 103.428C337.413 103.428 334.142 106.365 334.148 109.976L334.431 291.909V297.954C334.431 311.775 347.004 322.968 362.461 322.948L686.047 322.565C701.509 322.565 714.024 311.327 714 297.506V291.461L713.717 109.528C713.711 105.916 710.428 102.995 706.39 103Z" fill="url(#paint1_linear)"/>
<path d="M344.935 108.944H702.658C704.339 108.944 705.951 109.514 707.139 110.53C708.328 111.545 708.995 112.922 708.995 114.359V288.278H338.592V114.359C338.592 112.922 339.26 111.545 340.448 110.53C341.637 109.514 343.249 108.944 344.929 108.944H344.935Z" fill="white"/>
<path d="M685.192 317.19L363.333 317.568C360.145 317.575 356.987 317.046 354.038 316.009C351.09 314.973 348.41 313.45 346.151 311.527C343.892 309.605 342.099 307.321 340.874 304.806C339.648 302.292 339.016 299.595 339.011 296.871V288.021L709.414 287.583V296.438C709.422 301.934 706.874 307.208 702.332 311.1C697.79 314.992 691.624 317.182 685.192 317.19Z" fill="#F5F5F5"/>
<path d="M692.25 122.783L357.057 123.183L357.294 267.952L692.486 267.553L692.25 122.783Z" fill="#00B0FF"/>
<path d="M456.109 177.671L301.865 177.855C296.275 177.862 291.75 181.739 291.758 186.516L292.107 400.338C292.115 405.115 296.653 408.981 302.242 408.975L456.487 408.791C462.077 408.784 466.602 404.907 466.594 400.13L466.245 186.308C466.237 181.531 461.699 177.664 456.109 177.671Z" fill="url(#paint2_linear)"/>
<path d="M454.67 195.328L303.986 195.508L304.303 389.353L454.987 389.173L454.67 195.328Z" fill="url(#paint3_linear)"/>
<path d="M450.81 181.173L307.182 181.345C301.592 181.351 297.067 185.229 297.074 190.005L297.406 393.184C297.414 397.961 301.952 401.828 307.542 401.821L451.17 401.65C456.76 401.643 461.285 397.765 461.277 392.989L460.945 189.81C460.937 185.033 456.4 181.167 450.81 181.173Z" fill="white"/>
<path d="M449.799 198.412H308.287V383.332H449.799V198.412Z" fill="#00B0FF"/>
<path d="M379.42 397.617C382.64 397.617 385.25 395.332 385.25 392.514C385.25 389.696 382.64 387.412 379.42 387.412C376.2 387.412 373.59 389.696 373.59 392.514C373.59 395.332 376.2 397.617 379.42 397.617Z" fill="#DBDBDB"/>
<path d="M354.818 191.835C355.892 191.834 356.762 191.071 356.76 190.131C356.759 189.19 355.886 188.429 354.812 188.43C353.738 188.432 352.868 189.195 352.87 190.135C352.871 191.076 353.743 191.837 354.818 191.835Z" fill="#DBDBDB"/>
<path d="M388.956 189.07L365.371 189.098C364.905 189.098 364.528 189.421 364.529 189.819L364.529 190.081C364.53 190.479 364.908 190.801 365.374 190.8L388.959 190.772C389.424 190.772 389.801 190.449 389.801 190.051L389.8 189.789C389.8 189.391 389.422 189.069 388.956 189.07Z" fill="#DBDBDB"/>
<path d="M343.608 233.112L239.882 233.231C236.627 233.235 233.991 235.493 233.996 238.275L234.284 407.968C234.289 410.75 236.932 413.002 240.187 412.998L343.913 412.879C347.169 412.875 349.804 410.617 349.799 407.835L349.511 238.142C349.507 235.36 346.864 233.108 343.608 233.112Z" fill="url(#paint4_linear)"/>
<path d="M340.961 236.072L242.552 236.189C239.296 236.193 236.661 238.452 236.665 241.234L236.931 403.799C236.936 406.581 239.578 408.833 242.834 408.829L341.243 408.712C344.498 408.708 347.134 406.449 347.129 403.668L346.864 241.102C346.859 238.32 344.216 236.068 340.961 236.072Z" fill="white"/>
<path d="M334.431 248.285L249.115 248.386L249.345 388.88L334.661 388.778L334.431 248.285Z" fill="#00B0FF"/>
<path d="M291.41 405.107C295.167 405.107 298.213 402.441 298.213 399.153C298.213 395.865 295.167 393.199 291.41 393.199C287.653 393.199 284.607 395.865 284.607 399.153C284.607 402.441 287.653 405.107 291.41 405.107Z" fill="#DBDBDB"/>
<path d="M278.846 242.992C279.598 242.991 280.207 242.458 280.206 241.801C280.205 241.145 279.594 240.613 278.842 240.614C278.09 240.615 277.481 241.148 277.482 241.805C277.483 242.461 278.094 242.993 278.846 242.992Z" fill="#DBDBDB"/>
<path d="M305.163 240.875L285.846 240.898C285.357 240.899 284.962 241.237 284.963 241.655L284.963 241.932C284.964 242.349 285.36 242.687 285.848 242.686L305.166 242.663C305.654 242.662 306.05 242.324 306.049 241.906L306.048 241.629C306.048 241.212 305.651 240.874 305.163 240.875Z" fill="#DBDBDB"/>
<path d="M412.341 161H409.229C409.171 160.918 409.112 160.821 409.054 160.71C408.995 160.593 408.931 160.455 408.86 160.297L408.737 160.033C408.638 159.822 408.544 159.603 408.456 159.374C408.374 159.14 408.269 158.829 408.14 158.442C407.958 157.886 407.797 157.44 407.656 157.106C407.521 156.767 407.352 156.482 407.146 156.254C406.941 156.025 406.698 155.911 406.417 155.911C405.819 155.935 405.23 155.946 404.65 155.946V161H401.855V147.623H403.147C403.446 147.623 403.789 147.605 404.176 147.57C404.498 147.547 404.873 147.526 405.301 147.509C405.729 147.491 406.194 147.482 406.698 147.482C408.122 147.482 409.279 147.793 410.17 148.414C411.066 149.029 411.515 150.066 411.515 151.525C411.515 152.574 411.324 153.412 410.943 154.039C410.568 154.666 410.018 155.123 409.291 155.41C409.602 155.674 409.871 156.02 410.1 156.447C410.334 156.875 410.609 157.458 410.926 158.196C411.266 159.017 411.553 159.629 411.787 160.033L412.341 161ZM404.65 153.934C404.943 153.969 405.556 153.986 406.487 153.986C407.278 153.986 407.861 153.761 408.236 153.31C408.611 152.858 408.799 152.29 408.799 151.604C408.799 151.206 408.734 150.86 408.605 150.567C408.482 150.269 408.242 150.028 407.885 149.847C407.527 149.659 407.021 149.565 406.364 149.565C405.667 149.565 405.096 149.618 404.65 149.724V153.934ZM422.431 154.769C422.431 155.612 422.398 156.239 422.334 156.649H416.41C416.463 157.476 416.721 158.091 417.184 158.495C417.652 158.899 418.285 159.102 419.082 159.102C419.463 159.102 419.923 159.052 420.462 158.952C421.007 158.847 421.405 158.724 421.657 158.583L422.105 160.139C421.76 160.42 421.241 160.657 420.55 160.851C419.858 161.044 419.138 161.141 418.388 161.141C417.38 161.141 416.521 160.936 415.812 160.525C415.104 160.115 414.567 159.523 414.204 158.75C413.841 157.971 413.659 157.039 413.659 155.955C413.659 154.971 413.85 154.092 414.23 153.318C414.611 152.545 415.165 151.938 415.892 151.499C416.624 151.06 417.494 150.84 418.502 150.84C419.229 150.84 419.885 150.972 420.471 151.235C421.057 151.499 421.525 151.924 421.877 152.51C422.234 153.096 422.419 153.849 422.431 154.769ZM419.882 155.129C419.888 155.041 419.891 154.912 419.891 154.742C419.891 154.104 419.771 153.62 419.53 153.292C419.29 152.958 418.9 152.791 418.361 152.791C417.822 152.791 417.392 152.97 417.069 153.327C416.753 153.679 416.548 154.279 416.454 155.129H419.882ZM424.575 158.328C424.687 158.416 424.895 158.524 425.199 158.653C425.504 158.776 425.855 158.885 426.254 158.979C426.658 159.072 427.057 159.119 427.449 159.119C427.994 159.125 428.393 159.063 428.645 158.935C428.896 158.806 429.022 158.589 429.022 158.284C429.022 158.003 428.847 157.748 428.495 157.52C428.149 157.291 427.602 157.054 426.852 156.808C425.961 156.515 425.316 156.116 424.918 155.612C424.525 155.108 424.329 154.487 424.329 153.749C424.329 153.128 424.499 152.601 424.839 152.167C425.185 151.728 425.662 151.396 426.271 151.174C426.881 150.951 427.581 150.84 428.372 150.84C429.011 150.84 429.582 150.901 430.086 151.024C430.59 151.147 430.959 151.276 431.193 151.411L430.895 153.521C430.695 153.339 430.373 153.181 429.928 153.046C429.488 152.911 429.061 152.844 428.645 152.844C428.047 152.844 427.613 152.908 427.344 153.037C427.08 153.16 426.948 153.365 426.948 153.652C426.948 153.857 427.01 154.033 427.133 154.18C427.256 154.32 427.452 154.458 427.722 154.593C427.997 154.722 428.393 154.874 428.908 155.05C429.594 155.284 430.139 155.542 430.543 155.823C430.953 156.099 431.252 156.418 431.439 156.781C431.627 157.139 431.721 157.566 431.721 158.064C431.721 159.078 431.372 159.846 430.675 160.367C429.983 160.883 429.022 161.141 427.792 161.141C427.329 161.141 426.863 161.103 426.395 161.026C425.926 160.95 425.504 160.854 425.129 160.736C424.76 160.613 424.481 160.49 424.294 160.367L424.575 158.328ZM439.446 150.84C440.179 150.84 440.847 151.019 441.45 151.376C442.054 151.728 442.534 152.264 442.892 152.984C443.255 153.699 443.437 154.578 443.437 155.621C443.437 156.717 443.223 157.684 442.795 158.521C442.373 159.354 441.775 159.998 441.002 160.455C440.234 160.912 439.347 161.141 438.339 161.141C437.741 161.141 437.188 161.047 436.678 160.859L436.713 162.222V165.447H433.971V150.98H436.528V152C436.851 151.678 437.24 151.405 437.697 151.183C438.154 150.954 438.737 150.84 439.446 150.84ZM440.562 155.771C440.562 154.71 440.396 153.966 440.062 153.538C439.728 153.104 439.241 152.888 438.603 152.888C438.239 152.888 437.888 152.946 437.548 153.063C437.214 153.181 436.936 153.33 436.713 153.512V158.812C436.883 158.964 437.097 159.069 437.354 159.128C437.618 159.187 437.92 159.216 438.26 159.216C438.705 159.216 439.101 159.081 439.446 158.812C439.792 158.542 440.064 158.146 440.264 157.625C440.463 157.104 440.562 156.485 440.562 155.771ZM445.115 155.894C445.115 154.821 445.326 153.907 445.748 153.151C446.17 152.39 446.756 151.815 447.506 151.429C448.256 151.036 449.117 150.84 450.09 150.84C451.197 150.84 452.108 151.074 452.823 151.543C453.538 152.006 454.057 152.63 454.379 153.415C454.707 154.194 454.871 155.076 454.871 156.061C454.871 157.139 454.66 158.059 454.238 158.82C453.816 159.582 453.23 160.159 452.48 160.552C451.73 160.944 450.872 161.141 449.905 161.141C448.792 161.141 447.878 160.906 447.163 160.438C446.448 159.969 445.927 159.342 445.599 158.557C445.276 157.766 445.115 156.878 445.115 155.894ZM452.032 156.069C452.032 155.132 451.865 154.353 451.531 153.731C451.197 153.104 450.69 152.791 450.011 152.791C448.64 152.791 447.954 153.811 447.954 155.85C447.954 156.465 448.024 157.027 448.165 157.537C448.312 158.041 448.537 158.445 448.842 158.75C449.152 159.055 449.539 159.207 450.002 159.207C451.355 159.207 452.032 158.161 452.032 156.069ZM459.731 150.98L459.784 152.053C460.188 151.748 460.692 151.47 461.296 151.218C461.899 150.966 462.482 150.831 463.045 150.813C463.766 150.79 464.354 150.904 464.812 151.156C465.269 151.402 465.608 151.815 465.831 152.396C466.06 152.97 466.174 153.743 466.174 154.716V161H463.432V155.305C463.432 154.736 463.388 154.297 463.3 153.986C463.212 153.67 463.062 153.444 462.852 153.31C462.641 153.175 462.342 153.113 461.955 153.125C461.662 153.131 461.331 153.198 460.962 153.327C460.593 153.456 460.268 153.644 459.986 153.89V161H457.244V150.98H459.731ZM468.89 158.328C469.001 158.416 469.209 158.524 469.514 158.653C469.818 158.776 470.17 158.885 470.568 158.979C470.973 159.072 471.371 159.119 471.764 159.119C472.309 159.125 472.707 159.063 472.959 158.935C473.211 158.806 473.337 158.589 473.337 158.284C473.337 158.003 473.161 157.748 472.81 157.52C472.464 157.291 471.916 157.054 471.166 156.808C470.275 156.515 469.631 156.116 469.232 155.612C468.84 155.108 468.644 154.487 468.644 153.749C468.644 153.128 468.813 152.601 469.153 152.167C469.499 151.728 469.977 151.396 470.586 151.174C471.195 150.951 471.896 150.84 472.687 150.84C473.325 150.84 473.896 150.901 474.4 151.024C474.904 151.147 475.273 151.276 475.508 151.411L475.209 153.521C475.01 153.339 474.688 153.181 474.242 153.046C473.803 152.911 473.375 152.844 472.959 152.844C472.361 152.844 471.928 152.908 471.658 153.037C471.395 153.16 471.263 153.365 471.263 153.652C471.263 153.857 471.324 154.033 471.447 154.18C471.57 154.32 471.767 154.458 472.036 154.593C472.312 154.722 472.707 154.874 473.223 155.05C473.908 155.284 474.453 155.542 474.857 155.823C475.268 156.099 475.566 156.418 475.754 156.781C475.941 157.139 476.035 157.566 476.035 158.064C476.035 159.078 475.687 159.846 474.989 160.367C474.298 160.883 473.337 161.141 472.106 161.141C471.644 161.141 471.178 161.103 470.709 161.026C470.24 160.95 469.818 160.854 469.443 160.736C469.074 160.613 468.796 160.49 468.608 160.367L468.89 158.328ZM481.08 150.98V161H478.338V150.98H481.08ZM478.004 148.019C478.004 147.726 478.086 147.453 478.25 147.201C478.414 146.949 478.631 146.75 478.9 146.604C479.17 146.451 479.454 146.375 479.753 146.375C480.233 146.375 480.617 146.516 480.904 146.797C481.191 147.072 481.335 147.43 481.335 147.869C481.335 148.162 481.253 148.438 481.089 148.695C480.931 148.947 480.717 149.149 480.447 149.302C480.184 149.448 479.899 149.521 479.595 149.521C479.296 149.521 479.026 149.457 478.786 149.328C478.546 149.199 478.355 149.021 478.215 148.792C478.074 148.563 478.004 148.306 478.004 148.019ZM492.928 150.98L489.104 161.141H486.564L482.759 150.98H485.721L487.25 155.902L487.892 158.346L488.498 155.902L490.027 150.98H492.928ZM502.692 154.769C502.692 155.612 502.66 156.239 502.596 156.649H496.672C496.725 157.476 496.982 158.091 497.445 158.495C497.914 158.899 498.547 159.102 499.344 159.102C499.725 159.102 500.185 159.052 500.724 158.952C501.269 158.847 501.667 158.724 501.919 158.583L502.367 160.139C502.021 160.42 501.503 160.657 500.812 160.851C500.12 161.044 499.399 161.141 498.649 161.141C497.642 161.141 496.783 160.936 496.074 160.525C495.365 160.115 494.829 159.523 494.466 158.75C494.103 157.971 493.921 157.039 493.921 155.955C493.921 154.971 494.111 154.092 494.492 153.318C494.873 152.545 495.427 151.938 496.153 151.499C496.886 151.06 497.756 150.84 498.764 150.84C499.49 150.84 500.146 150.972 500.732 151.235C501.318 151.499 501.787 151.924 502.139 152.51C502.496 153.096 502.681 153.849 502.692 154.769ZM500.144 155.129C500.149 155.041 500.152 154.912 500.152 154.742C500.152 154.104 500.032 153.62 499.792 153.292C499.552 152.958 499.162 152.791 498.623 152.791C498.084 152.791 497.653 152.97 497.331 153.327C497.015 153.679 496.81 154.279 496.716 155.129H500.144ZM526.73 147.623L523.232 161.141H520.367L518.486 153.67L518.056 150.787L517.66 153.679L515.735 161.141H513.063L509.478 147.623H512.281L513.934 155.48L514.399 158.732L514.936 155.48L516.869 147.623H519.365L521.422 155.48L521.967 158.592L522.415 155.48L523.936 147.623H526.73ZM536.39 154.769C536.39 155.612 536.357 156.239 536.293 156.649H530.369C530.422 157.476 530.68 158.091 531.143 158.495C531.611 158.899 532.244 159.102 533.041 159.102C533.422 159.102 533.882 159.052 534.421 158.952C534.966 158.847 535.364 158.724 535.616 158.583L536.064 160.139C535.719 160.42 535.2 160.657 534.509 160.851C533.817 161.044 533.097 161.141 532.347 161.141C531.339 161.141 530.48 160.936 529.771 160.525C529.062 160.115 528.526 159.523 528.163 158.75C527.8 157.971 527.618 157.039 527.618 155.955C527.618 154.971 527.809 154.092 528.189 153.318C528.57 152.545 529.124 151.938 529.851 151.499C530.583 151.06 531.453 150.84 532.461 150.84C533.188 150.84 533.844 150.972 534.43 151.235C535.016 151.499 535.484 151.924 535.836 152.51C536.193 153.096 536.378 153.849 536.39 154.769ZM533.841 155.129C533.847 155.041 533.85 154.912 533.85 154.742C533.85 154.104 533.729 153.62 533.489 153.292C533.249 152.958 532.859 152.791 532.32 152.791C531.781 152.791 531.351 152.97 531.028 153.327C530.712 153.679 530.507 154.279 530.413 155.129H533.841ZM544.194 150.84C544.927 150.84 545.595 151.019 546.198 151.376C546.802 151.728 547.282 152.264 547.64 152.984C548.003 153.699 548.185 154.578 548.185 155.621C548.185 156.717 547.965 157.689 547.525 158.539C547.086 159.383 546.468 160.039 545.671 160.508C544.88 160.971 543.972 161.202 542.946 161.202C542.384 161.202 541.795 161.155 541.18 161.062C540.57 160.974 540.034 160.868 539.571 160.745C539.108 160.622 538.824 160.52 538.719 160.438V146.401H541.461V150.242L541.391 151.895C541.707 151.596 542.088 151.347 542.533 151.147C542.979 150.942 543.532 150.84 544.194 150.84ZM545.311 155.771C545.311 154.71 545.144 153.966 544.81 153.538C544.476 153.104 543.989 152.888 543.351 152.888C542.987 152.888 542.636 152.946 542.296 153.063C541.962 153.181 541.684 153.33 541.461 153.512V158.961C541.672 159.189 542.188 159.304 543.008 159.304C543.453 159.304 543.849 159.166 544.194 158.891C544.54 158.609 544.812 158.202 545.012 157.669C545.211 157.136 545.311 156.503 545.311 155.771ZM563.583 158.17H558.67L557.782 161H554.776L559.716 147.482H562.546L567.529 161H564.479L563.583 158.17ZM562.941 156.157L561.491 151.569L561.113 150.189L560.727 151.569L559.294 156.157H562.941ZM574.358 150.84C575.091 150.84 575.759 151.019 576.362 151.376C576.966 151.728 577.446 152.264 577.804 152.984C578.167 153.699 578.349 154.578 578.349 155.621C578.349 156.717 578.135 157.684 577.707 158.521C577.285 159.354 576.688 159.998 575.914 160.455C575.146 160.912 574.259 161.141 573.251 161.141C572.653 161.141 572.1 161.047 571.59 160.859L571.625 162.222V165.447H568.883V150.98H571.44V152C571.763 151.678 572.152 151.405 572.609 151.183C573.066 150.954 573.649 150.84 574.358 150.84ZM575.475 155.771C575.475 154.71 575.308 153.966 574.974 153.538C574.64 153.104 574.153 152.888 573.515 152.888C573.151 152.888 572.8 152.946 572.46 153.063C572.126 153.181 571.848 153.33 571.625 153.512V158.812C571.795 158.964 572.009 159.069 572.267 159.128C572.53 159.187 572.832 159.216 573.172 159.216C573.617 159.216 574.013 159.081 574.358 158.812C574.704 158.542 574.977 158.146 575.176 157.625C575.375 157.104 575.475 156.485 575.475 155.771ZM586.136 150.84C586.868 150.84 587.536 151.019 588.14 151.376C588.743 151.728 589.224 152.264 589.581 152.984C589.944 153.699 590.126 154.578 590.126 155.621C590.126 156.717 589.912 157.684 589.484 158.521C589.062 159.354 588.465 159.998 587.691 160.455C586.924 160.912 586.036 161.141 585.028 161.141C584.431 161.141 583.877 161.047 583.367 160.859L583.402 162.222V165.447H580.66V150.98H583.218V152C583.54 151.678 583.93 151.405 584.387 151.183C584.844 150.954 585.427 150.84 586.136 150.84ZM587.252 155.771C587.252 154.71 587.085 153.966 586.751 153.538C586.417 153.104 585.931 152.888 585.292 152.888C584.929 152.888 584.577 152.946 584.237 153.063C583.903 153.181 583.625 153.33 583.402 153.512V158.812C583.572 158.964 583.786 159.069 584.044 159.128C584.308 159.187 584.609 159.216 584.949 159.216C585.395 159.216 585.79 159.081 586.136 158.812C586.481 158.542 586.754 158.146 586.953 157.625C587.152 157.104 587.252 156.485 587.252 155.771ZM595.285 146.393V161H592.543V146.393H595.285ZM601.139 150.98V161H598.396V150.98H601.139ZM598.062 148.019C598.062 147.726 598.145 147.453 598.309 147.201C598.473 146.949 598.689 146.75 598.959 146.604C599.229 146.451 599.513 146.375 599.812 146.375C600.292 146.375 600.676 146.516 600.963 146.797C601.25 147.072 601.394 147.43 601.394 147.869C601.394 148.162 601.312 148.438 601.147 148.695C600.989 148.947 600.775 149.149 600.506 149.302C600.242 149.448 599.958 149.521 599.653 149.521C599.354 149.521 599.085 149.457 598.845 149.328C598.604 149.199 598.414 149.021 598.273 148.792C598.133 148.563 598.062 148.306 598.062 148.019ZM608.504 150.84C609.096 150.84 609.632 150.893 610.112 150.998C610.593 151.098 610.924 151.215 611.105 151.35L610.763 153.468C610.511 153.333 610.229 153.236 609.919 153.178C609.614 153.113 609.236 153.081 608.785 153.081C608.363 153.081 607.962 153.172 607.581 153.354C607.2 153.529 606.884 153.819 606.632 154.224C606.38 154.622 606.245 155.138 606.228 155.771C606.21 156.468 606.304 157.054 606.509 157.528C606.714 158.003 607.004 158.357 607.379 158.592C607.76 158.82 608.193 158.935 608.68 158.935C609.119 158.935 609.538 158.896 609.937 158.82C610.341 158.738 610.648 158.639 610.859 158.521L611.255 160.147C610.944 160.446 610.511 160.687 609.954 160.868C609.397 161.05 608.806 161.141 608.179 161.141C607.171 161.141 606.315 160.927 605.612 160.499C604.909 160.065 604.382 159.471 604.03 158.715C603.679 157.953 603.503 157.086 603.503 156.113C603.503 155.105 603.688 154.203 604.057 153.406C604.426 152.609 604.985 151.982 605.735 151.525C606.485 151.068 607.408 150.84 608.504 150.84ZM617.214 150.787C618.187 150.787 618.963 150.896 619.543 151.112C620.129 151.323 620.565 151.695 620.853 152.229C621.14 152.756 621.283 153.497 621.283 154.452V161.141H619.684C619.42 161.141 619.221 161.123 619.086 161.088C618.951 161.053 618.846 160.971 618.77 160.842C618.693 160.713 618.655 160.508 618.655 160.227V160.156C618.351 160.438 617.976 160.672 617.53 160.859C617.085 161.047 616.59 161.141 616.045 161.141C615.4 161.141 614.829 161.003 614.331 160.728C613.839 160.446 613.455 160.06 613.18 159.567C612.91 159.069 612.775 158.507 612.775 157.88C612.775 157.294 612.925 156.793 613.224 156.377C613.528 155.961 613.962 155.627 614.524 155.375C615.397 154.988 616.736 154.795 618.541 154.795V154.162C618.541 153.787 618.491 153.512 618.392 153.336C618.298 153.16 618.113 153.04 617.838 152.976C617.568 152.911 617.141 152.879 616.555 152.879C616.273 152.879 615.846 152.952 615.271 153.099C614.697 153.239 614.205 153.403 613.795 153.591L613.188 151.833C613.423 151.692 613.763 151.54 614.208 151.376C614.653 151.212 615.143 151.074 615.676 150.963C616.209 150.846 616.722 150.787 617.214 150.787ZM616.985 159.286C617.278 159.286 617.586 159.228 617.908 159.11C618.23 158.987 618.441 158.861 618.541 158.732V156.342C618.207 156.342 617.829 156.38 617.407 156.456C616.991 156.526 616.681 156.608 616.476 156.702C616.212 156.802 616.001 156.937 615.843 157.106C615.685 157.276 615.605 157.528 615.605 157.862C615.605 158.331 615.731 158.686 615.983 158.926C616.241 159.166 616.575 159.286 616.985 159.286ZM624.491 152.879H623.287V151.394C623.674 151.282 623.952 151.197 624.122 151.139C624.298 151.074 624.453 150.989 624.588 150.884C624.723 150.772 624.828 150.626 624.904 150.444C625.027 150.151 625.247 149.568 625.563 148.695H627.233V150.98H629.949V152.879H627.233V156.904C627.233 157.572 627.269 158.059 627.339 158.363C627.409 158.668 627.521 158.864 627.673 158.952C627.825 159.034 628.06 159.075 628.376 159.075C628.622 159.075 628.903 159.034 629.22 158.952C629.542 158.864 629.779 158.765 629.932 158.653L630.266 160.191C629.99 160.438 629.577 160.657 629.026 160.851C628.481 161.044 627.893 161.141 627.26 161.141C626.586 161.141 626.047 161.038 625.643 160.833C625.244 160.622 624.951 160.291 624.764 159.84C624.582 159.383 624.491 158.776 624.491 158.021V152.879ZM634.941 150.98V161H632.199V150.98H634.941ZM631.865 148.019C631.865 147.726 631.947 147.453 632.111 147.201C632.275 146.949 632.492 146.75 632.762 146.604C633.031 146.451 633.315 146.375 633.614 146.375C634.095 146.375 634.479 146.516 634.766 146.797C635.053 147.072 635.196 147.43 635.196 147.869C635.196 148.162 635.114 148.438 634.95 148.695C634.792 148.947 634.578 149.149 634.309 149.302C634.045 149.448 633.761 149.521 633.456 149.521C633.157 149.521 632.888 149.457 632.647 149.328C632.407 149.199 632.217 149.021 632.076 148.792C631.936 148.563 631.865 148.306 631.865 148.019ZM637.314 155.894C637.314 154.821 637.525 153.907 637.947 153.151C638.369 152.39 638.955 151.815 639.705 151.429C640.455 151.036 641.316 150.84 642.289 150.84C643.396 150.84 644.308 151.074 645.022 151.543C645.737 152.006 646.256 152.63 646.578 153.415C646.906 154.194 647.07 155.076 647.07 156.061C647.07 157.139 646.859 158.059 646.438 158.82C646.016 159.582 645.43 160.159 644.68 160.552C643.93 160.944 643.071 161.141 642.104 161.141C640.991 161.141 640.077 160.906 639.362 160.438C638.647 159.969 638.126 159.342 637.798 158.557C637.476 157.766 637.314 156.878 637.314 155.894ZM644.231 156.069C644.231 155.132 644.064 154.353 643.73 153.731C643.396 153.104 642.89 152.791 642.21 152.791C640.839 152.791 640.153 153.811 640.153 155.85C640.153 156.465 640.224 157.027 640.364 157.537C640.511 158.041 640.736 158.445 641.041 158.75C641.352 159.055 641.738 159.207 642.201 159.207C643.555 159.207 644.231 158.161 644.231 156.069ZM651.931 150.98L651.983 152.053C652.388 151.748 652.892 151.47 653.495 151.218C654.099 150.966 654.682 150.831 655.244 150.813C655.965 150.79 656.554 150.904 657.011 151.156C657.468 151.402 657.808 151.815 658.03 152.396C658.259 152.97 658.373 153.743 658.373 154.716V161H655.631V155.305C655.631 154.736 655.587 154.297 655.499 153.986C655.411 153.67 655.262 153.444 655.051 153.31C654.84 153.175 654.541 153.113 654.154 153.125C653.861 153.131 653.53 153.198 653.161 153.327C652.792 153.456 652.467 153.644 652.186 153.89V161H649.443V150.98H651.931Z" fill="black"/>
<path d="M336.027 218H333.78C333.737 217.941 333.695 217.871 333.653 217.791C333.611 217.706 333.564 217.606 333.513 217.492L333.424 217.302C333.352 217.149 333.285 216.991 333.221 216.826C333.162 216.656 333.086 216.432 332.993 216.153C332.861 215.751 332.745 215.429 332.644 215.188C332.546 214.943 332.424 214.737 332.275 214.572C332.127 214.407 331.952 214.325 331.749 214.325C331.317 214.342 330.892 214.35 330.473 214.35V218H328.454V208.339H329.387C329.603 208.339 329.851 208.326 330.13 208.301C330.363 208.284 330.633 208.269 330.942 208.256C331.251 208.244 331.588 208.237 331.952 208.237C332.98 208.237 333.816 208.462 334.459 208.91C335.106 209.354 335.43 210.104 335.43 211.157C335.43 211.915 335.293 212.52 335.018 212.973C334.747 213.425 334.349 213.756 333.824 213.963C334.049 214.153 334.243 214.403 334.408 214.712C334.577 215.021 334.776 215.442 335.005 215.975C335.25 216.568 335.458 217.01 335.627 217.302L336.027 218ZM330.473 212.896C330.684 212.922 331.126 212.935 331.799 212.935C332.371 212.935 332.792 212.772 333.062 212.446C333.333 212.12 333.469 211.709 333.469 211.214C333.469 210.927 333.422 210.677 333.329 210.465C333.24 210.25 333.067 210.076 332.809 209.945C332.55 209.809 332.184 209.742 331.71 209.742C331.207 209.742 330.794 209.78 330.473 209.856V212.896ZM343.314 213.5C343.314 214.109 343.291 214.562 343.244 214.858H338.966C339.004 215.455 339.19 215.899 339.524 216.191C339.863 216.483 340.32 216.629 340.896 216.629C341.171 216.629 341.503 216.593 341.892 216.521C342.286 216.445 342.573 216.356 342.755 216.254L343.079 217.378C342.829 217.581 342.455 217.752 341.956 217.892C341.456 218.032 340.936 218.102 340.394 218.102C339.666 218.102 339.046 217.953 338.534 217.657C338.022 217.361 337.635 216.934 337.373 216.375C337.11 215.812 336.979 215.139 336.979 214.356C336.979 213.646 337.117 213.011 337.392 212.452C337.667 211.894 338.067 211.456 338.591 211.138C339.12 210.821 339.749 210.662 340.477 210.662C341.001 210.662 341.475 210.757 341.898 210.948C342.322 211.138 342.66 211.445 342.914 211.868C343.172 212.291 343.306 212.835 343.314 213.5ZM341.473 213.76C341.477 213.696 341.479 213.603 341.479 213.48C341.479 213.019 341.393 212.67 341.219 212.433C341.046 212.192 340.764 212.071 340.375 212.071C339.986 212.071 339.675 212.2 339.442 212.458C339.213 212.712 339.065 213.146 338.998 213.76H341.473ZM344.863 216.07C344.943 216.134 345.093 216.212 345.313 216.305C345.534 216.394 345.787 216.472 346.075 216.54C346.367 216.608 346.655 216.642 346.938 216.642C347.332 216.646 347.62 216.601 347.802 216.508C347.984 216.415 348.075 216.259 348.075 216.039C348.075 215.835 347.948 215.651 347.694 215.486C347.444 215.321 347.049 215.15 346.507 214.972C345.864 214.761 345.398 214.473 345.11 214.109C344.827 213.745 344.685 213.296 344.685 212.763C344.685 212.315 344.808 211.934 345.053 211.621C345.303 211.303 345.648 211.064 346.088 210.903C346.528 210.743 347.034 210.662 347.605 210.662C348.066 210.662 348.479 210.707 348.843 210.795C349.207 210.884 349.473 210.977 349.643 211.075L349.427 212.598C349.283 212.467 349.05 212.353 348.729 212.255C348.411 212.158 348.102 212.109 347.802 212.109C347.37 212.109 347.057 212.156 346.862 212.249C346.672 212.338 346.577 212.486 346.577 212.693C346.577 212.841 346.621 212.968 346.71 213.074C346.799 213.176 346.941 213.275 347.135 213.373C347.334 213.466 347.62 213.576 347.992 213.703C348.487 213.872 348.881 214.058 349.173 214.261C349.469 214.46 349.685 214.691 349.82 214.953C349.956 215.211 350.023 215.52 350.023 215.88C350.023 216.612 349.772 217.166 349.268 217.543C348.769 217.915 348.075 218.102 347.186 218.102C346.852 218.102 346.515 218.074 346.177 218.019C345.838 217.964 345.534 217.894 345.263 217.81C344.996 217.721 344.795 217.632 344.66 217.543L344.863 216.07ZM355.603 210.662C356.132 210.662 356.614 210.791 357.05 211.049C357.486 211.303 357.833 211.69 358.091 212.211C358.354 212.727 358.485 213.362 358.485 214.115C358.485 214.907 358.33 215.605 358.021 216.21C357.717 216.811 357.285 217.276 356.727 217.606C356.172 217.937 355.531 218.102 354.803 218.102C354.372 218.102 353.972 218.034 353.604 217.898L353.629 218.882V221.212H351.648V210.764H353.496V211.5C353.728 211.267 354.01 211.07 354.34 210.91C354.67 210.745 355.091 210.662 355.603 210.662ZM356.409 214.223C356.409 213.457 356.289 212.92 356.047 212.611C355.806 212.298 355.455 212.141 354.994 212.141C354.731 212.141 354.477 212.183 354.232 212.268C353.991 212.353 353.79 212.461 353.629 212.592V216.419C353.752 216.529 353.906 216.606 354.092 216.648C354.283 216.69 354.501 216.711 354.746 216.711C355.068 216.711 355.353 216.614 355.603 216.419C355.853 216.225 356.049 215.939 356.193 215.562C356.337 215.186 356.409 214.739 356.409 214.223ZM359.697 214.312C359.697 213.538 359.85 212.877 360.154 212.332C360.459 211.781 360.882 211.367 361.424 211.087C361.965 210.804 362.588 210.662 363.29 210.662C364.09 210.662 364.748 210.831 365.264 211.17C365.78 211.504 366.155 211.955 366.388 212.522C366.625 213.085 366.743 213.722 366.743 214.433C366.743 215.211 366.591 215.876 366.286 216.426C365.981 216.976 365.558 217.393 365.017 217.676C364.475 217.96 363.855 218.102 363.157 218.102C362.353 218.102 361.693 217.932 361.176 217.594C360.66 217.255 360.283 216.802 360.046 216.235C359.814 215.664 359.697 215.023 359.697 214.312ZM364.693 214.439C364.693 213.762 364.572 213.199 364.331 212.75C364.09 212.298 363.724 212.071 363.233 212.071C362.243 212.071 361.748 212.808 361.748 214.28C361.748 214.725 361.798 215.131 361.9 215.499C362.006 215.863 362.169 216.155 362.389 216.375C362.613 216.595 362.892 216.705 363.227 216.705C364.204 216.705 364.693 215.95 364.693 214.439ZM370.253 210.764L370.292 211.538C370.583 211.318 370.947 211.117 371.383 210.935C371.819 210.753 372.24 210.656 372.646 210.643C373.167 210.626 373.592 210.709 373.922 210.891C374.252 211.068 374.498 211.367 374.659 211.786C374.824 212.2 374.906 212.759 374.906 213.461V218H372.926V213.887C372.926 213.476 372.894 213.159 372.831 212.935C372.767 212.706 372.659 212.543 372.507 212.446C372.354 212.348 372.139 212.304 371.859 212.312C371.648 212.317 371.409 212.365 371.142 212.458C370.875 212.552 370.641 212.687 370.438 212.865V218H368.457V210.764H370.253ZM376.868 216.07C376.948 216.134 377.098 216.212 377.318 216.305C377.538 216.394 377.792 216.472 378.08 216.54C378.372 216.608 378.66 216.642 378.943 216.642C379.337 216.646 379.625 216.601 379.807 216.508C379.989 216.415 380.08 216.259 380.08 216.039C380.08 215.835 379.953 215.651 379.699 215.486C379.449 215.321 379.053 215.15 378.512 214.972C377.868 214.761 377.403 214.473 377.115 214.109C376.832 213.745 376.69 213.296 376.69 212.763C376.69 212.315 376.813 211.934 377.058 211.621C377.308 211.303 377.653 211.064 378.093 210.903C378.533 210.743 379.039 210.662 379.61 210.662C380.071 210.662 380.484 210.707 380.848 210.795C381.212 210.884 381.478 210.977 381.647 211.075L381.432 212.598C381.288 212.467 381.055 212.353 380.733 212.255C380.416 212.158 380.107 212.109 379.807 212.109C379.375 212.109 379.062 212.156 378.867 212.249C378.677 212.338 378.582 212.486 378.582 212.693C378.582 212.841 378.626 212.968 378.715 213.074C378.804 213.176 378.945 213.275 379.14 213.373C379.339 213.466 379.625 213.576 379.997 213.703C380.492 213.872 380.886 214.058 381.178 214.261C381.474 214.46 381.69 214.691 381.825 214.953C381.961 215.211 382.028 215.52 382.028 215.88C382.028 216.612 381.777 217.166 381.273 217.543C380.774 217.915 380.08 218.102 379.191 218.102C378.857 218.102 378.52 218.074 378.182 218.019C377.843 217.964 377.538 217.894 377.268 217.81C377.001 217.721 376.8 217.632 376.665 217.543L376.868 216.07ZM385.672 210.764V218H383.691V210.764H385.672ZM383.45 208.625C383.45 208.413 383.509 208.216 383.628 208.034C383.746 207.852 383.903 207.708 384.098 207.603C384.292 207.493 384.498 207.438 384.713 207.438C385.06 207.438 385.338 207.539 385.545 207.742C385.752 207.941 385.856 208.199 385.856 208.517C385.856 208.728 385.797 208.927 385.678 209.113C385.564 209.295 385.41 209.441 385.215 209.551C385.024 209.657 384.819 209.71 384.599 209.71C384.383 209.71 384.189 209.663 384.015 209.57C383.842 209.477 383.704 209.348 383.603 209.183C383.501 209.018 383.45 208.832 383.45 208.625ZM394.229 210.764L391.467 218.102H389.633L386.884 210.764H389.023L390.128 214.318L390.591 216.083L391.029 214.318L392.134 210.764H394.229ZM401.281 213.5C401.281 214.109 401.257 214.562 401.211 214.858H396.933C396.971 215.455 397.157 215.899 397.491 216.191C397.83 216.483 398.287 216.629 398.862 216.629C399.137 216.629 399.47 216.593 399.859 216.521C400.252 216.445 400.54 216.356 400.722 216.254L401.046 217.378C400.796 217.581 400.422 217.752 399.922 217.892C399.423 218.032 398.903 218.102 398.361 218.102C397.633 218.102 397.013 217.953 396.501 217.657C395.989 217.361 395.602 216.934 395.339 216.375C395.077 215.812 394.946 215.139 394.946 214.356C394.946 213.646 395.083 213.011 395.358 212.452C395.633 211.894 396.033 211.456 396.558 211.138C397.087 210.821 397.715 210.662 398.443 210.662C398.968 210.662 399.442 210.757 399.865 210.948C400.288 211.138 400.627 211.445 400.881 211.868C401.139 212.291 401.272 212.835 401.281 213.5ZM399.44 213.76C399.444 213.696 399.446 213.603 399.446 213.48C399.446 213.019 399.36 212.67 399.186 212.433C399.013 212.192 398.731 212.071 398.342 212.071C397.952 212.071 397.641 212.2 397.409 212.458C397.18 212.712 397.032 213.146 396.964 213.76H399.44ZM418.642 208.339L416.115 218.102H414.046L412.688 212.706L412.376 210.624L412.091 212.712L410.701 218.102H408.771L406.181 208.339H408.206L409.399 214.014L409.736 216.362L410.123 214.014L411.52 208.339H413.322L414.808 214.014L415.201 216.261L415.525 214.014L416.623 208.339H418.642ZM425.618 213.5C425.618 214.109 425.594 214.562 425.548 214.858H421.27C421.308 215.455 421.494 215.899 421.828 216.191C422.167 216.483 422.624 216.629 423.199 216.629C423.474 216.629 423.806 216.593 424.196 216.521C424.589 216.445 424.877 216.356 425.059 216.254L425.383 217.378C425.133 217.581 424.759 217.752 424.259 217.892C423.76 218.032 423.239 218.102 422.698 218.102C421.97 218.102 421.35 217.953 420.838 217.657C420.326 217.361 419.939 216.934 419.676 216.375C419.414 215.812 419.283 215.139 419.283 214.356C419.283 213.646 419.42 213.011 419.695 212.452C419.97 211.894 420.37 211.456 420.895 211.138C421.424 210.821 422.052 210.662 422.78 210.662C423.305 210.662 423.779 210.757 424.202 210.948C424.625 211.138 424.964 211.445 425.218 211.868C425.476 212.291 425.609 212.835 425.618 213.5ZM423.777 213.76C423.781 213.696 423.783 213.603 423.783 213.48C423.783 213.019 423.696 212.67 423.523 212.433C423.349 212.192 423.068 212.071 422.679 212.071C422.289 212.071 421.978 212.2 421.746 212.458C421.517 212.712 421.369 213.146 421.301 213.76H423.777ZM431.254 210.662C431.783 210.662 432.266 210.791 432.702 211.049C433.138 211.303 433.485 211.69 433.743 212.211C434.005 212.727 434.136 213.362 434.136 214.115C434.136 214.907 433.978 215.609 433.66 216.223C433.343 216.832 432.896 217.306 432.321 217.645C431.75 217.979 431.094 218.146 430.353 218.146C429.947 218.146 429.521 218.112 429.077 218.044C428.637 217.981 428.25 217.905 427.916 217.816C427.581 217.727 427.376 217.653 427.3 217.594V207.457H429.28V210.23L429.229 211.424C429.458 211.208 429.733 211.028 430.055 210.884C430.376 210.736 430.776 210.662 431.254 210.662ZM432.061 214.223C432.061 213.457 431.94 212.92 431.699 212.611C431.458 212.298 431.106 212.141 430.645 212.141C430.383 212.141 430.129 212.183 429.883 212.268C429.642 212.353 429.441 212.461 429.28 212.592V216.527C429.433 216.692 429.805 216.775 430.397 216.775C430.719 216.775 431.005 216.675 431.254 216.477C431.504 216.273 431.701 215.979 431.845 215.594C431.989 215.209 432.061 214.752 432.061 214.223ZM349.389 231.956H345.84L345.199 234H343.028L346.596 224.237H348.64L352.239 234H350.036L349.389 231.956ZM348.925 230.502L347.878 227.189L347.605 226.192L347.326 227.189L346.291 230.502H348.925ZM357.171 226.662C357.7 226.662 358.182 226.791 358.618 227.049C359.054 227.303 359.401 227.69 359.659 228.211C359.922 228.727 360.053 229.362 360.053 230.115C360.053 230.907 359.898 231.605 359.589 232.21C359.285 232.811 358.853 233.276 358.294 233.606C357.74 233.937 357.099 234.102 356.371 234.102C355.939 234.102 355.54 234.034 355.171 233.898L355.197 234.882V237.212H353.216V226.764H355.063V227.5C355.296 227.267 355.578 227.07 355.908 226.91C356.238 226.745 356.659 226.662 357.171 226.662ZM357.977 230.223C357.977 229.457 357.856 228.92 357.615 228.611C357.374 228.298 357.023 228.141 356.562 228.141C356.299 228.141 356.045 228.183 355.8 228.268C355.559 228.353 355.358 228.461 355.197 228.592V232.419C355.319 232.529 355.474 232.606 355.66 232.648C355.851 232.69 356.069 232.711 356.314 232.711C356.636 232.711 356.921 232.614 357.171 232.419C357.421 232.225 357.617 231.939 357.761 231.562C357.905 231.186 357.977 230.739 357.977 230.223ZM365.677 226.662C366.206 226.662 366.688 226.791 367.124 227.049C367.56 227.303 367.907 227.69 368.165 228.211C368.427 228.727 368.559 229.362 368.559 230.115C368.559 230.907 368.404 231.605 368.095 232.21C367.791 232.811 367.359 233.276 366.8 233.606C366.246 233.937 365.605 234.102 364.877 234.102C364.445 234.102 364.045 234.034 363.677 233.898L363.703 234.882V237.212H361.722V226.764H363.569V227.5C363.802 227.267 364.083 227.07 364.414 226.91C364.744 226.745 365.165 226.662 365.677 226.662ZM366.483 230.223C366.483 229.457 366.362 228.92 366.121 228.611C365.88 228.298 365.529 228.141 365.067 228.141C364.805 228.141 364.551 228.183 364.306 228.268C364.064 228.353 363.863 228.461 363.703 228.592V232.419C363.825 232.529 363.98 232.606 364.166 232.648C364.356 232.69 364.574 232.711 364.82 232.711C365.141 232.711 365.427 232.614 365.677 232.419C365.926 232.225 366.123 231.939 366.267 231.562C366.411 231.186 366.483 230.739 366.483 230.223ZM372.285 223.45V234H370.304V223.45H372.285ZM376.512 226.764V234H374.532V226.764H376.512ZM374.291 224.625C374.291 224.413 374.35 224.216 374.468 224.034C374.587 223.852 374.743 223.708 374.938 223.603C375.133 223.493 375.338 223.438 375.554 223.438C375.901 223.438 376.178 223.539 376.385 223.742C376.593 223.941 376.696 224.199 376.696 224.517C376.696 224.728 376.637 224.927 376.519 225.113C376.404 225.295 376.25 225.441 376.055 225.551C375.865 225.657 375.66 225.71 375.439 225.71C375.224 225.71 375.029 225.663 374.855 225.57C374.682 225.477 374.544 225.348 374.443 225.183C374.341 225.018 374.291 224.832 374.291 224.625ZM381.832 226.662C382.259 226.662 382.646 226.7 382.993 226.776C383.34 226.848 383.579 226.933 383.71 227.03L383.463 228.56C383.281 228.463 383.078 228.393 382.854 228.351C382.633 228.304 382.361 228.281 382.035 228.281C381.73 228.281 381.44 228.346 381.165 228.478C380.89 228.604 380.661 228.814 380.479 229.106C380.298 229.394 380.2 229.766 380.188 230.223C380.175 230.727 380.243 231.15 380.391 231.493C380.539 231.835 380.748 232.091 381.019 232.261C381.294 232.426 381.607 232.508 381.958 232.508C382.276 232.508 382.578 232.481 382.866 232.426C383.158 232.367 383.38 232.295 383.533 232.21L383.818 233.384C383.594 233.6 383.281 233.774 382.879 233.905C382.477 234.036 382.049 234.102 381.597 234.102C380.869 234.102 380.251 233.947 379.743 233.638C379.235 233.325 378.854 232.896 378.601 232.35C378.347 231.799 378.22 231.173 378.22 230.471C378.22 229.743 378.353 229.091 378.62 228.516C378.886 227.94 379.29 227.487 379.832 227.157C380.374 226.827 381.04 226.662 381.832 226.662ZM388.122 226.624C388.825 226.624 389.385 226.702 389.804 226.859C390.227 227.011 390.543 227.28 390.75 227.665C390.957 228.046 391.061 228.581 391.061 229.271V234.102H389.906C389.715 234.102 389.571 234.089 389.474 234.063C389.377 234.038 389.301 233.979 389.246 233.886C389.191 233.793 389.163 233.645 389.163 233.441V233.391C388.943 233.594 388.672 233.763 388.351 233.898C388.029 234.034 387.671 234.102 387.278 234.102C386.812 234.102 386.4 234.002 386.04 233.803C385.685 233.6 385.407 233.321 385.208 232.965C385.014 232.606 384.917 232.199 384.917 231.747C384.917 231.323 385.024 230.962 385.24 230.661C385.46 230.361 385.773 230.119 386.18 229.938C386.81 229.658 387.777 229.519 389.081 229.519V229.062C389.081 228.791 389.045 228.592 388.973 228.465C388.905 228.338 388.772 228.251 388.573 228.205C388.378 228.158 388.069 228.135 387.646 228.135C387.443 228.135 387.134 228.188 386.719 228.293C386.305 228.395 385.949 228.514 385.653 228.649L385.215 227.379C385.384 227.278 385.63 227.168 385.951 227.049C386.273 226.931 386.626 226.831 387.011 226.751C387.396 226.666 387.767 226.624 388.122 226.624ZM387.957 232.762C388.169 232.762 388.391 232.72 388.624 232.635C388.856 232.546 389.009 232.455 389.081 232.362V230.636C388.839 230.636 388.566 230.663 388.262 230.718C387.961 230.769 387.737 230.828 387.589 230.896C387.398 230.968 387.246 231.065 387.132 231.188C387.018 231.311 386.96 231.493 386.96 231.734C386.96 232.072 387.051 232.328 387.233 232.502C387.42 232.675 387.661 232.762 387.957 232.762ZM393.378 228.135H392.508V227.062C392.788 226.982 392.989 226.92 393.111 226.878C393.238 226.831 393.35 226.77 393.448 226.694C393.545 226.613 393.621 226.508 393.676 226.376C393.765 226.165 393.924 225.744 394.152 225.113H395.358V226.764H397.32V228.135H395.358V231.042C395.358 231.524 395.384 231.876 395.435 232.096C395.485 232.316 395.566 232.458 395.676 232.521C395.786 232.58 395.955 232.61 396.184 232.61C396.361 232.61 396.564 232.58 396.793 232.521C397.026 232.458 397.197 232.386 397.307 232.305L397.548 233.416C397.349 233.594 397.051 233.752 396.653 233.892C396.26 234.032 395.834 234.102 395.377 234.102C394.891 234.102 394.501 234.028 394.209 233.879C393.922 233.727 393.71 233.488 393.575 233.162C393.444 232.832 393.378 232.394 393.378 231.848V228.135ZM400.925 226.764V234H398.945V226.764H400.925ZM398.704 224.625C398.704 224.413 398.763 224.216 398.881 224.034C399 223.852 399.156 223.708 399.351 223.603C399.546 223.493 399.751 223.438 399.967 223.438C400.314 223.438 400.591 223.539 400.798 223.742C401.006 223.941 401.109 224.199 401.109 224.517C401.109 224.728 401.05 224.927 400.932 225.113C400.817 225.295 400.663 225.441 400.468 225.551C400.278 225.657 400.073 225.71 399.853 225.71C399.637 225.71 399.442 225.663 399.269 225.57C399.095 225.477 398.958 225.348 398.856 225.183C398.754 225.018 398.704 224.832 398.704 224.625ZM402.639 230.312C402.639 229.538 402.792 228.877 403.096 228.332C403.401 227.781 403.824 227.367 404.366 227.087C404.907 226.804 405.529 226.662 406.232 226.662C407.032 226.662 407.69 226.831 408.206 227.17C408.722 227.504 409.097 227.955 409.33 228.522C409.567 229.085 409.685 229.722 409.685 230.433C409.685 231.211 409.533 231.876 409.228 232.426C408.923 232.976 408.5 233.393 407.958 233.676C407.417 233.96 406.797 234.102 406.099 234.102C405.295 234.102 404.634 233.932 404.118 233.594C403.602 233.255 403.225 232.802 402.988 232.235C402.756 231.664 402.639 231.023 402.639 230.312ZM407.635 230.439C407.635 229.762 407.514 229.199 407.273 228.75C407.032 228.298 406.666 228.071 406.175 228.071C405.185 228.071 404.689 228.808 404.689 230.28C404.689 230.725 404.74 231.131 404.842 231.499C404.948 231.863 405.111 232.155 405.331 232.375C405.555 232.595 405.834 232.705 406.168 232.705C407.146 232.705 407.635 231.95 407.635 230.439ZM413.195 226.764L413.233 227.538C413.525 227.318 413.889 227.117 414.325 226.935C414.761 226.753 415.182 226.656 415.588 226.643C416.109 226.626 416.534 226.709 416.864 226.891C417.194 227.068 417.44 227.367 417.601 227.786C417.766 228.2 417.848 228.759 417.848 229.461V234H415.868V229.887C415.868 229.476 415.836 229.159 415.772 228.935C415.709 228.706 415.601 228.543 415.449 228.446C415.296 228.348 415.081 228.304 414.801 228.312C414.59 228.317 414.351 228.365 414.084 228.458C413.817 228.552 413.583 228.687 413.379 228.865V234H411.399V226.764H413.195Z" fill="black"/>
<path d="M262.822 275H260.575C260.532 274.941 260.49 274.871 260.448 274.791C260.405 274.706 260.359 274.606 260.308 274.492L260.219 274.302C260.147 274.149 260.08 273.991 260.016 273.826C259.957 273.656 259.881 273.432 259.788 273.153C259.656 272.751 259.54 272.429 259.438 272.188C259.341 271.943 259.218 271.737 259.07 271.572C258.922 271.407 258.747 271.325 258.543 271.325C258.112 271.342 257.687 271.35 257.268 271.35V275H255.249V265.339H256.182C256.398 265.339 256.646 265.326 256.925 265.301C257.158 265.284 257.428 265.269 257.737 265.256C258.046 265.244 258.383 265.237 258.747 265.237C259.775 265.237 260.611 265.462 261.254 265.91C261.901 266.354 262.225 267.104 262.225 268.157C262.225 268.915 262.088 269.52 261.812 269.973C261.542 270.425 261.144 270.756 260.619 270.963C260.843 271.153 261.038 271.403 261.203 271.712C261.372 272.021 261.571 272.442 261.8 272.975C262.045 273.568 262.253 274.01 262.422 274.302L262.822 275ZM257.268 269.896C257.479 269.922 257.921 269.935 258.594 269.935C259.166 269.935 259.587 269.772 259.857 269.446C260.128 269.12 260.264 268.709 260.264 268.214C260.264 267.927 260.217 267.677 260.124 267.465C260.035 267.25 259.862 267.076 259.604 266.945C259.345 266.809 258.979 266.742 258.505 266.742C258.002 266.742 257.589 266.78 257.268 266.856V269.896ZM270.109 270.5C270.109 271.109 270.086 271.562 270.039 271.858H265.761C265.799 272.455 265.985 272.899 266.319 273.191C266.658 273.483 267.115 273.629 267.69 273.629C267.965 273.629 268.298 273.593 268.687 273.521C269.081 273.445 269.368 273.356 269.55 273.254L269.874 274.378C269.624 274.581 269.25 274.752 268.75 274.892C268.251 275.032 267.731 275.102 267.189 275.102C266.461 275.102 265.841 274.953 265.329 274.657C264.817 274.361 264.43 273.934 264.167 273.375C263.905 272.812 263.774 272.139 263.774 271.356C263.774 270.646 263.911 270.011 264.187 269.452C264.462 268.894 264.861 268.456 265.386 268.138C265.915 267.821 266.544 267.662 267.271 267.662C267.796 267.662 268.27 267.757 268.693 267.948C269.117 268.138 269.455 268.445 269.709 268.868C269.967 269.291 270.1 269.835 270.109 270.5ZM268.268 270.76C268.272 270.696 268.274 270.603 268.274 270.48C268.274 270.019 268.188 269.67 268.014 269.433C267.841 269.192 267.559 269.071 267.17 269.071C266.781 269.071 266.47 269.2 266.237 269.458C266.008 269.712 265.86 270.146 265.792 270.76H268.268ZM271.658 273.07C271.738 273.134 271.888 273.212 272.108 273.305C272.328 273.394 272.582 273.472 272.87 273.54C273.162 273.608 273.45 273.642 273.733 273.642C274.127 273.646 274.415 273.601 274.597 273.508C274.779 273.415 274.87 273.259 274.87 273.039C274.87 272.835 274.743 272.651 274.489 272.486C274.239 272.321 273.843 272.15 273.302 271.972C272.659 271.761 272.193 271.473 271.905 271.109C271.622 270.745 271.48 270.296 271.48 269.763C271.48 269.315 271.603 268.934 271.848 268.621C272.098 268.303 272.443 268.064 272.883 267.903C273.323 267.743 273.829 267.662 274.4 267.662C274.861 267.662 275.274 267.707 275.638 267.795C276.002 267.884 276.268 267.977 276.438 268.075L276.222 269.598C276.078 269.467 275.845 269.353 275.523 269.255C275.206 269.158 274.897 269.109 274.597 269.109C274.165 269.109 273.852 269.156 273.657 269.249C273.467 269.338 273.372 269.486 273.372 269.693C273.372 269.841 273.416 269.968 273.505 270.074C273.594 270.176 273.736 270.275 273.93 270.373C274.129 270.466 274.415 270.576 274.787 270.703C275.282 270.872 275.676 271.058 275.968 271.261C276.264 271.46 276.48 271.691 276.615 271.953C276.751 272.211 276.818 272.52 276.818 272.88C276.818 273.612 276.567 274.166 276.063 274.543C275.564 274.915 274.87 275.102 273.981 275.102C273.647 275.102 273.31 275.074 272.972 275.019C272.633 274.964 272.328 274.894 272.058 274.81C271.791 274.721 271.59 274.632 271.455 274.543L271.658 273.07ZM282.398 267.662C282.927 267.662 283.409 267.791 283.845 268.049C284.281 268.303 284.628 268.69 284.886 269.211C285.149 269.727 285.28 270.362 285.28 271.115C285.28 271.907 285.125 272.605 284.816 273.21C284.512 273.811 284.08 274.276 283.521 274.606C282.967 274.937 282.326 275.102 281.598 275.102C281.167 275.102 280.767 275.034 280.398 274.898L280.424 275.882V278.212H278.443V267.764H280.291V268.5C280.523 268.267 280.805 268.07 281.135 267.91C281.465 267.745 281.886 267.662 282.398 267.662ZM283.204 271.223C283.204 270.457 283.083 269.92 282.842 269.611C282.601 269.298 282.25 269.141 281.789 269.141C281.526 269.141 281.272 269.183 281.027 269.268C280.786 269.353 280.585 269.461 280.424 269.592V273.419C280.547 273.529 280.701 273.606 280.887 273.648C281.078 273.69 281.296 273.711 281.541 273.711C281.863 273.711 282.148 273.614 282.398 273.419C282.648 273.225 282.844 272.939 282.988 272.562C283.132 272.186 283.204 271.739 283.204 271.223ZM286.492 271.312C286.492 270.538 286.645 269.877 286.949 269.332C287.254 268.781 287.677 268.367 288.219 268.087C288.76 267.804 289.382 267.662 290.085 267.662C290.885 267.662 291.543 267.831 292.059 268.17C292.575 268.504 292.95 268.955 293.183 269.522C293.42 270.085 293.538 270.722 293.538 271.433C293.538 272.211 293.386 272.876 293.081 273.426C292.776 273.976 292.353 274.393 291.812 274.676C291.27 274.96 290.65 275.102 289.952 275.102C289.148 275.102 288.487 274.932 287.971 274.594C287.455 274.255 287.078 273.802 286.841 273.235C286.609 272.664 286.492 272.023 286.492 271.312ZM291.488 271.439C291.488 270.762 291.367 270.199 291.126 269.75C290.885 269.298 290.519 269.071 290.028 269.071C289.038 269.071 288.542 269.808 288.542 271.28C288.542 271.725 288.593 272.131 288.695 272.499C288.801 272.863 288.964 273.155 289.184 273.375C289.408 273.595 289.687 273.705 290.021 273.705C290.999 273.705 291.488 272.95 291.488 271.439ZM297.048 267.764L297.086 268.538C297.378 268.318 297.742 268.117 298.178 267.935C298.614 267.753 299.035 267.656 299.441 267.643C299.962 267.626 300.387 267.709 300.717 267.891C301.047 268.068 301.293 268.367 301.454 268.786C301.619 269.2 301.701 269.759 301.701 270.461V275H299.721V270.887C299.721 270.476 299.689 270.159 299.625 269.935C299.562 269.706 299.454 269.543 299.302 269.446C299.149 269.348 298.934 269.304 298.654 269.312C298.443 269.317 298.204 269.365 297.937 269.458C297.67 269.552 297.436 269.687 297.232 269.865V275H295.252V267.764H297.048ZM303.663 273.07C303.743 273.134 303.893 273.212 304.113 273.305C304.333 273.394 304.587 273.472 304.875 273.54C305.167 273.608 305.455 273.642 305.738 273.642C306.132 273.646 306.42 273.601 306.602 273.508C306.784 273.415 306.875 273.259 306.875 273.039C306.875 272.835 306.748 272.651 306.494 272.486C306.244 272.321 305.848 272.15 305.307 271.972C304.663 271.761 304.198 271.473 303.91 271.109C303.627 270.745 303.485 270.296 303.485 269.763C303.485 269.315 303.608 268.934 303.853 268.621C304.103 268.303 304.448 268.064 304.888 267.903C305.328 267.743 305.833 267.662 306.405 267.662C306.866 267.662 307.279 267.707 307.643 267.795C308.007 267.884 308.273 267.977 308.442 268.075L308.227 269.598C308.083 269.467 307.85 269.353 307.528 269.255C307.211 269.158 306.902 269.109 306.602 269.109C306.17 269.109 305.857 269.156 305.662 269.249C305.472 269.338 305.376 269.486 305.376 269.693C305.376 269.841 305.421 269.968 305.51 270.074C305.599 270.176 305.74 270.275 305.935 270.373C306.134 270.466 306.42 270.576 306.792 270.703C307.287 270.872 307.681 271.058 307.973 271.261C308.269 271.46 308.485 271.691 308.62 271.953C308.756 272.211 308.823 272.52 308.823 272.88C308.823 273.612 308.571 274.166 308.068 274.543C307.569 274.915 306.875 275.102 305.986 275.102C305.652 275.102 305.315 275.074 304.977 275.019C304.638 274.964 304.333 274.894 304.062 274.81C303.796 274.721 303.595 274.632 303.459 274.543L303.663 273.07ZM312.467 267.764V275H310.486V267.764H312.467ZM310.245 265.625C310.245 265.413 310.304 265.216 310.423 265.034C310.541 264.852 310.698 264.708 310.893 264.603C311.087 264.493 311.292 264.438 311.508 264.438C311.855 264.438 312.132 264.539 312.34 264.742C312.547 264.941 312.651 265.199 312.651 265.517C312.651 265.728 312.592 265.927 312.473 266.113C312.359 266.295 312.204 266.441 312.01 266.551C311.819 266.657 311.614 266.71 311.394 266.71C311.178 266.71 310.984 266.663 310.81 266.57C310.637 266.477 310.499 266.348 310.397 266.183C310.296 266.018 310.245 265.832 310.245 265.625ZM321.023 267.764L318.262 275.102H316.428L313.679 267.764H315.818L316.923 271.318L317.386 273.083L317.824 271.318L318.929 267.764H321.023ZM328.076 270.5C328.076 271.109 328.052 271.562 328.006 271.858H323.728C323.766 272.455 323.952 272.899 324.286 273.191C324.625 273.483 325.082 273.629 325.657 273.629C325.932 273.629 326.264 273.593 326.654 273.521C327.047 273.445 327.335 273.356 327.517 273.254L327.841 274.378C327.591 274.581 327.217 274.752 326.717 274.892C326.218 275.032 325.697 275.102 325.156 275.102C324.428 275.102 323.808 274.953 323.296 274.657C322.784 274.361 322.397 273.934 322.134 273.375C321.872 272.812 321.741 272.139 321.741 271.356C321.741 270.646 321.878 270.011 322.153 269.452C322.428 268.894 322.828 268.456 323.353 268.138C323.882 267.821 324.51 267.662 325.238 267.662C325.763 267.662 326.237 267.757 326.66 267.948C327.083 268.138 327.422 268.445 327.676 268.868C327.934 269.291 328.067 269.835 328.076 270.5ZM326.235 270.76C326.239 270.696 326.241 270.603 326.241 270.48C326.241 270.019 326.154 269.67 325.981 269.433C325.807 269.192 325.526 269.071 325.137 269.071C324.747 269.071 324.436 269.2 324.204 269.458C323.975 269.712 323.827 270.146 323.759 270.76H326.235ZM291.697 281.339L289.171 291.102H287.102L285.743 285.706L285.432 283.624L285.146 285.712L283.756 291.102H281.827L279.237 281.339H281.262L282.455 287.014L282.792 289.362L283.179 287.014L284.575 281.339H286.378L287.863 287.014L288.257 289.261L288.581 287.014L289.679 281.339H291.697ZM298.673 286.5C298.673 287.109 298.65 287.562 298.604 287.858H294.325C294.363 288.455 294.549 288.899 294.884 289.191C295.222 289.483 295.679 289.629 296.255 289.629C296.53 289.629 296.862 289.593 297.251 289.521C297.645 289.445 297.933 289.356 298.115 289.254L298.438 290.378C298.189 290.581 297.814 290.752 297.315 290.892C296.816 291.032 296.295 291.102 295.753 291.102C295.026 291.102 294.406 290.953 293.894 290.657C293.382 290.361 292.994 289.934 292.732 289.375C292.47 288.812 292.338 288.139 292.338 287.356C292.338 286.646 292.476 286.011 292.751 285.452C293.026 284.894 293.426 284.456 293.951 284.138C294.48 283.821 295.108 283.662 295.836 283.662C296.361 283.662 296.835 283.757 297.258 283.948C297.681 284.138 298.02 284.445 298.273 284.868C298.532 285.291 298.665 285.835 298.673 286.5ZM296.833 286.76C296.837 286.696 296.839 286.603 296.839 286.48C296.839 286.019 296.752 285.67 296.579 285.433C296.405 285.192 296.124 285.071 295.734 285.071C295.345 285.071 295.034 285.2 294.801 285.458C294.573 285.712 294.425 286.146 294.357 286.76H296.833ZM304.31 283.662C304.839 283.662 305.321 283.791 305.757 284.049C306.193 284.303 306.54 284.69 306.798 285.211C307.061 285.727 307.192 286.362 307.192 287.115C307.192 287.907 307.033 288.609 306.716 289.223C306.398 289.832 305.952 290.306 305.376 290.645C304.805 290.979 304.149 291.146 303.409 291.146C303.002 291.146 302.577 291.112 302.133 291.044C301.693 290.981 301.306 290.905 300.971 290.816C300.637 290.727 300.432 290.653 300.355 290.594V280.457H302.336V283.23L302.285 284.424C302.514 284.208 302.789 284.028 303.11 283.884C303.432 283.736 303.832 283.662 304.31 283.662ZM305.116 287.223C305.116 286.457 304.996 285.92 304.754 285.611C304.513 285.298 304.162 285.141 303.701 285.141C303.438 285.141 303.184 285.183 302.939 285.268C302.698 285.353 302.497 285.461 302.336 285.592V289.527C302.488 289.692 302.861 289.775 303.453 289.775C303.775 289.775 304.06 289.675 304.31 289.477C304.56 289.273 304.757 288.979 304.9 288.594C305.044 288.209 305.116 287.752 305.116 287.223ZM261.889 304.956H258.34L257.699 307H255.528L259.096 297.237H261.14L264.739 307H262.536L261.889 304.956ZM261.425 303.502L260.378 300.189L260.105 299.192L259.826 300.189L258.791 303.502H261.425ZM269.671 299.662C270.2 299.662 270.682 299.791 271.118 300.049C271.554 300.303 271.901 300.69 272.159 301.211C272.422 301.727 272.553 302.362 272.553 303.115C272.553 303.907 272.398 304.605 272.089 305.21C271.785 305.811 271.353 306.276 270.794 306.606C270.24 306.937 269.599 307.102 268.871 307.102C268.439 307.102 268.04 307.034 267.671 306.898L267.697 307.882V310.212H265.716V299.764H267.563V300.5C267.796 300.267 268.078 300.07 268.408 299.91C268.738 299.745 269.159 299.662 269.671 299.662ZM270.477 303.223C270.477 302.457 270.356 301.92 270.115 301.611C269.874 301.298 269.523 301.141 269.062 301.141C268.799 301.141 268.545 301.183 268.3 301.268C268.059 301.353 267.858 301.461 267.697 301.592V305.419C267.819 305.529 267.974 305.606 268.16 305.648C268.351 305.69 268.569 305.711 268.814 305.711C269.136 305.711 269.421 305.614 269.671 305.419C269.921 305.225 270.117 304.939 270.261 304.562C270.405 304.186 270.477 303.739 270.477 303.223ZM278.177 299.662C278.706 299.662 279.188 299.791 279.624 300.049C280.06 300.303 280.407 300.69 280.665 301.211C280.927 301.727 281.059 302.362 281.059 303.115C281.059 303.907 280.904 304.605 280.595 305.21C280.291 305.811 279.859 306.276 279.3 306.606C278.746 306.937 278.105 307.102 277.377 307.102C276.945 307.102 276.545 307.034 276.177 306.898L276.203 307.882V310.212H274.222V299.764H276.069V300.5C276.302 300.267 276.583 300.07 276.914 299.91C277.244 299.745 277.665 299.662 278.177 299.662ZM278.983 303.223C278.983 302.457 278.862 301.92 278.621 301.611C278.38 301.298 278.029 301.141 277.567 301.141C277.305 301.141 277.051 301.183 276.806 301.268C276.564 301.353 276.363 301.461 276.203 301.592V305.419C276.325 305.529 276.48 305.606 276.666 305.648C276.856 305.69 277.074 305.711 277.32 305.711C277.641 305.711 277.927 305.614 278.177 305.419C278.426 305.225 278.623 304.939 278.767 304.562C278.911 304.186 278.983 303.739 278.983 303.223ZM284.785 296.45V307H282.804V296.45H284.785ZM289.012 299.764V307H287.032V299.764H289.012ZM286.791 297.625C286.791 297.413 286.85 297.216 286.968 297.034C287.087 296.852 287.243 296.708 287.438 296.603C287.633 296.493 287.838 296.438 288.054 296.438C288.401 296.438 288.678 296.539 288.885 296.742C289.093 296.941 289.196 297.199 289.196 297.517C289.196 297.728 289.137 297.927 289.019 298.113C288.904 298.295 288.75 298.441 288.555 298.551C288.365 298.657 288.16 298.71 287.939 298.71C287.724 298.71 287.529 298.663 287.355 298.57C287.182 298.477 287.044 298.348 286.943 298.183C286.841 298.018 286.791 297.832 286.791 297.625ZM294.332 299.662C294.759 299.662 295.146 299.7 295.493 299.776C295.84 299.848 296.079 299.933 296.21 300.03L295.963 301.56C295.781 301.463 295.578 301.393 295.354 301.351C295.133 301.304 294.861 301.281 294.535 301.281C294.23 301.281 293.94 301.346 293.665 301.478C293.39 301.604 293.161 301.814 292.979 302.106C292.798 302.394 292.7 302.766 292.688 303.223C292.675 303.727 292.743 304.15 292.891 304.493C293.039 304.835 293.248 305.091 293.519 305.261C293.794 305.426 294.107 305.508 294.458 305.508C294.776 305.508 295.078 305.481 295.366 305.426C295.658 305.367 295.88 305.295 296.033 305.21L296.318 306.384C296.094 306.6 295.781 306.774 295.379 306.905C294.977 307.036 294.549 307.102 294.097 307.102C293.369 307.102 292.751 306.947 292.243 306.638C291.735 306.325 291.354 305.896 291.101 305.35C290.847 304.799 290.72 304.173 290.72 303.471C290.72 302.743 290.853 302.091 291.12 301.516C291.386 300.94 291.79 300.487 292.332 300.157C292.874 299.827 293.54 299.662 294.332 299.662ZM300.622 299.624C301.325 299.624 301.885 299.702 302.304 299.859C302.727 300.011 303.043 300.28 303.25 300.665C303.457 301.046 303.561 301.581 303.561 302.271V307.102H302.406C302.215 307.102 302.071 307.089 301.974 307.063C301.877 307.038 301.801 306.979 301.746 306.886C301.691 306.793 301.663 306.645 301.663 306.441V306.391C301.443 306.594 301.172 306.763 300.851 306.898C300.529 307.034 300.171 307.102 299.778 307.102C299.312 307.102 298.9 307.002 298.54 306.803C298.185 306.6 297.907 306.321 297.708 305.965C297.514 305.606 297.417 305.199 297.417 304.747C297.417 304.323 297.524 303.962 297.74 303.661C297.96 303.361 298.273 303.119 298.68 302.938C299.31 302.658 300.277 302.519 301.581 302.519V302.062C301.581 301.791 301.545 301.592 301.473 301.465C301.405 301.338 301.272 301.251 301.073 301.205C300.878 301.158 300.569 301.135 300.146 301.135C299.943 301.135 299.634 301.188 299.219 301.293C298.805 301.395 298.449 301.514 298.153 301.649L297.715 300.379C297.884 300.278 298.13 300.168 298.451 300.049C298.773 299.931 299.126 299.831 299.511 299.751C299.896 299.666 300.267 299.624 300.622 299.624ZM300.457 305.762C300.669 305.762 300.891 305.72 301.124 305.635C301.356 305.546 301.509 305.455 301.581 305.362V303.636C301.339 303.636 301.066 303.663 300.762 303.718C300.461 303.769 300.237 303.828 300.089 303.896C299.898 303.968 299.746 304.065 299.632 304.188C299.518 304.311 299.46 304.493 299.46 304.734C299.46 305.072 299.551 305.328 299.733 305.502C299.92 305.675 300.161 305.762 300.457 305.762ZM305.878 301.135H305.008V300.062C305.288 299.982 305.489 299.92 305.611 299.878C305.738 299.831 305.85 299.77 305.948 299.694C306.045 299.613 306.121 299.508 306.176 299.376C306.265 299.165 306.424 298.744 306.652 298.113H307.858V299.764H309.82V301.135H307.858V304.042C307.858 304.524 307.884 304.876 307.935 305.096C307.985 305.316 308.066 305.458 308.176 305.521C308.286 305.58 308.455 305.61 308.684 305.61C308.861 305.61 309.064 305.58 309.293 305.521C309.526 305.458 309.697 305.386 309.807 305.305L310.048 306.416C309.849 306.594 309.551 306.752 309.153 306.892C308.76 307.032 308.334 307.102 307.877 307.102C307.391 307.102 307.001 307.028 306.709 306.879C306.422 306.727 306.21 306.488 306.075 306.162C305.944 305.832 305.878 305.394 305.878 304.848V301.135ZM313.425 299.764V307H311.445V299.764H313.425ZM311.204 297.625C311.204 297.413 311.263 297.216 311.381 297.034C311.5 296.852 311.656 296.708 311.851 296.603C312.046 296.493 312.251 296.438 312.467 296.438C312.814 296.438 313.091 296.539 313.298 296.742C313.506 296.941 313.609 297.199 313.609 297.517C313.609 297.728 313.55 297.927 313.432 298.113C313.317 298.295 313.163 298.441 312.968 298.551C312.778 298.657 312.573 298.71 312.353 298.71C312.137 298.71 311.942 298.663 311.769 298.57C311.595 298.477 311.458 298.348 311.356 298.183C311.254 298.018 311.204 297.832 311.204 297.625ZM315.139 303.312C315.139 302.538 315.292 301.877 315.596 301.332C315.901 300.781 316.324 300.367 316.866 300.087C317.407 299.804 318.029 299.662 318.732 299.662C319.532 299.662 320.19 299.831 320.706 300.17C321.222 300.504 321.597 300.955 321.83 301.522C322.067 302.085 322.185 302.722 322.185 303.433C322.185 304.211 322.033 304.876 321.728 305.426C321.423 305.976 321 306.393 320.458 306.676C319.917 306.96 319.297 307.102 318.599 307.102C317.795 307.102 317.134 306.932 316.618 306.594C316.102 306.255 315.725 305.802 315.488 305.235C315.256 304.664 315.139 304.023 315.139 303.312ZM320.135 303.439C320.135 302.762 320.014 302.199 319.773 301.75C319.532 301.298 319.166 301.071 318.675 301.071C317.685 301.071 317.189 301.808 317.189 303.28C317.189 303.725 317.24 304.131 317.342 304.499C317.448 304.863 317.611 305.155 317.831 305.375C318.055 305.595 318.334 305.705 318.668 305.705C319.646 305.705 320.135 304.95 320.135 303.439ZM325.695 299.764L325.733 300.538C326.025 300.318 326.389 300.117 326.825 299.935C327.261 299.753 327.682 299.656 328.088 299.643C328.609 299.626 329.034 299.709 329.364 299.891C329.694 300.068 329.94 300.367 330.101 300.786C330.266 301.2 330.348 301.759 330.348 302.461V307H328.368V302.887C328.368 302.476 328.336 302.159 328.272 301.935C328.209 301.706 328.101 301.543 327.949 301.446C327.796 301.348 327.581 301.304 327.301 301.312C327.09 301.317 326.851 301.365 326.584 301.458C326.317 301.552 326.083 301.687 325.879 301.865V307H323.899V299.764H325.695Z" fill="black"/>
</g>
<path d="M722.122 97.04H223.122V99.04H722.122V97.04Z" fill="#3F3D56"/>
<path d="M240.122 90C243.436 90 246.122 87.3137 246.122 84C246.122 80.6863 243.436 78 240.122 78C236.808 78 234.122 80.6863 234.122 84C234.122 87.3137 236.808 90 240.122 90Z" fill="#3F3D56"/>
<path d="M257.372 90C260.686 90 263.372 87.3137 263.372 84C263.372 80.6863 260.686 78 257.372 78C254.058 78 251.372 80.6863 251.372 84C251.372 87.3137 254.058 90 257.372 90Z" fill="#3F3D56"/>
<path d="M274.622 90C277.936 90 280.622 87.3137 280.622 84C280.622 80.6863 277.936 78 274.622 78C271.308 78 268.622 80.6863 268.622 84C268.622 87.3137 271.308 90 274.622 90Z" fill="#3F3D56"/>
<path d="M202.746 492.088L214.466 488.491L206.17 441.573L188.872 446.881L202.746 492.088Z" fill="#A0616A"/>
<path d="M240.41 492.438L203.574 503.742L199.207 489.51L221.81 482.573C223.679 482 225.643 481.8 227.589 481.985C229.535 482.171 231.426 482.737 233.153 483.653C234.88 484.569 236.41 485.817 237.655 487.324C238.9 488.831 239.836 490.569 240.41 492.438Z" fill="#2F2E41"/>
<path d="M102.748 492.358L115.008 492.357L120.84 445.069L102.746 445.07L102.748 492.358Z" fill="#A0616A"/>
<path d="M138.652 503.74L100.121 503.742L100.121 488.855L123.764 488.854C125.719 488.854 127.655 489.239 129.461 489.987C131.268 490.735 132.909 491.832 134.291 493.214C135.674 494.596 136.77 496.237 137.519 498.043C138.267 499.849 138.652 501.785 138.652 503.74L138.652 503.74Z" fill="#2F2E41"/>
<path d="M101.868 355.28C100.861 354.398 100.06 353.304 99.5207 352.078C98.9816 350.852 98.7179 349.523 98.7483 348.183C98.7786 346.844 99.1022 345.528 99.6962 344.328C100.29 343.127 101.14 342.071 102.186 341.235L111.692 221.54L131.023 226.37L115.545 343.129C116.834 344.979 117.399 347.238 117.133 349.478C116.868 351.717 115.79 353.781 114.104 355.279C112.418 356.777 110.242 357.605 107.986 357.605C105.731 357.605 103.554 356.778 101.868 355.28Z" fill="#A0616A"/>
<path d="M140.579 175.116C154.144 175.116 165.14 164.12 165.14 150.555C165.14 136.991 154.144 125.994 140.579 125.994C127.015 125.994 116.018 136.991 116.018 150.555C116.018 164.12 127.015 175.116 140.579 175.116Z" fill="#A0616A"/>
<path d="M119.223 217.859C113.681 210.25 113.51 199.772 119.48 192.495C123.375 187.745 129.892 183.945 140.772 183.945C169.772 183.945 180.772 206.945 180.772 206.945C180.772 206.945 192.772 228.945 185.772 248.945C178.772 268.945 178.772 270.945 178.772 270.945L132.772 266.945C132.772 266.945 140.532 247.113 119.223 217.859Z" fill="#CCCCCC"/>
<path d="M105.037 237.767L114.947 205.346C115.611 203.175 116.743 201.177 118.264 199.492C119.785 197.807 121.658 196.476 123.75 195.594C125.842 194.712 128.102 194.301 130.37 194.388C132.638 194.476 134.86 195.061 136.877 196.101C140.378 197.914 143.058 200.99 144.374 204.706C145.69 208.422 145.544 212.499 143.965 216.111L131.367 244.802L105.037 237.767Z" fill="#CCCCCC"/>
<path d="M177.772 265.945L216.772 467.945L195.772 473.945L144.772 340.945L121.772 476.945L99.7721 479.945C99.7721 479.945 90.1218 300 132.772 266.945L177.772 265.945Z" fill="#2F2E41"/>
<path d="M233.903 256.477C233.548 256.901 233.226 257.352 232.941 257.827L183.406 260.228L173.867 231.109L157.305 238.98L172.893 282.352L234.155 270.371C235.595 271.942 237.479 273.039 239.557 273.513C241.634 273.988 243.807 273.819 245.787 273.029C247.766 272.239 249.458 270.865 250.637 269.09C251.817 267.314 252.428 265.222 252.389 263.091C252.35 260.96 251.664 258.892 250.421 257.16C249.178 255.429 247.437 254.117 245.431 253.399C243.424 252.681 241.246 252.591 239.187 253.141C237.128 253.691 235.285 254.855 233.903 256.477Z" fill="#A0616A"/>
<path d="M150.375 209.849C150.11 207.595 150.343 205.309 151.058 203.155C151.773 201 152.953 199.029 154.514 197.381C156.074 195.732 157.978 194.447 160.09 193.615C162.203 192.783 164.472 192.425 166.737 192.567C170.671 192.82 174.362 194.559 177.061 197.432C179.76 200.305 181.266 204.097 181.272 208.039V239.374L154.336 243.518L150.375 209.849Z" fill="#CCCCCC"/>
<path d="M145.981 175.339C142.294 175.323 139.45 171.442 139.616 167.759C139.781 164.076 142.254 160.836 145.234 158.666C148.214 156.496 151.709 155.174 155.032 153.579C158.356 151.983 161.65 149.993 163.702 146.931C164.941 144.926 165.681 142.653 165.859 140.303C166.037 137.953 165.648 135.595 164.725 133.426C162.815 129.089 159.537 125.498 155.392 123.202C149.234 119.598 141.944 118.445 134.975 119.974C128.006 121.503 121.868 125.601 117.785 131.452L113.577 142.91C109.289 148.066 108.609 155.724 111.244 161.89C113.88 168.056 119.493 172.696 125.826 174.901C132.251 176.966 139.129 177.172 145.667 175.496" fill="#2F2E41"/>
<path d="M123.534 137.179C121.725 134.279 118.59 132.435 115.348 131.353C111.593 130.1 107.599 129.73 103.677 130.272C99.7559 130.814 96.0123 132.255 92.7384 134.481C89.4645 136.707 86.7485 139.658 84.802 143.105C82.8554 146.553 81.7309 150.403 81.5158 154.356C81.1722 160.67 83.1494 166.845 84.3112 173.061C85.473 179.277 85.7041 186.143 82.2768 191.457C79.6662 195.505 75.3129 198.054 71.0159 200.23C67.4346 202.044 63.5609 203.746 59.5628 203.384C55.5647 203.023 51.5464 199.856 51.6525 195.843C50.314 198.72 49.4103 201.781 48.9708 204.923C48.6896 208.079 49.4674 211.485 51.7469 213.685C55.06 216.884 60.3094 216.65 64.8626 215.96C74.7195 214.466 84.7007 211.664 92.4881 205.439C100.275 199.215 105.443 188.965 103.392 179.208C102.535 175.133 100.522 171.412 98.8952 167.579C97.2684 163.745 95.9983 159.552 96.7456 155.455C97.188 153.344 98.0882 151.356 99.3829 149.631C100.677 147.906 102.335 146.487 104.238 145.473C108.087 143.471 112.491 142.804 116.761 143.574C119.56 144.033 123.055 144.746 124.715 142.446C125.155 141.718 125.38 140.879 125.363 140.029C125.347 139.178 125.089 138.349 124.621 137.638C123.664 136.232 122.444 135.023 121.029 134.078" fill="#2F2E41"/>
<path d="M308.485 505.345H1.1907C1.03405 505.346 0.878838 505.315 0.733978 505.256C0.589119 505.196 0.457459 505.108 0.346527 504.998C0.235596 504.887 0.147578 504.756 0.0875244 504.611C0.0274707 504.466 -0.00344849 504.311 -0.00344849 504.154C-0.00344849 503.998 0.0274707 503.843 0.0875244 503.698C0.147578 503.553 0.235596 503.422 0.346527 503.311C0.457459 503.201 0.589119 503.113 0.733978 503.053C0.878838 502.994 1.03405 502.963 1.1907 502.964H308.485C308.641 502.963 308.797 502.994 308.941 503.053C309.086 503.113 309.218 503.201 309.329 503.311C309.44 503.422 309.528 503.553 309.588 503.698C309.648 503.843 309.679 503.998 309.679 504.154C309.679 504.311 309.648 504.466 309.588 504.611C309.528 504.756 309.44 504.887 309.329 504.998C309.218 505.108 309.086 505.196 308.941 505.256C308.797 505.315 308.641 505.346 308.485 505.345Z" fill="#3F3D56"/>
</g>
<defs>
<linearGradient id="paint0_linear" x1="524.315" y1="388.244" x2="524.301" y2="376.523" gradientUnits="userSpaceOnUse">
<stop stop-color="#808080" stop-opacity="0.25"/>
<stop offset="0.54" stop-color="#808080" stop-opacity="0.12"/>
<stop offset="1" stop-color="#808080" stop-opacity="0.1"/>
</linearGradient>
<linearGradient id="paint1_linear" x1="260567" y1="132441" x2="260567" y2="36194.2" gradientUnits="userSpaceOnUse">
<stop stop-color="#808080" stop-opacity="0.25"/>
<stop offset="0.54" stop-color="#808080" stop-opacity="0.12"/>
<stop offset="1" stop-color="#808080" stop-opacity="0.1"/>
</linearGradient>
<linearGradient id="paint2_linear" x1="77187.4" y1="176723" x2="77060.3" y2="70191" gradientUnits="userSpaceOnUse">
<stop stop-color="#808080" stop-opacity="0.25"/>
<stop offset="0.54" stop-color="#808080" stop-opacity="0.12"/>
<stop offset="1" stop-color="#808080" stop-opacity="0.1"/>
</linearGradient>
<linearGradient id="paint3_linear" x1="379.654" y1="390.915" x2="379.421" y2="196.177" gradientUnits="userSpaceOnUse">
<stop stop-opacity="0.09"/>
<stop offset="0.55" stop-opacity="0.07"/>
<stop offset="1" stop-opacity="0.02"/>
</linearGradient>
<linearGradient id="paint4_linear" x1="34071.9" y1="139024" x2="33997.9" y2="74659.6" gradientUnits="userSpaceOnUse">
<stop stop-color="#808080" stop-opacity="0.25"/>
<stop offset="0.54" stop-color="#808080" stop-opacity="0.12"/>
<stop offset="1" stop-color="#808080" stop-opacity="0.1"/>
</linearGradient>
<clipPath id="clip0">
<rect width="794.122" height="505.345" fill="white"/>
</clipPath>
<clipPath id="clip1">
<rect width="480" height="310" fill="white" transform="translate(234 103)"/>
</clipPath>
</defs>
</svg>
