<svg width="795" height="506" viewBox="0 0 795 506" fill="none" xmlns="http://www.w3.org/2000/svg">
<g clip-path="url(#clip0)">
<path d="M44.5188 503.871C32.2679 502.863 21.4518 494 15.3008 483.357C13.238 479.788 11.8247 475.107 14.1606 471.71C14.8292 470.738 15.7533 469.969 16.8309 469.488C17.9085 469.008 19.0979 468.834 20.2679 468.986C21.438 469.138 22.5434 469.61 23.4623 470.351C24.3811 471.091 25.0778 472.07 25.4756 473.181C24.7232 469.012 24.3999 464.776 24.5108 460.54C24.6049 456.954 25.2825 452.9 28.2643 450.906C31.7236 448.592 36.7098 450.429 39.226 453.744C41.7422 457.059 42.425 461.37 43.0289 465.488C42.5358 463.745 42.4877 461.907 42.889 460.14C43.2903 458.374 44.1281 456.737 45.3258 455.378C46.5234 454.02 48.0427 452.983 49.7446 452.363C51.4465 451.743 53.2766 451.56 55.0675 451.831C60.1342 452.596 64.1033 456.983 65.6521 461.867C67.2008 466.752 66.7173 472.048 65.7205 477.074C64.5516 482.968 62.6547 488.815 59.2395 493.758C55.8243 498.702 50.7515 502.687 44.866 503.897L44.5188 503.871Z" fill="#F2F2F2"/>
<path d="M794.122 106C794.122 127.984 787.289 149.424 774.569 167.354C761.849 185.284 743.871 198.817 723.122 206.08C722.462 206.31 721.792 206.54 721.122 206.75V99.04H582.352C582.392 98.37 582.442 97.7 582.502 97.04H721.122V76C721.121 74.6741 720.594 73.4026 719.657 72.4651C718.719 71.5275 717.448 71.0005 716.122 71H588.042C588.272 70.33 588.512 69.66 588.772 69C597.449 45.7103 614.032 26.2096 635.626 13.9047C657.22 1.59972 682.45 -2.72714 706.91 1.68C731.369 6.08714 753.503 18.9481 769.444 38.016C785.385 57.0839 794.119 81.1465 794.122 106Z" fill="#F2F2F2"/>
<path d="M716.122 69H229.122C227.266 69.0021 225.487 69.7402 224.174 71.0525C222.862 72.3648 222.124 74.1441 222.122 76V406C222.124 407.856 222.862 409.635 224.174 410.947C225.487 412.26 227.266 412.998 229.122 413H716.122C717.978 412.998 719.757 412.26 721.069 410.947C722.382 409.635 723.12 407.856 723.122 406V76C723.12 74.1441 722.382 72.3648 721.069 71.0525C719.757 69.7402 717.978 69.0021 716.122 69ZM721.122 406C721.121 407.326 720.594 408.597 719.657 409.535C718.719 410.473 717.448 411 716.122 411H229.122C227.796 411 226.524 410.473 225.587 409.535C224.649 408.597 224.122 407.326 224.122 406V76C224.122 74.6741 224.649 73.4026 225.587 72.4651C226.524 71.5275 227.796 71.0005 229.122 71H716.122C717.448 71.0005 718.719 71.5275 719.657 72.4651C720.594 73.4026 721.121 74.6741 721.122 76V406Z" fill="#3F3D56"/>
<path d="M722.122 97.04H223.122V99.04H722.122V97.04Z" fill="#3F3D56"/>
<path d="M240.122 90C243.436 90 246.122 87.3137 246.122 84C246.122 80.6863 243.436 78 240.122 78C236.808 78 234.122 80.6863 234.122 84C234.122 87.3137 236.808 90 240.122 90Z" fill="#3F3D56"/>
<path d="M257.372 90C260.686 90 263.372 87.3137 263.372 84C263.372 80.6863 260.686 78 257.372 78C254.058 78 251.372 80.6863 251.372 84C251.372 87.3137 254.058 90 257.372 90Z" fill="#3F3D56"/>
<path d="M274.622 90C277.936 90 280.622 87.3137 280.622 84C280.622 80.6863 277.936 78 274.622 78C271.308 78 268.622 80.6863 268.622 84C268.622 87.3137 271.308 90 274.622 90Z" fill="#3F3D56"/>
<path d="M202.746 492.088L214.466 488.491L206.17 441.573L188.872 446.881L202.746 492.088Z" fill="#A0616A"/>
<path d="M240.41 492.438L203.574 503.742L199.207 489.51L221.81 482.573C223.679 482 225.643 481.8 227.589 481.985C229.535 482.171 231.426 482.737 233.153 483.653C234.88 484.569 236.41 485.817 237.655 487.324C238.9 488.831 239.836 490.569 240.41 492.438Z" fill="#2F2E41"/>
<path d="M102.748 492.358L115.008 492.357L120.84 445.069L102.746 445.07L102.748 492.358Z" fill="#A0616A"/>
<path d="M138.652 503.74L100.121 503.742L100.121 488.855L123.764 488.854C125.719 488.854 127.655 489.239 129.461 489.987C131.268 490.735 132.909 491.832 134.291 493.214C135.674 494.596 136.77 496.237 137.519 498.043C138.267 499.849 138.652 501.785 138.652 503.74L138.652 503.74Z" fill="#2F2E41"/>
<path d="M101.868 355.28C100.861 354.398 100.06 353.304 99.5207 352.078C98.9816 350.852 98.7179 349.523 98.7483 348.183C98.7786 346.844 99.1022 345.528 99.6962 344.328C100.29 343.127 101.14 342.071 102.186 341.235L111.692 221.54L131.023 226.37L115.545 343.129C116.834 344.979 117.399 347.238 117.133 349.478C116.868 351.717 115.79 353.781 114.104 355.279C112.418 356.777 110.242 357.605 107.986 357.605C105.731 357.605 103.554 356.778 101.868 355.28Z" fill="#A0616A"/>
<path d="M140.579 175.116C154.144 175.116 165.14 164.12 165.14 150.555C165.14 136.991 154.144 125.994 140.579 125.994C127.015 125.994 116.018 136.991 116.018 150.555C116.018 164.12 127.015 175.116 140.579 175.116Z" fill="#A0616A"/>
<path d="M119.223 217.859C113.681 210.25 113.51 199.772 119.48 192.495C123.375 187.745 129.892 183.945 140.772 183.945C169.772 183.945 180.772 206.945 180.772 206.945C180.772 206.945 192.772 228.945 185.772 248.945C178.772 268.945 178.772 270.945 178.772 270.945L132.772 266.945C132.772 266.945 140.532 247.113 119.223 217.859Z" fill="#CCCCCC"/>
<path d="M105.037 237.767L114.947 205.346C115.611 203.175 116.743 201.177 118.264 199.492C119.785 197.807 121.658 196.476 123.75 195.594C125.842 194.712 128.102 194.301 130.37 194.388C132.638 194.476 134.86 195.061 136.877 196.101C140.378 197.914 143.058 200.99 144.374 204.706C145.69 208.422 145.544 212.499 143.965 216.111L131.367 244.802L105.037 237.767Z" fill="#CCCCCC"/>
<path d="M177.772 265.945L216.772 467.945L195.772 473.945L144.772 340.945L121.772 476.945L99.7721 479.945C99.7721 479.945 90.1218 300 132.772 266.945L177.772 265.945Z" fill="#2F2E41"/>
<path d="M233.903 256.477C233.548 256.901 233.226 257.352 232.941 257.827L183.406 260.228L173.867 231.109L157.305 238.98L172.893 282.352L234.155 270.371C235.595 271.942 237.479 273.039 239.557 273.513C241.634 273.988 243.807 273.819 245.787 273.029C247.766 272.239 249.458 270.865 250.637 269.09C251.817 267.314 252.428 265.222 252.389 263.091C252.35 260.96 251.664 258.892 250.421 257.16C249.178 255.429 247.437 254.117 245.431 253.399C243.424 252.681 241.246 252.591 239.187 253.141C237.128 253.691 235.285 254.855 233.903 256.477Z" fill="#A0616A"/>
<path d="M150.375 209.849C150.11 207.595 150.343 205.309 151.058 203.155C151.773 201 152.953 199.029 154.514 197.381C156.074 195.732 157.978 194.447 160.09 193.615C162.203 192.783 164.472 192.425 166.737 192.567C170.671 192.82 174.362 194.559 177.061 197.432C179.76 200.305 181.266 204.097 181.272 208.039V239.374L154.336 243.518L150.375 209.849Z" fill="#CCCCCC"/>
<path d="M145.981 175.339C142.294 175.323 139.45 171.442 139.616 167.759C139.781 164.076 142.254 160.836 145.234 158.666C148.214 156.496 151.709 155.174 155.032 153.579C158.356 151.983 161.65 149.993 163.702 146.931C164.941 144.926 165.681 142.653 165.859 140.303C166.037 137.953 165.648 135.595 164.725 133.426C162.815 129.089 159.537 125.498 155.392 123.202C149.234 119.598 141.944 118.445 134.975 119.974C128.006 121.503 121.868 125.601 117.785 131.452L113.577 142.91C109.289 148.066 108.609 155.724 111.244 161.89C113.88 168.056 119.493 172.696 125.826 174.901C132.251 176.966 139.129 177.172 145.667 175.496" fill="#2F2E41"/>
<path d="M123.534 137.179C121.725 134.279 118.59 132.435 115.348 131.353C111.593 130.1 107.599 129.73 103.677 130.272C99.7559 130.814 96.0123 132.255 92.7384 134.481C89.4645 136.707 86.7485 139.658 84.802 143.105C82.8554 146.553 81.7309 150.403 81.5158 154.356C81.1722 160.67 83.1494 166.845 84.3112 173.061C85.473 179.277 85.7041 186.143 82.2768 191.457C79.6662 195.505 75.3129 198.054 71.0159 200.23C67.4346 202.044 63.5609 203.746 59.5628 203.384C55.5647 203.023 51.5464 199.856 51.6525 195.843C50.314 198.72 49.4103 201.781 48.9708 204.923C48.6896 208.079 49.4674 211.485 51.7469 213.685C55.06 216.884 60.3094 216.65 64.8626 215.96C74.7195 214.466 84.7007 211.664 92.4881 205.439C100.275 199.215 105.443 188.965 103.392 179.208C102.535 175.133 100.522 171.412 98.8952 167.579C97.2684 163.745 95.9983 159.552 96.7456 155.455C97.188 153.344 98.0882 151.356 99.3829 149.631C100.677 147.906 102.335 146.487 104.238 145.473C108.087 143.471 112.491 142.804 116.761 143.574C119.56 144.033 123.055 144.746 124.715 142.446C125.155 141.718 125.38 140.879 125.363 140.029C125.347 139.178 125.089 138.349 124.621 137.638C123.664 136.232 122.444 135.023 121.029 134.078" fill="#2F2E41"/>
<path d="M308.485 505.345H1.1907C1.03405 505.346 0.878838 505.315 0.733978 505.256C0.589119 505.196 0.457459 505.108 0.346527 504.998C0.235596 504.887 0.147578 504.756 0.0875244 504.611C0.0274707 504.466 -0.00344849 504.311 -0.00344849 504.154C-0.00344849 503.998 0.0274707 503.843 0.0875244 503.698C0.147578 503.553 0.235596 503.422 0.346527 503.311C0.457459 503.201 0.589119 503.113 0.733978 503.053C0.878838 502.994 1.03405 502.963 1.1907 502.964H308.485C308.641 502.963 308.797 502.994 308.941 503.053C309.086 503.113 309.218 503.201 309.329 503.311C309.44 503.422 309.528 503.553 309.588 503.698C309.648 503.843 309.679 503.998 309.679 504.154C309.679 504.311 309.648 504.466 309.588 504.611C309.528 504.756 309.44 504.887 309.329 504.998C309.218 505.108 309.086 505.196 308.941 505.256C308.797 505.315 308.641 505.346 308.485 505.345Z" fill="#3F3D56"/>
<g clip-path="url(#clip1)">
<path d="M332.686 370.184C346.961 370.184 358.533 357.986 358.533 342.94C358.533 327.894 346.961 315.696 332.686 315.696C318.411 315.696 306.839 327.894 306.839 342.94C306.839 357.986 318.411 370.184 332.686 370.184Z" fill="#F2F2F2"/>
<path d="M336.889 366.197C351.164 366.197 362.736 354 362.736 338.953C362.736 323.907 351.164 311.709 336.889 311.709C322.614 311.709 311.042 323.907 311.042 338.953C311.042 354 322.614 366.197 336.889 366.197Z" fill="#00B0FF"/>
<path d="M677.499 308.808H357.705V309.728H677.499V308.808Z" fill="#3F3D56"/>
<path d="M523.327 111.577H409.819V109.112H358.351V111.577H244.375C243.367 111.577 242.369 111.787 241.437 112.193C240.506 112.6 239.659 113.196 238.946 113.948C238.233 114.699 237.668 115.591 237.282 116.573C236.896 117.555 236.697 118.608 236.697 119.67V283.497C236.697 285.644 237.506 287.702 238.946 289.22C240.386 290.738 242.339 291.59 244.375 291.59H523.327C525.363 291.59 527.316 290.738 528.756 289.22C530.196 287.702 531.005 285.644 531.005 283.497V119.67C531.005 118.608 530.806 117.555 530.42 116.573C530.034 115.591 529.469 114.699 528.756 113.948C528.043 113.196 527.196 112.6 526.265 112.193C525.333 111.787 524.335 111.577 523.327 111.577V111.577Z" fill="#3F3D56"/>
<path d="M520.711 125.88H246.991V288.631H520.711V125.88Z" fill="#00B0FF"/>
<path d="M383.617 121.441C385.168 121.441 386.424 120.116 386.424 118.482C386.424 116.848 385.168 115.523 383.617 115.523C382.067 115.523 380.81 116.848 380.81 118.482C380.81 120.116 382.067 121.441 383.617 121.441Z" fill="#00B0FF"/>
<path opacity="0.1" d="M442.432 288.631H246.991V125.88L442.432 288.631Z" fill="black"/>
<path d="M289.82 276.452C304.351 276.452 316.131 264.036 316.131 248.72C316.131 233.403 304.351 220.987 289.82 220.987C275.289 220.987 263.509 233.403 263.509 248.72C263.509 264.036 275.289 276.452 289.82 276.452Z" fill="#F2F2F2"/>
<path d="M473.052 213.653H447.483V219.284H473.052V213.653Z" fill="#3F3D56"/>
<path d="M503.963 169.808H416.572V172.222H503.963V169.808Z" fill="#3F3D56"/>
<path d="M503.963 177.451H416.572V179.864H503.963V177.451Z" fill="#3F3D56"/>
<path d="M503.963 185.094H416.572V187.507H503.963V185.094Z" fill="#3F3D56"/>
<path d="M503.963 192.736H416.572V195.15H503.963V192.736Z" fill="#3F3D56"/>
<path d="M503.963 200.379H416.572V202.792H503.963V200.379Z" fill="#3F3D56"/>
<path d="M503.963 129.182H493.277V140.445H503.963V129.182Z" fill="#F2F2F2"/>
<path d="M508.924 145.674H495.949V131.997H508.924V145.674ZM496.513 145.079H508.36V132.592H496.513V145.079Z" fill="#3F3D56"/>
<path d="M538.69 285.672H511.977V283.643C511.977 283.591 511.967 283.538 511.948 283.489C511.929 283.441 511.9 283.396 511.865 283.359C511.83 283.322 511.787 283.292 511.741 283.272C511.695 283.252 511.645 283.241 511.595 283.241H502.436C502.386 283.241 502.337 283.252 502.29 283.272C502.244 283.292 502.202 283.322 502.166 283.359C502.131 283.396 502.103 283.441 502.084 283.489C502.065 283.538 502.055 283.591 502.055 283.643V285.672H496.33V283.643C496.33 283.591 496.321 283.538 496.301 283.489C496.282 283.441 496.254 283.396 496.219 283.359C496.183 283.322 496.141 283.292 496.095 283.272C496.049 283.252 495.999 283.241 495.949 283.241H486.79C486.74 283.241 486.69 283.252 486.644 283.272C486.598 283.292 486.556 283.322 486.52 283.359C486.485 283.396 486.457 283.441 486.437 283.489C486.418 283.538 486.408 283.591 486.408 283.643V285.672H480.684V283.643C480.684 283.591 480.674 283.538 480.655 283.489C480.636 283.441 480.608 283.396 480.572 283.359C480.537 283.322 480.495 283.292 480.449 283.272C480.402 283.252 480.353 283.241 480.302 283.241H471.144C471.094 283.241 471.044 283.252 470.998 283.272C470.951 283.292 470.909 283.322 470.874 283.359C470.838 283.396 470.81 283.441 470.791 283.489C470.772 283.538 470.762 283.591 470.762 283.643V285.672H465.038V283.643C465.038 283.591 465.028 283.538 465.009 283.489C464.99 283.441 464.961 283.396 464.926 283.359C464.891 283.322 464.848 283.292 464.802 283.272C464.756 283.252 464.706 283.241 464.656 283.241H455.497C455.447 283.241 455.398 283.252 455.351 283.272C455.305 283.292 455.263 283.322 455.227 283.359C455.192 283.396 455.164 283.441 455.145 283.489C455.126 283.538 455.116 283.591 455.116 283.643V285.672H449.391V283.643C449.391 283.591 449.382 283.538 449.362 283.489C449.343 283.441 449.315 283.396 449.28 283.359C449.244 283.322 449.202 283.292 449.156 283.272C449.11 283.252 449.06 283.241 449.01 283.241H439.851C439.801 283.241 439.751 283.252 439.705 283.272C439.659 283.292 439.617 283.322 439.581 283.359C439.546 283.396 439.518 283.441 439.498 283.489C439.479 283.538 439.469 283.591 439.469 283.643V285.672H433.745V283.643C433.745 283.591 433.735 283.538 433.716 283.489C433.697 283.441 433.669 283.396 433.633 283.359C433.598 283.322 433.556 283.292 433.509 283.272C433.463 283.252 433.414 283.241 433.363 283.241H424.205C424.154 283.241 424.105 283.252 424.059 283.272C424.012 283.292 423.97 283.322 423.935 283.359C423.899 283.396 423.871 283.441 423.852 283.489C423.833 283.538 423.823 283.591 423.823 283.643V285.672H418.099V283.643C418.099 283.591 418.089 283.538 418.07 283.489C418.05 283.441 418.022 283.396 417.987 283.359C417.952 283.322 417.909 283.292 417.863 283.272C417.817 283.252 417.767 283.241 417.717 283.241H345.973C345.923 283.241 345.873 283.252 345.827 283.272C345.781 283.292 345.739 283.322 345.703 283.359C345.668 283.396 345.64 283.441 345.62 283.489C345.601 283.538 345.591 283.591 345.591 283.643V285.672H339.867V283.643C339.867 283.591 339.857 283.538 339.838 283.489C339.819 283.441 339.791 283.396 339.755 283.359C339.72 283.322 339.678 283.292 339.631 283.272C339.585 283.252 339.536 283.241 339.485 283.241H330.327C330.276 283.241 330.227 283.252 330.181 283.272C330.134 283.292 330.092 283.322 330.057 283.359C330.021 283.396 329.993 283.441 329.974 283.489C329.955 283.538 329.945 283.591 329.945 283.643V285.672H324.221V283.643C324.221 283.591 324.211 283.538 324.192 283.489C324.172 283.441 324.144 283.396 324.109 283.359C324.073 283.322 324.031 283.292 323.985 283.272C323.939 283.252 323.889 283.241 323.839 283.241H314.68C314.63 283.241 314.58 283.252 314.534 283.272C314.488 283.292 314.446 283.322 314.41 283.359C314.375 283.396 314.347 283.441 314.328 283.489C314.308 283.538 314.299 283.591 314.299 283.643V285.672H308.574V283.643C308.574 283.591 308.564 283.538 308.545 283.489C308.526 283.441 308.498 283.396 308.463 283.359C308.427 283.322 308.385 283.292 308.339 283.272C308.292 283.252 308.243 283.241 308.193 283.241H299.034C298.984 283.241 298.934 283.252 298.888 283.272C298.842 283.292 298.799 283.322 298.764 283.359C298.729 283.396 298.7 283.441 298.681 283.489C298.662 283.538 298.652 283.591 298.652 283.643V285.672H292.928V283.643C292.928 283.591 292.918 283.538 292.899 283.489C292.88 283.441 292.852 283.396 292.816 283.359C292.781 283.322 292.739 283.292 292.692 283.272C292.646 283.252 292.597 283.241 292.546 283.241H283.388C283.337 283.241 283.288 283.252 283.242 283.272C283.195 283.292 283.153 283.322 283.118 283.359C283.082 283.396 283.054 283.441 283.035 283.489C283.016 283.538 283.006 283.591 283.006 283.643V285.672H277.282V283.643C277.282 283.591 277.272 283.538 277.253 283.489C277.233 283.441 277.205 283.396 277.17 283.359C277.134 283.322 277.092 283.292 277.046 283.272C277 283.252 276.95 283.241 276.9 283.241H267.741C267.691 283.241 267.641 283.252 267.595 283.272C267.549 283.292 267.507 283.322 267.471 283.359C267.436 283.396 267.408 283.441 267.389 283.489C267.369 283.538 267.36 283.591 267.36 283.643V285.672H261.635V283.643C261.635 283.591 261.625 283.538 261.606 283.489C261.587 283.441 261.559 283.396 261.524 283.359C261.488 283.322 261.446 283.292 261.4 283.272C261.353 283.252 261.304 283.241 261.254 283.241H252.095C252.045 283.241 251.995 283.252 251.949 283.272C251.903 283.292 251.86 283.322 251.825 283.359C251.79 283.396 251.761 283.441 251.742 283.489C251.723 283.538 251.713 283.591 251.713 283.643V285.672H234.159C231.73 285.672 229.4 286.689 227.683 288.5C225.965 290.31 225 292.766 225 295.326V299.691C225 302.252 225.965 304.707 227.683 306.518C229.4 308.328 231.73 309.345 234.159 309.345H538.69C541.119 309.345 543.449 308.328 545.166 306.518C546.884 304.707 547.849 302.252 547.849 299.691V295.326C547.849 292.766 546.884 290.31 545.166 288.5C543.449 286.689 541.119 285.672 538.69 285.672Z" fill="#3F3D56"/>
<path d="M296.189 266.041C289.631 266.041 283.22 263.991 277.767 260.151C272.315 256.311 268.065 250.852 265.555 244.466C263.046 238.08 262.389 231.053 263.668 224.273C264.948 217.494 268.106 211.266 272.743 206.379C277.38 201.491 283.288 198.162 289.72 196.814C296.152 195.465 302.819 196.157 308.878 198.802C314.936 201.448 320.115 205.927 323.758 211.675C327.402 217.422 329.346 224.179 329.346 231.092C329.336 240.358 325.84 249.241 319.624 255.793C313.408 262.345 304.98 266.031 296.189 266.041ZM296.189 197.062C289.803 197.062 283.561 199.058 278.252 202.797C272.943 206.536 268.805 211.851 266.361 218.069C263.918 224.287 263.279 231.129 264.524 237.731C265.77 244.332 268.845 250.395 273.36 255.154C277.875 259.914 283.628 263.155 289.89 264.468C296.153 265.781 302.644 265.107 308.544 262.531C314.443 259.955 319.485 255.594 323.033 249.998C326.58 244.401 328.474 237.822 328.474 231.092C328.464 222.069 325.059 213.42 319.007 207.04C312.954 200.661 304.748 197.072 296.189 197.062V197.062Z" fill="#3F3D56"/>
<path d="M591.988 117.965H480.736V118.885H591.988V117.965Z" fill="#3F3D56"/>
<path d="M722 360.773H402.205V361.693H722V360.773Z" fill="#3F3D56"/>
<path d="M420.311 403.08H309.059V404H420.311V403.08Z" fill="#3F3D56"/>
<path d="M442.705 355.924H430.489V368.801H442.705V355.924Z" fill="#00B0FF"/>
<path d="M450.122 361.443H435.288V345.807H450.122V361.443ZM435.933 360.763H449.477V346.487H435.933V360.763Z" fill="#3F3D56"/>
<path d="M584.497 113.117H572.281V125.993H584.497V113.117Z" fill="#00B0FF"/>
<path d="M591.913 118.635H577.08V103H591.913V118.635ZM577.725 117.956H591.268V103.68H577.725V117.956Z" fill="#3F3D56"/>
<path d="M707.528 355.924H695.312V368.801H707.528V355.924Z" fill="#00B0FF"/>
<path d="M714.945 361.443H700.111V345.807H714.945V361.443ZM700.756 360.763H714.3V346.487H700.756V360.763Z" fill="#3F3D56"/>
<path d="M686.225 209.669H685.187V179.704C685.187 177.426 684.762 175.171 683.935 173.067C683.108 170.962 681.896 169.051 680.368 167.44C678.84 165.83 677.026 164.552 675.03 163.681C673.034 162.809 670.894 162.36 668.733 162.36H608.503C606.342 162.36 604.203 162.809 602.207 163.681C600.21 164.552 598.396 165.83 596.869 167.44C595.341 169.051 594.129 170.962 593.302 173.067C592.475 175.171 592.049 177.426 592.049 179.704V344.096C592.049 346.373 592.475 348.629 593.302 350.733C594.129 352.837 595.341 354.749 596.869 356.359C598.396 357.97 600.21 359.247 602.207 360.119C604.203 360.99 606.342 361.439 608.503 361.439H668.733C670.894 361.439 673.034 360.99 675.03 360.119C677.026 359.247 678.84 357.97 680.368 356.359C681.896 354.749 683.108 352.837 683.935 350.733C684.762 348.629 685.187 346.373 685.187 344.096V230.999H686.225V209.669Z" fill="#3F3D56"/>
<path d="M681.683 180.723V344.875C681.684 348.311 680.39 351.605 678.086 354.035C675.782 356.464 672.657 357.829 669.398 357.83H608.877C605.618 357.829 602.492 356.464 600.188 354.035C597.884 351.605 596.59 348.311 596.591 344.875V180.723C596.591 177.288 597.886 173.995 600.19 171.566C602.494 169.138 605.618 167.774 608.877 167.773H616.219C615.858 168.707 615.72 169.721 615.818 170.725C615.916 171.728 616.246 172.691 616.78 173.528C617.314 174.366 618.035 175.052 618.88 175.526C619.725 176 620.668 176.248 621.625 176.248H656.13C657.088 176.248 658.03 176 658.875 175.526C659.72 175.052 660.441 174.366 660.975 173.528C661.509 172.691 661.839 171.728 661.937 170.725C662.035 169.721 661.897 168.707 661.536 167.773H669.398C672.656 167.774 675.781 169.138 678.085 171.566C680.389 173.995 681.683 177.288 681.683 180.723V180.723Z" fill="#00B0FF"/>
<path d="M648.152 276.008H630.123V281.64H648.152V276.008Z" fill="#3F3D56"/>
<path d="M669.948 232.164H608.327V234.577H669.948V232.164Z" fill="#3F3D56"/>
<path d="M669.948 239.807H608.327V242.22H669.948V239.807Z" fill="#3F3D56"/>
<path d="M669.948 247.449H608.327V249.863H669.948V247.449Z" fill="#3F3D56"/>
<path d="M669.948 255.092H608.327V257.505H669.948V255.092Z" fill="#3F3D56"/>
<path d="M669.948 262.734H608.327V265.148H669.948V262.734Z" fill="#3F3D56"/>
<path d="M641.29 200.113H630.604V211.376H641.29V200.113Z" fill="#F2F2F2"/>
<path d="M634.695 202.93V216.606H647.67V202.93H634.695ZM647.107 216.013H635.258V203.523H647.107V216.013Z" fill="#3F3D56"/>
<path opacity="0.1" d="M681.683 327.345V344.875C681.684 348.311 680.39 351.605 678.086 354.035C675.782 356.464 672.657 357.829 669.398 357.83H608.877C605.618 357.829 602.492 356.464 600.188 354.035C597.884 351.605 596.59 348.311 596.591 344.875V256.485L647.579 298.944L648.452 299.671L657.937 307.567L658.822 308.307L681.683 327.345Z" fill="black"/>
<path d="M633.902 352.51C644.472 352.51 653.041 343.478 653.041 332.337C653.041 321.195 644.472 312.164 633.902 312.164C623.332 312.164 614.763 321.195 614.763 332.337C614.763 343.478 623.332 352.51 633.902 352.51Z" fill="#F2F2F2"/>
<path d="M364.685 404C357.178 404 349.839 401.654 343.598 397.257C337.356 392.861 332.491 386.613 329.618 379.302C326.745 371.992 325.993 363.948 327.458 356.187C328.922 348.426 332.537 341.297 337.846 335.702C343.154 330.107 349.917 326.296 357.28 324.753C364.643 323.209 372.275 324.001 379.21 327.029C386.146 330.057 392.074 335.185 396.245 341.765C400.415 348.344 402.642 356.079 402.642 363.992C402.63 374.599 398.628 384.768 391.512 392.269C384.396 399.769 374.748 403.988 364.685 404ZM364.685 324.904C357.351 324.904 350.181 327.196 344.082 331.491C337.984 335.786 333.231 341.891 330.424 349.034C327.617 356.176 326.883 364.035 328.314 371.618C329.745 379.2 333.276 386.165 338.463 391.632C343.649 397.098 350.257 400.821 357.45 402.329C364.644 403.837 372.1 403.063 378.876 400.105C385.653 397.146 391.444 392.136 395.519 385.708C399.594 379.28 401.769 371.723 401.769 363.992C401.758 353.629 397.847 343.693 390.895 336.365C383.943 329.037 374.517 324.915 364.685 324.904V324.904Z" fill="#3F3D56"/>
<path d="M639.543 347.897C634.797 347.897 630.158 346.413 626.212 343.634C622.266 340.855 619.19 336.905 617.374 332.283C615.558 327.662 615.083 322.576 616.008 317.67C616.934 312.764 619.22 308.257 622.575 304.72C625.931 301.183 630.207 298.774 634.862 297.798C639.516 296.822 644.341 297.323 648.726 299.237C653.11 301.151 656.858 304.393 659.494 308.553C662.131 312.712 663.538 317.602 663.538 322.604C663.531 329.31 661.001 335.739 656.502 340.48C652.004 345.222 645.905 347.889 639.543 347.897V347.897ZM639.543 298.232C634.97 298.232 630.499 299.661 626.696 302.339C622.894 305.017 619.93 308.824 618.18 313.277C616.43 317.731 615.972 322.631 616.864 327.359C617.756 332.087 619.959 336.43 623.192 339.838C626.426 343.247 630.546 345.568 635.032 346.509C639.517 347.449 644.166 346.966 648.392 345.122C652.617 343.277 656.228 340.153 658.769 336.145C661.31 332.137 662.666 327.425 662.666 322.604C662.659 316.142 660.221 309.947 655.886 305.378C651.551 300.809 645.673 298.239 639.543 298.232Z" fill="#3F3D56"/>
</g>
<path d="M356.153 77.3662C356.656 77.3662 357.323 77.3441 358.153 77.2998C358.928 77.2555 359.504 77.2334 359.88 77.2334C361.38 77.2334 362.522 77.582 363.308 78.2793C364.099 78.9766 364.495 80.0806 364.495 81.5913C364.495 82.5542 364.299 83.3787 363.906 84.0649C363.518 84.7511 362.946 85.2741 362.188 85.6338C361.435 85.9935 360.519 86.1733 359.44 86.1733C358.864 86.1733 358.383 86.1678 357.996 86.1567V90H355.356V77.3662H356.153ZM359.374 84.1729C360.115 84.1729 360.715 83.9764 361.175 83.5835C361.64 83.1906 361.872 82.5155 361.872 81.5581C361.872 80.7557 361.656 80.147 361.225 79.7319C360.793 79.3114 360.168 79.1177 359.349 79.1509C359.028 79.1619 358.765 79.1758 358.56 79.1924C358.361 79.2035 358.173 79.2284 357.996 79.2671V84.1064C358.355 84.1507 358.815 84.1729 359.374 84.1729ZM371.493 80.3794C371.852 80.3794 372.099 80.4181 372.231 80.4956V82.9941C372.104 82.9222 371.958 82.8669 371.792 82.8281C371.631 82.7839 371.399 82.7617 371.094 82.7617C370.297 82.7617 369.595 83.0467 368.986 83.6167V90H366.396V80.5371H368.695L368.812 81.832C368.95 81.5885 369.155 81.3561 369.426 81.1348C369.702 80.9134 370.021 80.7336 370.38 80.5952C370.746 80.4513 371.116 80.3794 371.493 80.3794ZM373.568 85.1772C373.568 84.1646 373.767 83.3013 374.166 82.5874C374.564 81.868 375.117 81.3257 375.826 80.9604C376.534 80.5897 377.347 80.4043 378.266 80.4043C379.312 80.4043 380.173 80.6257 380.848 81.0684C381.523 81.5055 382.013 82.0949 382.317 82.8364C382.627 83.5724 382.782 84.4053 382.782 85.335C382.782 86.3532 382.583 87.222 382.184 87.9414C381.786 88.6608 381.232 89.2059 380.524 89.5767C379.816 89.9474 379.005 90.1328 378.092 90.1328C377.04 90.1328 376.177 89.9115 375.502 89.4688C374.827 89.026 374.334 88.4339 374.024 87.6924C373.72 86.9453 373.568 86.1069 373.568 85.1772ZM380.101 85.3433C380.101 84.4578 379.943 83.7218 379.627 83.1353C379.312 82.5431 378.833 82.2471 378.191 82.2471C376.896 82.2471 376.249 83.21 376.249 85.1357C376.249 85.7168 376.315 86.248 376.448 86.7295C376.587 87.2054 376.8 87.5872 377.087 87.875C377.381 88.1628 377.746 88.3066 378.183 88.3066C379.461 88.3066 380.101 87.3188 380.101 85.3433ZM394.27 82.4131H392.701C392.812 82.734 392.867 83.0938 392.867 83.4922C392.867 84.5049 392.499 85.2769 391.763 85.8081C391.033 86.3394 389.998 86.605 388.659 86.605C388.349 86.605 388.075 86.5856 387.837 86.5469C387.721 86.641 387.632 86.7572 387.571 86.8955C387.51 87.0283 387.48 87.1694 387.48 87.3188C387.48 87.5845 387.563 87.7616 387.729 87.8501C387.895 87.9386 388.186 87.9829 388.601 87.9829H390.178C391.572 87.9829 392.527 88.2541 393.042 88.7964C393.562 89.3332 393.822 90.0166 393.822 90.8467C393.822 91.555 393.595 92.1693 393.141 92.6895C392.693 93.2096 392.095 93.6053 391.348 93.8765C390.601 94.1476 389.796 94.2832 388.933 94.2832C387.466 94.2832 386.332 94.0452 385.529 93.5693C384.732 93.099 384.334 92.4155 384.334 91.519C384.334 91.0819 384.467 90.6917 384.732 90.3486C385.004 90.0111 385.358 89.7454 385.795 89.5518C385.529 89.4134 385.333 89.217 385.206 88.9624C385.084 88.7078 385.023 88.4339 385.023 88.1406C385.023 87.7643 385.139 87.4019 385.372 87.0532C385.604 86.7046 385.991 86.4196 386.534 86.1982C385.931 85.9382 385.455 85.5785 385.106 85.1191C384.763 84.6543 384.591 84.1369 384.591 83.5669C384.591 82.4823 384.962 81.6854 385.704 81.1763C386.445 80.6616 387.486 80.4043 388.825 80.4043C390.048 80.4043 391.002 80.634 391.688 81.0933C391.871 80.9328 392.09 80.8 392.344 80.6948C392.599 80.5897 392.889 80.5371 393.216 80.5371H394.27V82.4131ZM388.7 85.0195C389.243 85.0195 389.663 84.9144 389.962 84.7041C390.266 84.4938 390.418 84.1147 390.418 83.5669C390.418 83.0522 390.283 82.6649 390.012 82.4048C389.746 82.1392 389.348 82.0063 388.816 82.0063C388.28 82.0063 387.856 82.1226 387.546 82.355C387.242 82.5819 387.09 82.9748 387.09 83.5337C387.09 83.9985 387.228 84.3638 387.505 84.6294C387.782 84.8895 388.18 85.0195 388.7 85.0195ZM387.771 90C387.649 90 387.477 89.9945 387.256 89.9834C387.023 90.1937 386.907 90.5146 386.907 90.9463C386.907 91.4665 387.068 91.8981 387.389 92.2412C387.715 92.5843 388.23 92.7559 388.933 92.7559C389.663 92.7559 390.233 92.6424 390.643 92.4155C391.058 92.1942 391.265 91.8428 391.265 91.3613C391.265 91.0348 391.215 90.7747 391.116 90.5811C391.016 90.3929 390.811 90.249 390.501 90.1494C390.192 90.0498 389.732 90 389.124 90H387.771ZM400.828 80.3794C401.187 80.3794 401.434 80.4181 401.566 80.4956V82.9941C401.439 82.9222 401.292 82.8669 401.126 82.8281C400.966 82.7839 400.734 82.7617 400.429 82.7617C399.632 82.7617 398.93 83.0467 398.321 83.6167V90H395.731V80.5371H398.03L398.146 81.832C398.285 81.5885 398.49 81.3561 398.761 81.1348C399.037 80.9134 399.356 80.7336 399.715 80.5952C400.081 80.4513 400.451 80.3794 400.828 80.3794ZM411.179 84.1147C411.179 84.9116 411.148 85.5037 411.087 85.8911H405.493C405.542 86.6714 405.786 87.2524 406.223 87.6343C406.666 88.0161 407.264 88.207 408.016 88.207C408.376 88.207 408.81 88.16 409.319 88.0659C409.834 87.9663 410.21 87.8501 410.448 87.7173L410.872 89.1865C410.545 89.4521 410.055 89.6763 409.402 89.8589C408.749 90.0415 408.069 90.1328 407.36 90.1328C406.409 90.1328 405.598 89.9391 404.928 89.5518C404.259 89.1644 403.752 88.6055 403.409 87.875C403.066 87.139 402.895 86.2591 402.895 85.2354C402.895 84.3057 403.074 83.4756 403.434 82.7451C403.794 82.0146 404.317 81.4419 405.003 81.0269C405.695 80.6118 406.516 80.4043 407.468 80.4043C408.154 80.4043 408.774 80.5288 409.328 80.7778C409.881 81.0269 410.324 81.4281 410.656 81.9814C410.993 82.5348 411.168 83.2459 411.179 84.1147ZM408.771 84.4551C408.777 84.3721 408.78 84.2503 408.78 84.0898C408.78 83.4867 408.666 83.0301 408.439 82.7202C408.213 82.4048 407.845 82.2471 407.335 82.2471C406.826 82.2471 406.42 82.4159 406.115 82.7534C405.816 83.0854 405.623 83.6527 405.534 84.4551H408.771ZM413.204 87.4766C413.309 87.5596 413.506 87.6619 413.793 87.7837C414.081 87.8999 414.413 88.0023 414.79 88.0908C415.171 88.1794 415.548 88.2236 415.918 88.2236C416.433 88.2292 416.809 88.1711 417.047 88.0493C417.285 87.9276 417.404 87.7228 417.404 87.4351C417.404 87.1694 417.238 86.9287 416.906 86.7129C416.58 86.4971 416.062 86.2729 415.354 86.0405C414.513 85.7638 413.904 85.3875 413.528 84.9116C413.157 84.4357 412.972 83.8491 412.972 83.1519C412.972 82.5653 413.132 82.0672 413.453 81.6577C413.78 81.2427 414.231 80.93 414.806 80.7197C415.382 80.5094 416.043 80.4043 416.79 80.4043C417.393 80.4043 417.933 80.4624 418.409 80.5786C418.885 80.6948 419.233 80.8166 419.455 80.9438L419.172 82.936C418.984 82.7645 418.68 82.6151 418.259 82.4878C417.844 82.3605 417.44 82.2969 417.047 82.2969C416.483 82.2969 416.073 82.3577 415.819 82.4795C415.57 82.5957 415.445 82.7894 415.445 83.0605C415.445 83.2542 415.503 83.4202 415.62 83.5586C415.736 83.6914 415.921 83.8215 416.176 83.9487C416.436 84.0705 416.809 84.2144 417.296 84.3804C417.944 84.6017 418.458 84.8452 418.84 85.1108C419.228 85.3709 419.51 85.6725 419.687 86.0156C419.864 86.3532 419.953 86.7572 419.953 87.2275C419.953 88.1849 419.623 88.9098 418.965 89.4023C418.312 89.8893 417.404 90.1328 416.242 90.1328C415.805 90.1328 415.365 90.0968 414.922 90.0249C414.48 89.953 414.081 89.8617 413.727 89.751C413.378 89.6348 413.116 89.5186 412.938 89.4023L413.204 87.4766ZM421.903 87.4766C422.008 87.5596 422.205 87.6619 422.493 87.7837C422.78 87.8999 423.112 88.0023 423.489 88.0908C423.871 88.1794 424.247 88.2236 424.618 88.2236C425.132 88.2292 425.509 88.1711 425.747 88.0493C425.985 87.9276 426.104 87.7228 426.104 87.4351C426.104 87.1694 425.938 86.9287 425.605 86.7129C425.279 86.4971 424.762 86.2729 424.053 86.0405C423.212 85.7638 422.603 85.3875 422.227 84.9116C421.856 84.4357 421.671 83.8491 421.671 83.1519C421.671 82.5653 421.831 82.0672 422.152 81.6577C422.479 81.2427 422.93 80.93 423.505 80.7197C424.081 80.5094 424.742 80.4043 425.489 80.4043C426.092 80.4043 426.632 80.4624 427.108 80.5786C427.584 80.6948 427.932 80.8166 428.154 80.9438L427.872 82.936C427.683 82.7645 427.379 82.6151 426.958 82.4878C426.543 82.3605 426.139 82.2969 425.747 82.2969C425.182 82.2969 424.773 82.3577 424.518 82.4795C424.269 82.5957 424.145 82.7894 424.145 83.0605C424.145 83.2542 424.203 83.4202 424.319 83.5586C424.435 83.6914 424.62 83.8215 424.875 83.9487C425.135 84.0705 425.509 84.2144 425.996 84.3804C426.643 84.6017 427.158 84.8452 427.54 85.1108C427.927 85.3709 428.209 85.6725 428.386 86.0156C428.563 86.3532 428.652 86.7572 428.652 87.2275C428.652 88.1849 428.323 88.9098 427.664 89.4023C427.011 89.8893 426.104 90.1328 424.941 90.1328C424.504 90.1328 424.064 90.0968 423.622 90.0249C423.179 89.953 422.78 89.8617 422.426 89.751C422.078 89.6348 421.815 89.5186 421.638 89.4023L421.903 87.4766ZM433.417 80.5371V90H430.827V80.5371H433.417ZM430.511 77.7397C430.511 77.4631 430.589 77.2057 430.744 76.9678C430.899 76.7298 431.103 76.5417 431.358 76.4033C431.612 76.2594 431.881 76.1875 432.163 76.1875C432.617 76.1875 432.979 76.3203 433.25 76.5859C433.522 76.846 433.657 77.1836 433.657 77.5986C433.657 77.8753 433.58 78.1354 433.425 78.3789C433.275 78.6169 433.073 78.8078 432.819 78.9517C432.57 79.09 432.301 79.1592 432.014 79.1592C431.731 79.1592 431.477 79.0983 431.25 78.9766C431.023 78.8548 430.843 78.686 430.71 78.4702C430.578 78.2544 430.511 78.0109 430.511 77.7397ZM444.606 80.5371L440.995 90.1328H438.596L435.002 80.5371H437.799L439.244 85.1855L439.85 87.4932L440.422 85.1855L441.867 80.5371H444.606ZM453.828 84.1147C453.828 84.9116 453.798 85.5037 453.737 85.8911H448.142C448.192 86.6714 448.435 87.2524 448.873 87.6343C449.315 88.0161 449.913 88.207 450.666 88.207C451.025 88.207 451.46 88.16 451.969 88.0659C452.483 87.9663 452.86 87.8501 453.098 87.7173L453.521 89.1865C453.194 89.4521 452.705 89.6763 452.052 89.8589C451.399 90.0415 450.718 90.1328 450.01 90.1328C449.058 90.1328 448.247 89.9391 447.578 89.5518C446.908 89.1644 446.402 88.6055 446.059 87.875C445.715 87.139 445.544 86.2591 445.544 85.2354C445.544 84.3057 445.724 83.4756 446.083 82.7451C446.443 82.0146 446.966 81.4419 447.652 81.0269C448.344 80.6118 449.166 80.4043 450.118 80.4043C450.804 80.4043 451.424 80.5288 451.977 80.7778C452.53 81.0269 452.973 81.4281 453.305 81.9814C453.643 82.5348 453.817 83.2459 453.828 84.1147ZM451.421 84.4551C451.426 84.3721 451.429 84.2503 451.429 84.0898C451.429 83.4867 451.316 83.0301 451.089 82.7202C450.862 82.4048 450.494 82.2471 449.985 82.2471C449.476 82.2471 449.069 82.4159 448.765 82.7534C448.466 83.0854 448.272 83.6527 448.184 84.4551H451.421ZM476.531 77.3662L473.227 90.1328H470.521L468.745 83.0771L468.338 80.3545L467.964 83.0854L466.146 90.1328H463.623L460.236 77.3662H462.884L464.445 84.7871L464.885 87.8584L465.391 84.7871L467.217 77.3662H469.575L471.517 84.7871L472.032 87.7256L472.455 84.7871L473.891 77.3662H476.531ZM485.653 84.1147C485.653 84.9116 485.623 85.5037 485.562 85.8911H479.967C480.017 86.6714 480.261 87.2524 480.698 87.6343C481.14 88.0161 481.738 88.207 482.491 88.207C482.85 88.207 483.285 88.16 483.794 88.0659C484.309 87.9663 484.685 87.8501 484.923 87.7173L485.346 89.1865C485.02 89.4521 484.53 89.6763 483.877 89.8589C483.224 90.0415 482.543 90.1328 481.835 90.1328C480.883 90.1328 480.072 89.9391 479.403 89.5518C478.733 89.1644 478.227 88.6055 477.884 87.875C477.541 87.139 477.369 86.2591 477.369 85.2354C477.369 84.3057 477.549 83.4756 477.909 82.7451C478.268 82.0146 478.791 81.4419 479.478 81.0269C480.169 80.6118 480.991 80.4043 481.943 80.4043C482.629 80.4043 483.249 80.5288 483.802 80.7778C484.356 81.0269 484.798 81.4281 485.13 81.9814C485.468 82.5348 485.642 83.2459 485.653 84.1147ZM483.246 84.4551C483.252 84.3721 483.254 84.2503 483.254 84.0898C483.254 83.4867 483.141 83.0301 482.914 82.7202C482.687 82.4048 482.319 82.2471 481.81 82.2471C481.301 82.2471 480.894 82.4159 480.59 82.7534C480.291 83.0854 480.097 83.6527 480.009 84.4551H483.246ZM493.024 80.4043C493.716 80.4043 494.347 80.5731 494.917 80.9106C495.487 81.2427 495.941 81.749 496.278 82.4297C496.621 83.1048 496.793 83.9349 496.793 84.9199C496.793 85.9548 496.585 86.8734 496.17 87.6758C495.755 88.4727 495.172 89.0924 494.419 89.5352C493.672 89.9723 492.814 90.1909 491.846 90.1909C491.314 90.1909 490.758 90.1466 490.177 90.0581C489.602 89.9751 489.095 89.8755 488.658 89.7593C488.221 89.6431 487.953 89.5462 487.853 89.4688V76.2124H490.443V79.8398L490.376 81.4004C490.675 81.1182 491.035 80.883 491.456 80.6948C491.876 80.5011 492.399 80.4043 493.024 80.4043ZM494.079 85.061C494.079 84.0594 493.921 83.3566 493.605 82.9526C493.29 82.5431 492.831 82.3384 492.228 82.3384C491.884 82.3384 491.552 82.3937 491.231 82.5044C490.916 82.6151 490.653 82.7562 490.443 82.9277V88.0742C490.642 88.29 491.129 88.3979 491.904 88.3979C492.324 88.3979 492.698 88.2679 493.024 88.0078C493.351 87.7422 493.608 87.3576 493.796 86.854C493.985 86.3504 494.079 85.7528 494.079 85.061ZM511.336 87.3271H506.696L505.857 90H503.019L507.684 77.2334H510.356L515.063 90H512.183L511.336 87.3271ZM510.73 85.4263L509.36 81.0933L509.003 79.79L508.638 81.0933L507.285 85.4263H510.73ZM521.513 80.4043C522.204 80.4043 522.835 80.5731 523.405 80.9106C523.975 81.2427 524.429 81.749 524.767 82.4297C525.11 83.1048 525.281 83.9349 525.281 84.9199C525.281 85.9548 525.079 86.8678 524.675 87.6592C524.277 88.445 523.712 89.0537 522.982 89.4854C522.257 89.917 521.419 90.1328 520.467 90.1328C519.902 90.1328 519.379 90.0443 518.898 89.8672L518.931 91.1538V94.2002H516.341V80.5371H518.757V81.5C519.061 81.1956 519.429 80.9383 519.861 80.728C520.292 80.5122 520.843 80.4043 521.513 80.4043ZM522.567 85.061C522.567 84.0594 522.409 83.3566 522.094 82.9526C521.778 82.5431 521.319 82.3384 520.716 82.3384C520.373 82.3384 520.041 82.3937 519.72 82.5044C519.404 82.6151 519.141 82.7562 518.931 82.9277V87.9331C519.092 88.077 519.294 88.1766 519.537 88.2319C519.786 88.2873 520.071 88.3149 520.392 88.3149C520.813 88.3149 521.186 88.1877 521.513 87.9331C521.839 87.6785 522.097 87.305 522.285 86.8125C522.473 86.32 522.567 85.7362 522.567 85.061ZM532.636 80.4043C533.327 80.4043 533.958 80.5731 534.528 80.9106C535.098 81.2427 535.552 81.749 535.89 82.4297C536.233 83.1048 536.404 83.9349 536.404 84.9199C536.404 85.9548 536.202 86.8678 535.798 87.6592C535.4 88.445 534.835 89.0537 534.105 89.4854C533.38 89.917 532.542 90.1328 531.59 90.1328C531.025 90.1328 530.502 90.0443 530.021 89.8672L530.054 91.1538V94.2002H527.464V80.5371H529.88V81.5C530.184 81.1956 530.552 80.9383 530.984 80.728C531.416 80.5122 531.966 80.4043 532.636 80.4043ZM533.69 85.061C533.69 84.0594 533.532 83.3566 533.217 82.9526C532.901 82.5431 532.442 82.3384 531.839 82.3384C531.496 82.3384 531.164 82.3937 530.843 82.5044C530.527 82.6151 530.264 82.7562 530.054 82.9277V87.9331C530.215 88.077 530.417 88.1766 530.66 88.2319C530.909 88.2873 531.194 88.3149 531.515 88.3149C531.936 88.3149 532.309 88.1877 532.636 87.9331C532.962 87.6785 533.22 87.305 533.408 86.8125C533.596 86.32 533.69 85.7362 533.69 85.061ZM541.277 76.2041V90H538.687V76.2041H541.277ZM546.805 80.5371V90H544.215V80.5371H546.805ZM543.9 77.7397C543.9 77.4631 543.977 77.2057 544.132 76.9678C544.287 76.7298 544.492 76.5417 544.747 76.4033C545.001 76.2594 545.27 76.1875 545.552 76.1875C546.006 76.1875 546.368 76.3203 546.639 76.5859C546.91 76.846 547.046 77.1836 547.046 77.5986C547.046 77.8753 546.968 78.1354 546.813 78.3789C546.664 78.6169 546.462 78.8078 546.208 78.9517C545.958 79.09 545.69 79.1592 545.402 79.1592C545.12 79.1592 544.866 79.0983 544.639 78.9766C544.412 78.8548 544.232 78.686 544.099 78.4702C543.966 78.2544 543.9 78.0109 543.9 77.7397ZM553.761 80.4043C554.32 80.4043 554.826 80.4541 555.28 80.5537C555.734 80.6478 556.047 80.7585 556.218 80.8857L555.895 82.8862C555.657 82.759 555.391 82.6676 555.098 82.6123C554.81 82.5514 554.453 82.521 554.027 82.521C553.628 82.521 553.249 82.6068 552.89 82.7783C552.53 82.9443 552.231 83.2183 551.993 83.6001C551.755 83.9764 551.628 84.4634 551.611 85.061C551.595 85.7196 551.683 86.2729 551.877 86.7212C552.071 87.1694 552.345 87.5042 552.699 87.7256C553.058 87.9414 553.468 88.0493 553.927 88.0493C554.342 88.0493 554.738 88.0133 555.114 87.9414C555.496 87.8639 555.787 87.7699 555.986 87.6592L556.359 89.1948C556.066 89.4771 555.657 89.7039 555.131 89.8755C554.605 90.047 554.046 90.1328 553.454 90.1328C552.502 90.1328 551.694 89.9308 551.03 89.5269C550.366 89.1174 549.868 88.5557 549.536 87.8418C549.204 87.1224 549.038 86.3034 549.038 85.3848C549.038 84.4329 549.212 83.5807 549.561 82.8281C549.91 82.0755 550.438 81.4834 551.146 81.0518C551.855 80.6201 552.726 80.4043 553.761 80.4043ZM561.987 80.3545C562.906 80.3545 563.639 80.4569 564.187 80.6616C564.74 80.8608 565.153 81.2122 565.424 81.7158C565.695 82.2139 565.831 82.9139 565.831 83.8159V90.1328H564.32C564.071 90.1328 563.883 90.1162 563.755 90.083C563.628 90.0498 563.528 89.9723 563.457 89.8506C563.385 89.7288 563.349 89.5352 563.349 89.2695V89.2031C563.061 89.4688 562.707 89.6901 562.286 89.8672C561.866 90.0443 561.398 90.1328 560.883 90.1328C560.275 90.1328 559.735 90.0028 559.265 89.7427C558.8 89.4771 558.437 89.1118 558.177 88.647C557.923 88.1766 557.795 87.6453 557.795 87.0532C557.795 86.4998 557.937 86.0267 558.219 85.6338C558.507 85.2409 558.916 84.9255 559.447 84.6875C560.272 84.3223 561.536 84.1396 563.241 84.1396V83.542C563.241 83.1878 563.194 82.9277 563.1 82.7617C563.011 82.5957 562.837 82.4823 562.577 82.4214C562.322 82.3605 561.918 82.3301 561.365 82.3301C561.099 82.3301 560.695 82.3993 560.153 82.5376C559.611 82.6704 559.146 82.8254 558.758 83.0024L558.186 81.3423C558.407 81.2095 558.728 81.0656 559.148 80.9106C559.569 80.7557 560.031 80.6257 560.535 80.5205C561.038 80.4098 561.522 80.3545 561.987 80.3545ZM561.771 88.3813C562.048 88.3813 562.339 88.326 562.643 88.2153C562.947 88.0991 563.147 87.9801 563.241 87.8584V85.6006C562.925 85.6006 562.568 85.6366 562.17 85.7085C561.777 85.7749 561.484 85.8524 561.29 85.9409C561.041 86.035 560.842 86.1623 560.692 86.3228C560.543 86.4832 560.468 86.7212 560.468 87.0366C560.468 87.4793 560.587 87.8141 560.825 88.041C561.069 88.2679 561.384 88.3813 561.771 88.3813ZM568.86 82.3301H567.723V80.9272C568.088 80.8221 568.351 80.7419 568.512 80.6865C568.678 80.6257 568.824 80.5454 568.952 80.4458C569.079 80.3407 569.179 80.2023 569.25 80.0308C569.367 79.7541 569.574 79.2035 569.873 78.3789H571.45V80.5371H574.015V82.3301H571.45V86.1318C571.45 86.7627 571.483 87.222 571.55 87.5098C571.616 87.7975 571.721 87.9829 571.865 88.0659C572.009 88.1434 572.23 88.1821 572.529 88.1821C572.762 88.1821 573.027 88.1434 573.326 88.0659C573.631 87.9829 573.855 87.8888 573.999 87.7837L574.314 89.2363C574.054 89.4688 573.664 89.6763 573.144 89.8589C572.629 90.0415 572.073 90.1328 571.475 90.1328C570.839 90.1328 570.33 90.036 569.948 89.8423C569.571 89.6431 569.295 89.3304 569.118 88.9043C568.946 88.4727 568.86 87.8999 568.86 87.186V82.3301ZM578.73 80.5371V90H576.14V80.5371H578.73ZM575.825 77.7397C575.825 77.4631 575.902 77.2057 576.057 76.9678C576.212 76.7298 576.417 76.5417 576.671 76.4033C576.926 76.2594 577.194 76.1875 577.477 76.1875C577.93 76.1875 578.293 76.3203 578.564 76.5859C578.835 76.846 578.971 77.1836 578.971 77.5986C578.971 77.8753 578.893 78.1354 578.738 78.3789C578.589 78.6169 578.387 78.8078 578.132 78.9517C577.883 79.09 577.615 79.1592 577.327 79.1592C577.045 79.1592 576.79 79.0983 576.563 78.9766C576.337 78.8548 576.157 78.686 576.024 78.4702C575.891 78.2544 575.825 78.0109 575.825 77.7397ZM580.971 85.1772C580.971 84.1646 581.17 83.3013 581.569 82.5874C581.967 81.868 582.521 81.3257 583.229 80.9604C583.937 80.5897 584.751 80.4043 585.669 80.4043C586.715 80.4043 587.576 80.6257 588.251 81.0684C588.926 81.5055 589.416 82.0949 589.72 82.8364C590.03 83.5724 590.185 84.4053 590.185 85.335C590.185 86.3532 589.986 87.222 589.587 87.9414C589.189 88.6608 588.636 89.2059 587.927 89.5767C587.219 89.9474 586.408 90.1328 585.495 90.1328C584.444 90.1328 583.58 89.9115 582.905 89.4688C582.23 89.026 581.738 88.4339 581.428 87.6924C581.123 86.9453 580.971 86.1069 580.971 85.1772ZM587.504 85.3433C587.504 84.4578 587.346 83.7218 587.031 83.1353C586.715 82.5431 586.237 82.2471 585.595 82.2471C584.3 82.2471 583.652 83.21 583.652 85.1357C583.652 85.7168 583.719 86.248 583.852 86.7295C583.99 87.2054 584.203 87.5872 584.491 87.875C584.784 88.1628 585.149 88.3066 585.586 88.3066C586.865 88.3066 587.504 87.3188 587.504 85.3433ZM594.775 80.5371L594.825 81.5498C595.207 81.262 595.683 80.9992 596.253 80.7612C596.823 80.5233 597.374 80.396 597.905 80.3794C598.585 80.3573 599.142 80.4652 599.573 80.7031C600.005 80.9355 600.326 81.3257 600.536 81.8735C600.752 82.4159 600.86 83.1463 600.86 84.0649V90H598.27V84.6211C598.27 84.0843 598.229 83.6693 598.146 83.376C598.062 83.0771 597.921 82.8641 597.722 82.7368C597.523 82.6095 597.241 82.5514 596.875 82.5625C596.599 82.568 596.286 82.6317 595.938 82.7534C595.589 82.8752 595.282 83.0522 595.016 83.2847V90H592.426V80.5371H594.775Z" fill="black"/>
</g>
<defs>
<clipPath id="clip0">
<rect width="794.122" height="505.345" fill="white"/>
</clipPath>
<clipPath id="clip1">
<rect width="497" height="301" fill="white" transform="translate(225 103)"/>
</clipPath>
</defs>
</svg>
