<svg width="795" height="506" viewBox="0 0 795 506" fill="none" xmlns="http://www.w3.org/2000/svg">
<g clip-path="url(#clip0)">
<path d="M44.5188 503.871C32.2679 502.863 21.4518 494 15.3008 483.357C13.238 479.788 11.8247 475.107 14.1606 471.71C14.8292 470.738 15.7533 469.969 16.8309 469.488C17.9085 469.008 19.0979 468.834 20.2679 468.986C21.438 469.138 22.5434 469.61 23.4623 470.351C24.3811 471.091 25.0778 472.07 25.4756 473.181C24.7232 469.012 24.3999 464.776 24.5108 460.54C24.6049 456.954 25.2825 452.9 28.2643 450.906C31.7236 448.592 36.7098 450.429 39.226 453.744C41.7422 457.059 42.425 461.37 43.0289 465.488C42.5358 463.745 42.4877 461.907 42.889 460.14C43.2903 458.374 44.1281 456.737 45.3258 455.378C46.5234 454.02 48.0427 452.983 49.7446 452.363C51.4465 451.743 53.2766 451.56 55.0675 451.831C60.1342 452.596 64.1033 456.983 65.6521 461.867C67.2008 466.752 66.7173 472.048 65.7205 477.074C64.5516 482.968 62.6547 488.815 59.2395 493.758C55.8243 498.702 50.7515 502.687 44.866 503.897L44.5188 503.871Z" fill="#F2F2F2"/>
<path d="M794.122 106C794.122 127.984 787.289 149.424 774.569 167.354C761.849 185.284 743.871 198.817 723.122 206.08C722.462 206.31 721.792 206.54 721.122 206.75V99.04H582.352C582.392 98.37 582.442 97.7 582.502 97.04H721.122V76C721.121 74.6741 720.594 73.4026 719.657 72.4651C718.719 71.5275 717.448 71.0005 716.122 71H588.042C588.272 70.33 588.512 69.66 588.772 69C597.449 45.7103 614.032 26.2096 635.626 13.9047C657.22 1.59972 682.45 -2.72714 706.91 1.68C731.369 6.08714 753.503 18.9481 769.444 38.016C785.385 57.0839 794.119 81.1465 794.122 106Z" fill="#F2F2F2"/>
<path d="M716.122 69H229.122C227.266 69.0021 225.487 69.7402 224.174 71.0525C222.862 72.3648 222.124 74.1441 222.122 76V406C222.124 407.856 222.862 409.635 224.174 410.947C225.487 412.26 227.266 412.998 229.122 413H716.122C717.978 412.998 719.757 412.26 721.069 410.947C722.382 409.635 723.12 407.856 723.122 406V76C723.12 74.1441 722.382 72.3648 721.069 71.0525C719.757 69.7402 717.978 69.0021 716.122 69ZM721.122 406C721.121 407.326 720.594 408.597 719.657 409.535C718.719 410.473 717.448 411 716.122 411H229.122C227.796 411 226.524 410.473 225.587 409.535C224.649 408.597 224.122 407.326 224.122 406V76C224.122 74.6741 224.649 73.4026 225.587 72.4651C226.524 71.5275 227.796 71.0005 229.122 71H716.122C717.448 71.0005 718.719 71.5275 719.657 72.4651C720.594 73.4026 721.121 74.6741 721.122 76V406Z" fill="#3F3D56"/>
<path d="M722.122 97.04H223.122V99.04H722.122V97.04Z" fill="#3F3D56"/>
<path d="M240.122 90C243.436 90 246.122 87.3137 246.122 84C246.122 80.6863 243.436 78 240.122 78C236.808 78 234.122 80.6863 234.122 84C234.122 87.3137 236.808 90 240.122 90Z" fill="#3F3D56"/>
<path d="M257.372 90C260.686 90 263.372 87.3137 263.372 84C263.372 80.6863 260.686 78 257.372 78C254.058 78 251.372 80.6863 251.372 84C251.372 87.3137 254.058 90 257.372 90Z" fill="#3F3D56"/>
<path d="M274.622 90C277.936 90 280.622 87.3137 280.622 84C280.622 80.6863 277.936 78 274.622 78C271.308 78 268.622 80.6863 268.622 84C268.622 87.3137 271.308 90 274.622 90Z" fill="#3F3D56"/>
<path d="M202.746 492.088L214.466 488.491L206.17 441.573L188.872 446.881L202.746 492.088Z" fill="#A0616A"/>
<path d="M240.41 492.438L203.574 503.742L199.207 489.51L221.81 482.573C223.679 482 225.643 481.8 227.589 481.985C229.535 482.171 231.426 482.737 233.153 483.653C234.88 484.569 236.41 485.817 237.655 487.324C238.9 488.831 239.836 490.569 240.41 492.438Z" fill="#2F2E41"/>
<path d="M102.748 492.358L115.008 492.357L120.84 445.069L102.746 445.07L102.748 492.358Z" fill="#A0616A"/>
<path d="M138.652 503.74L100.121 503.742L100.121 488.855L123.764 488.854C125.719 488.854 127.655 489.239 129.461 489.987C131.268 490.735 132.909 491.832 134.291 493.214C135.674 494.596 136.77 496.237 137.519 498.043C138.267 499.849 138.652 501.785 138.652 503.74L138.652 503.74Z" fill="#2F2E41"/>
<path d="M101.868 355.28C100.861 354.398 100.06 353.304 99.5207 352.078C98.9816 350.852 98.7179 349.523 98.7483 348.183C98.7786 346.844 99.1022 345.528 99.6962 344.328C100.29 343.127 101.14 342.071 102.186 341.235L111.692 221.54L131.023 226.37L115.545 343.129C116.834 344.979 117.399 347.238 117.133 349.478C116.868 351.717 115.79 353.781 114.104 355.279C112.418 356.777 110.242 357.605 107.986 357.605C105.731 357.605 103.554 356.778 101.868 355.28Z" fill="#A0616A"/>
<path d="M140.579 175.116C154.144 175.116 165.14 164.12 165.14 150.555C165.14 136.991 154.144 125.994 140.579 125.994C127.015 125.994 116.018 136.991 116.018 150.555C116.018 164.12 127.015 175.116 140.579 175.116Z" fill="#A0616A"/>
<path d="M119.223 217.859C113.681 210.25 113.51 199.772 119.48 192.495C123.375 187.745 129.892 183.945 140.772 183.945C169.772 183.945 180.772 206.945 180.772 206.945C180.772 206.945 192.772 228.945 185.772 248.945C178.772 268.945 178.772 270.945 178.772 270.945L132.772 266.945C132.772 266.945 140.532 247.113 119.223 217.859Z" fill="#CCCCCC"/>
<path d="M105.037 237.767L114.947 205.346C115.611 203.175 116.743 201.177 118.264 199.492C119.785 197.807 121.658 196.476 123.75 195.594C125.842 194.712 128.102 194.301 130.37 194.388C132.638 194.476 134.86 195.061 136.877 196.101C140.378 197.914 143.058 200.99 144.374 204.706C145.69 208.422 145.544 212.499 143.965 216.111L131.367 244.802L105.037 237.767Z" fill="#CCCCCC"/>
<path d="M177.772 265.945L216.772 467.945L195.772 473.945L144.772 340.945L121.772 476.945L99.7721 479.945C99.7721 479.945 90.1218 300 132.772 266.945L177.772 265.945Z" fill="#2F2E41"/>
<path d="M233.903 256.477C233.548 256.901 233.226 257.352 232.941 257.827L183.406 260.228L173.867 231.109L157.305 238.98L172.893 282.352L234.155 270.371C235.595 271.942 237.479 273.039 239.557 273.513C241.634 273.988 243.807 273.819 245.787 273.029C247.766 272.239 249.458 270.865 250.637 269.09C251.817 267.314 252.428 265.222 252.389 263.091C252.35 260.96 251.664 258.892 250.421 257.16C249.178 255.429 247.437 254.117 245.431 253.399C243.424 252.681 241.246 252.591 239.187 253.141C237.128 253.691 235.285 254.855 233.903 256.477Z" fill="#A0616A"/>
<path d="M150.375 209.849C150.11 207.595 150.343 205.309 151.058 203.155C151.773 201 152.953 199.029 154.514 197.381C156.074 195.732 157.978 194.447 160.09 193.615C162.203 192.783 164.472 192.425 166.737 192.567C170.671 192.82 174.362 194.559 177.061 197.432C179.76 200.305 181.266 204.097 181.272 208.039V239.374L154.336 243.518L150.375 209.849Z" fill="#CCCCCC"/>
<path d="M145.981 175.339C142.294 175.323 139.45 171.442 139.616 167.759C139.781 164.076 142.254 160.836 145.234 158.666C148.214 156.496 151.709 155.174 155.032 153.579C158.356 151.983 161.65 149.993 163.702 146.931C164.941 144.926 165.681 142.653 165.859 140.303C166.037 137.953 165.648 135.595 164.725 133.426C162.815 129.089 159.537 125.498 155.392 123.202C149.234 119.598 141.944 118.445 134.975 119.974C128.006 121.503 121.868 125.601 117.785 131.452L113.577 142.91C109.289 148.066 108.609 155.724 111.244 161.89C113.88 168.056 119.493 172.696 125.826 174.901C132.251 176.966 139.129 177.172 145.667 175.496" fill="#2F2E41"/>
<path d="M123.534 137.179C121.725 134.279 118.59 132.435 115.348 131.353C111.593 130.1 107.599 129.73 103.677 130.272C99.7559 130.814 96.0123 132.255 92.7384 134.481C89.4645 136.707 86.7485 139.658 84.802 143.105C82.8554 146.553 81.7309 150.403 81.5158 154.356C81.1722 160.67 83.1494 166.845 84.3112 173.061C85.473 179.277 85.7041 186.143 82.2768 191.457C79.6662 195.505 75.3129 198.054 71.0159 200.23C67.4346 202.044 63.5609 203.746 59.5628 203.384C55.5647 203.023 51.5464 199.856 51.6525 195.843C50.314 198.72 49.4103 201.781 48.9708 204.923C48.6896 208.079 49.4674 211.485 51.7469 213.685C55.06 216.884 60.3094 216.65 64.8626 215.96C74.7195 214.466 84.7007 211.664 92.4881 205.439C100.275 199.215 105.443 188.965 103.392 179.208C102.535 175.133 100.522 171.412 98.8952 167.579C97.2684 163.745 95.9983 159.552 96.7456 155.455C97.188 153.344 98.0882 151.356 99.3829 149.631C100.677 147.906 102.335 146.487 104.238 145.473C108.087 143.471 112.491 142.804 116.761 143.574C119.56 144.033 123.055 144.746 124.715 142.446C125.155 141.718 125.38 140.879 125.363 140.029C125.347 139.178 125.089 138.349 124.621 137.638C123.664 136.232 122.444 135.023 121.029 134.078" fill="#2F2E41"/>
<path d="M308.485 505.345H1.1907C1.03405 505.346 0.878838 505.315 0.733978 505.256C0.589119 505.196 0.457459 505.108 0.346527 504.998C0.235596 504.887 0.147578 504.756 0.0875244 504.611C0.0274707 504.466 -0.00344849 504.311 -0.00344849 504.154C-0.00344849 503.998 0.0274707 503.843 0.0875244 503.698C0.147578 503.553 0.235596 503.422 0.346527 503.311C0.457459 503.201 0.589119 503.113 0.733978 503.053C0.878838 502.994 1.03405 502.963 1.1907 502.964H308.485C308.641 502.963 308.797 502.994 308.941 503.053C309.086 503.113 309.218 503.201 309.329 503.311C309.44 503.422 309.528 503.553 309.588 503.698C309.648 503.843 309.679 503.998 309.679 504.154C309.679 504.311 309.648 504.466 309.588 504.611C309.528 504.756 309.44 504.887 309.329 504.998C309.218 505.108 309.086 505.196 308.941 505.256C308.797 505.315 308.641 505.346 308.485 505.345Z" fill="#3F3D56"/>
<path d="M352.605 87.3271H347.965L347.126 90H344.288L348.953 77.2334H351.625L356.332 90H353.452L352.605 87.3271ZM351.999 85.4263L350.629 81.0933L350.272 79.79L349.907 81.0933L348.554 85.4263H351.999ZM360.009 80.5371L360.059 81.5498C360.441 81.262 360.917 80.9992 361.487 80.7612C362.057 80.5233 362.607 80.396 363.139 80.3794C363.819 80.3573 364.375 80.4652 364.807 80.7031C365.239 80.9355 365.56 81.3257 365.77 81.8735C365.986 82.4159 366.094 83.1463 366.094 84.0649V90H363.504V84.6211C363.504 84.0843 363.462 83.6693 363.379 83.376C363.296 83.0771 363.155 82.8641 362.956 82.7368C362.757 82.6095 362.475 82.5514 362.109 82.5625C361.833 82.568 361.52 82.6317 361.171 82.7534C360.823 82.8752 360.516 83.0522 360.25 83.2847V90H357.66V80.5371H360.009ZM377.159 76.2041V90.1328H375.399C375.189 90.1328 375.031 90.0996 374.926 90.0332C374.826 89.9723 374.776 89.8451 374.776 89.6514V89.0122C374.472 89.3221 374.101 89.5877 373.664 89.8091C373.232 90.0249 372.676 90.1328 371.996 90.1328C371.304 90.1328 370.673 89.964 370.103 89.6265C369.533 89.2834 369.076 88.7687 368.733 88.0825C368.396 87.3963 368.227 86.5607 368.227 85.5757C368.227 84.5409 368.426 83.6333 368.825 82.853C369.229 82.0728 369.793 81.4696 370.518 81.0435C371.249 80.6174 372.09 80.4043 373.042 80.4043C373.606 80.4043 374.123 80.4928 374.594 80.6699L374.569 79.8398V76.2041H377.159ZM370.941 85.4263C370.941 86.4002 371.099 87.092 371.415 87.5015C371.736 87.911 372.195 88.1157 372.792 88.1157C373.13 88.1157 373.457 88.0687 373.772 87.9746C374.093 87.8805 374.359 87.7616 374.569 87.6177V82.5127C374.414 82.4076 374.217 82.3384 373.979 82.3052C373.742 82.2664 373.454 82.2471 373.116 82.2471C372.69 82.2471 372.314 82.366 371.987 82.604C371.661 82.842 371.403 83.1989 371.215 83.6748C371.033 84.1507 370.941 84.7345 370.941 85.4263ZM384.97 80.3794C385.329 80.3794 385.576 80.4181 385.708 80.4956V82.9941C385.581 82.9222 385.435 82.8669 385.269 82.8281C385.108 82.7839 384.876 82.7617 384.571 82.7617C383.774 82.7617 383.072 83.0467 382.463 83.6167V90H379.873V80.5371H382.172L382.289 81.832C382.427 81.5885 382.632 81.3561 382.903 81.1348C383.18 80.9134 383.498 80.7336 383.857 80.5952C384.223 80.4513 384.593 80.3794 384.97 80.3794ZM387.045 85.1772C387.045 84.1646 387.244 83.3013 387.643 82.5874C388.041 81.868 388.594 81.3257 389.303 80.9604C390.011 80.5897 390.825 80.4043 391.743 80.4043C392.789 80.4043 393.65 80.6257 394.325 81.0684C395 81.5055 395.49 82.0949 395.794 82.8364C396.104 83.5724 396.259 84.4053 396.259 85.335C396.259 86.3532 396.06 87.222 395.661 87.9414C395.263 88.6608 394.709 89.2059 394.001 89.5767C393.293 89.9474 392.482 90.1328 391.569 90.1328C390.517 90.1328 389.654 89.9115 388.979 89.4688C388.304 89.026 387.811 88.4339 387.501 87.6924C387.197 86.9453 387.045 86.1069 387.045 85.1772ZM393.578 85.3433C393.578 84.4578 393.42 83.7218 393.104 83.1353C392.789 82.5431 392.31 82.2471 391.668 82.2471C390.374 82.2471 389.726 83.21 389.726 85.1357C389.726 85.7168 389.792 86.248 389.925 86.7295C390.064 87.2054 390.277 87.5872 390.564 87.875C390.858 88.1628 391.223 88.3066 391.66 88.3066C392.938 88.3066 393.578 87.3188 393.578 85.3433ZM401.09 80.5371V90H398.5V80.5371H401.09ZM398.185 77.7397C398.185 77.4631 398.262 77.2057 398.417 76.9678C398.572 76.7298 398.777 76.5417 399.031 76.4033C399.286 76.2594 399.554 76.1875 399.836 76.1875C400.29 76.1875 400.653 76.3203 400.924 76.5859C401.195 76.846 401.331 77.1836 401.331 77.5986C401.331 77.8753 401.253 78.1354 401.098 78.3789C400.949 78.6169 400.747 78.8078 400.492 78.9517C400.243 79.09 399.975 79.1592 399.687 79.1592C399.405 79.1592 399.15 79.0983 398.923 78.9766C398.696 78.8548 398.517 78.686 398.384 78.4702C398.251 78.2544 398.185 78.0109 398.185 77.7397ZM412.254 76.2041V90.1328H410.495C410.284 90.1328 410.127 90.0996 410.021 90.0332C409.922 89.9723 409.872 89.8451 409.872 89.6514V89.0122C409.568 89.3221 409.197 89.5877 408.76 89.8091C408.328 90.0249 407.772 90.1328 407.091 90.1328C406.4 90.1328 405.769 89.964 405.199 89.6265C404.629 89.2834 404.172 88.7687 403.829 88.0825C403.492 87.3963 403.323 86.5607 403.323 85.5757C403.323 84.5409 403.522 83.6333 403.92 82.853C404.324 82.0728 404.889 81.4696 405.614 81.0435C406.344 80.6174 407.185 80.4043 408.137 80.4043C408.702 80.4043 409.219 80.4928 409.689 80.6699L409.665 79.8398V76.2041H412.254ZM406.037 85.4263C406.037 86.4002 406.195 87.092 406.51 87.5015C406.831 87.911 407.291 88.1157 407.888 88.1157C408.226 88.1157 408.552 88.0687 408.868 87.9746C409.189 87.8805 409.454 87.7616 409.665 87.6177V82.5127C409.51 82.4076 409.313 82.3384 409.075 82.3052C408.837 82.2664 408.549 82.2471 408.212 82.2471C407.786 82.2471 407.41 82.366 407.083 82.604C406.757 82.842 406.499 83.1989 406.311 83.6748C406.128 84.1507 406.037 84.7345 406.037 85.4263ZM427.412 87.3271H422.771L421.933 90H419.094L423.759 77.2334H426.432L431.139 90H428.258L427.412 87.3271ZM426.806 85.4263L425.436 81.0933L425.079 79.79L424.714 81.0933L423.361 85.4263H426.806ZM437.588 80.4043C438.28 80.4043 438.911 80.5731 439.481 80.9106C440.051 81.2427 440.505 81.749 440.842 82.4297C441.185 83.1048 441.357 83.9349 441.357 84.9199C441.357 85.9548 441.155 86.8678 440.751 87.6592C440.353 88.445 439.788 89.0537 439.058 89.4854C438.333 89.917 437.494 90.1328 436.542 90.1328C435.978 90.1328 435.455 90.0443 434.974 89.8672L435.007 91.1538V94.2002H432.417V80.5371H434.833V81.5C435.137 81.1956 435.505 80.9383 435.937 80.728C436.368 80.5122 436.919 80.4043 437.588 80.4043ZM438.643 85.061C438.643 84.0594 438.485 83.3566 438.169 82.9526C437.854 82.5431 437.395 82.3384 436.792 82.3384C436.448 82.3384 436.116 82.3937 435.795 82.5044C435.48 82.6151 435.217 82.7562 435.007 82.9277V87.9331C435.167 88.077 435.369 88.1766 435.613 88.2319C435.862 88.2873 436.147 88.3149 436.468 88.3149C436.888 88.3149 437.262 88.1877 437.588 87.9331C437.915 87.6785 438.172 87.305 438.36 86.8125C438.549 86.32 438.643 85.7362 438.643 85.061ZM448.711 80.4043C449.403 80.4043 450.034 80.5731 450.604 80.9106C451.174 81.2427 451.628 81.749 451.965 82.4297C452.308 83.1048 452.48 83.9349 452.48 84.9199C452.48 85.9548 452.278 86.8678 451.874 87.6592C451.476 88.445 450.911 89.0537 450.181 89.4854C449.456 89.917 448.617 90.1328 447.666 90.1328C447.101 90.1328 446.578 90.0443 446.097 89.8672L446.13 91.1538V94.2002H443.54V80.5371H445.956V81.5C446.26 81.1956 446.628 80.9383 447.06 80.728C447.491 80.5122 448.042 80.4043 448.711 80.4043ZM449.766 85.061C449.766 84.0594 449.608 83.3566 449.292 82.9526C448.977 82.5431 448.518 82.3384 447.915 82.3384C447.571 82.3384 447.239 82.3937 446.918 82.5044C446.603 82.6151 446.34 82.7562 446.13 82.9277V87.9331C446.29 88.077 446.492 88.1766 446.736 88.2319C446.985 88.2873 447.27 88.3149 447.591 88.3149C448.011 88.3149 448.385 88.1877 448.711 87.9331C449.038 87.6785 449.295 87.305 449.483 86.8125C449.672 86.32 449.766 85.7362 449.766 85.061ZM457.353 76.2041V90H454.763V76.2041H457.353ZM462.881 80.5371V90H460.291V80.5371H462.881ZM459.976 77.7397C459.976 77.4631 460.053 77.2057 460.208 76.9678C460.363 76.7298 460.568 76.5417 460.822 76.4033C461.077 76.2594 461.345 76.1875 461.627 76.1875C462.081 76.1875 462.444 76.3203 462.715 76.5859C462.986 76.846 463.122 77.1836 463.122 77.5986C463.122 77.8753 463.044 78.1354 462.889 78.3789C462.74 78.6169 462.538 78.8078 462.283 78.9517C462.034 79.09 461.766 79.1592 461.478 79.1592C461.196 79.1592 460.941 79.0983 460.714 78.9766C460.487 78.8548 460.308 78.686 460.175 78.4702C460.042 78.2544 459.976 78.0109 459.976 77.7397ZM469.837 80.4043C470.396 80.4043 470.902 80.4541 471.356 80.5537C471.81 80.6478 472.122 80.7585 472.294 80.8857L471.97 82.8862C471.732 82.759 471.467 82.6676 471.173 82.6123C470.886 82.5514 470.529 82.521 470.103 82.521C469.704 82.521 469.325 82.6068 468.965 82.7783C468.606 82.9443 468.307 83.2183 468.069 83.6001C467.831 83.9764 467.704 84.4634 467.687 85.061C467.67 85.7196 467.759 86.2729 467.953 86.7212C468.146 87.1694 468.42 87.5042 468.774 87.7256C469.134 87.9414 469.544 88.0493 470.003 88.0493C470.418 88.0493 470.814 88.0133 471.19 87.9414C471.572 87.8639 471.862 87.7699 472.062 87.6592L472.435 89.1948C472.142 89.4771 471.732 89.7039 471.207 89.8755C470.681 90.047 470.122 90.1328 469.53 90.1328C468.578 90.1328 467.77 89.9308 467.106 89.5269C466.442 89.1174 465.944 88.5557 465.612 87.8418C465.28 87.1224 465.114 86.3034 465.114 85.3848C465.114 84.4329 465.288 83.5807 465.637 82.8281C465.985 82.0755 466.514 81.4834 467.222 81.0518C467.931 80.6201 468.802 80.4043 469.837 80.4043ZM478.063 80.3545C478.982 80.3545 479.715 80.4569 480.263 80.6616C480.816 80.8608 481.228 81.2122 481.5 81.7158C481.771 82.2139 481.906 82.9139 481.906 83.8159V90.1328H480.396C480.146 90.1328 479.958 90.1162 479.831 90.083C479.704 90.0498 479.604 89.9723 479.532 89.8506C479.46 89.7288 479.424 89.5352 479.424 89.2695V89.2031C479.137 89.4688 478.782 89.6901 478.362 89.8672C477.941 90.0443 477.474 90.1328 476.959 90.1328C476.35 90.1328 475.811 90.0028 475.34 89.7427C474.875 89.4771 474.513 89.1118 474.253 88.647C473.998 88.1766 473.871 87.6453 473.871 87.0532C473.871 86.4998 474.012 86.0267 474.294 85.6338C474.582 85.2409 474.992 84.9255 475.523 84.6875C476.347 84.3223 477.612 84.1396 479.316 84.1396V83.542C479.316 83.1878 479.269 82.9277 479.175 82.7617C479.087 82.5957 478.912 82.4823 478.652 82.4214C478.398 82.3605 477.994 82.3301 477.44 82.3301C477.175 82.3301 476.771 82.3993 476.229 82.5376C475.686 82.6704 475.221 82.8254 474.834 83.0024L474.261 81.3423C474.483 81.2095 474.804 81.0656 475.224 80.9106C475.645 80.7557 476.107 80.6257 476.61 80.5205C477.114 80.4098 477.598 80.3545 478.063 80.3545ZM477.847 88.3813C478.124 88.3813 478.414 88.326 478.719 88.2153C479.023 88.0991 479.222 87.9801 479.316 87.8584V85.6006C479.001 85.6006 478.644 85.6366 478.246 85.7085C477.853 85.7749 477.559 85.8524 477.366 85.9409C477.117 86.035 476.917 86.1623 476.768 86.3228C476.619 86.4832 476.544 86.7212 476.544 87.0366C476.544 87.4793 476.663 87.8141 476.901 88.041C477.144 88.2679 477.46 88.3813 477.847 88.3813ZM484.936 82.3301H483.799V80.9272C484.164 80.8221 484.427 80.7419 484.587 80.6865C484.753 80.6257 484.9 80.5454 485.027 80.4458C485.155 80.3407 485.254 80.2023 485.326 80.0308C485.442 79.7541 485.65 79.2035 485.949 78.3789H487.526V80.5371H490.091V82.3301H487.526V86.1318C487.526 86.7627 487.559 87.222 487.625 87.5098C487.692 87.7975 487.797 87.9829 487.941 88.0659C488.085 88.1434 488.306 88.1821 488.605 88.1821C488.837 88.1821 489.103 88.1434 489.402 88.0659C489.706 87.9829 489.93 87.8888 490.074 87.7837L490.39 89.2363C490.13 89.4688 489.739 89.6763 489.219 89.8589C488.705 90.0415 488.148 90.1328 487.551 90.1328C486.914 90.1328 486.405 90.036 486.023 89.8423C485.647 89.6431 485.37 89.3304 485.193 88.9043C485.022 88.4727 484.936 87.8999 484.936 87.186V82.3301ZM494.806 80.5371V90H492.216V80.5371H494.806ZM491.9 77.7397C491.9 77.4631 491.978 77.2057 492.133 76.9678C492.288 76.7298 492.493 76.5417 492.747 76.4033C493.002 76.2594 493.27 76.1875 493.552 76.1875C494.006 76.1875 494.368 76.3203 494.64 76.5859C494.911 76.846 495.046 77.1836 495.046 77.5986C495.046 77.8753 494.969 78.1354 494.814 78.3789C494.665 78.6169 494.463 78.8078 494.208 78.9517C493.959 79.09 493.691 79.1592 493.403 79.1592C493.121 79.1592 492.866 79.0983 492.639 78.9766C492.412 78.8548 492.232 78.686 492.1 78.4702C491.967 78.2544 491.9 78.0109 491.9 77.7397ZM497.047 85.1772C497.047 84.1646 497.246 83.3013 497.645 82.5874C498.043 81.868 498.596 81.3257 499.305 80.9604C500.013 80.5897 500.826 80.4043 501.745 80.4043C502.791 80.4043 503.652 80.6257 504.327 81.0684C505.002 81.5055 505.492 82.0949 505.796 82.8364C506.106 83.5724 506.261 84.4053 506.261 85.335C506.261 86.3532 506.062 87.222 505.663 87.9414C505.265 88.6608 504.711 89.2059 504.003 89.5767C503.295 89.9474 502.484 90.1328 501.571 90.1328C500.519 90.1328 499.656 89.9115 498.981 89.4688C498.306 89.026 497.813 88.4339 497.503 87.6924C497.199 86.9453 497.047 86.1069 497.047 85.1772ZM503.58 85.3433C503.58 84.4578 503.422 83.7218 503.106 83.1353C502.791 82.5431 502.312 82.2471 501.67 82.2471C500.375 82.2471 499.728 83.21 499.728 85.1357C499.728 85.7168 499.794 86.248 499.927 86.7295C500.066 87.2054 500.279 87.5872 500.566 87.875C500.86 88.1628 501.225 88.3066 501.662 88.3066C502.94 88.3066 503.58 87.3188 503.58 85.3433ZM510.851 80.5371L510.901 81.5498C511.283 81.262 511.759 80.9992 512.329 80.7612C512.899 80.5233 513.449 80.396 513.98 80.3794C514.661 80.3573 515.217 80.4652 515.649 80.7031C516.081 80.9355 516.402 81.3257 516.612 81.8735C516.828 82.4159 516.936 83.1463 516.936 84.0649V90H514.346V84.6211C514.346 84.0843 514.304 83.6693 514.221 83.376C514.138 83.0771 513.997 82.8641 513.798 82.7368C513.599 82.6095 513.316 82.5514 512.951 82.5625C512.674 82.568 512.362 82.6317 512.013 82.7534C511.665 82.8752 511.357 83.0522 511.092 83.2847V90H508.502V80.5371H510.851ZM526.656 77.3662C526.833 77.3662 527.187 77.3496 527.718 77.3164C528.46 77.2611 529.127 77.2334 529.719 77.2334C531.794 77.2334 533.343 77.7591 534.367 78.8105C535.396 79.862 535.911 81.3755 535.911 83.3511C535.911 84.7622 535.654 85.9769 535.139 86.9951C534.625 88.0133 533.891 88.7909 532.939 89.3276C531.993 89.8644 530.878 90.1328 529.594 90.1328C529.196 90.1328 528.604 90.1079 527.818 90.0581C527.336 90.0194 526.957 90 526.681 90H525.402V77.3662H526.656ZM529.76 88.1074C530.812 88.0964 531.633 87.7284 532.226 87.0034C532.823 86.2729 533.122 85.1496 533.122 83.6333C533.122 82.5487 532.989 81.6854 532.724 81.0435C532.464 80.396 532.068 79.9312 531.537 79.6489C531.005 79.3667 530.316 79.2256 529.47 79.2256C529.176 79.2256 528.819 79.2533 528.399 79.3086L528.067 79.3418V87.958C528.443 88.0576 529.008 88.1074 529.76 88.1074ZM545.814 84.1147C545.814 84.9116 545.784 85.5037 545.723 85.8911H540.128C540.178 86.6714 540.421 87.2524 540.858 87.6343C541.301 88.0161 541.899 88.207 542.651 88.207C543.011 88.207 543.445 88.16 543.955 88.0659C544.469 87.9663 544.846 87.8501 545.083 87.7173L545.507 89.1865C545.18 89.4521 544.691 89.6763 544.038 89.8589C543.385 90.0415 542.704 90.1328 541.996 90.1328C541.044 90.1328 540.233 89.9391 539.563 89.5518C538.894 89.1644 538.388 88.6055 538.044 87.875C537.701 87.139 537.53 86.2591 537.53 85.2354C537.53 84.3057 537.71 83.4756 538.069 82.7451C538.429 82.0146 538.952 81.4419 539.638 81.0269C540.33 80.6118 541.152 80.4043 542.104 80.4043C542.79 80.4043 543.41 80.5288 543.963 80.7778C544.516 81.0269 544.959 81.4281 545.291 81.9814C545.629 82.5348 545.803 83.2459 545.814 84.1147ZM543.407 84.4551C543.412 84.3721 543.415 84.2503 543.415 84.0898C543.415 83.4867 543.302 83.0301 543.075 82.7202C542.848 82.4048 542.48 82.2471 541.971 82.2471C541.462 82.2471 541.055 82.4159 540.75 82.7534C540.452 83.0854 540.258 83.6527 540.169 84.4551H543.407ZM556.364 80.5371L552.753 90.1328H550.354L546.76 80.5371H549.558L551.002 85.1855L551.608 87.4932L552.181 85.1855L553.625 80.5371H556.364ZM565.586 84.1147C565.586 84.9116 565.556 85.5037 565.495 85.8911H559.9C559.95 86.6714 560.194 87.2524 560.631 87.6343C561.074 88.0161 561.671 88.207 562.424 88.207C562.784 88.207 563.218 88.16 563.727 88.0659C564.242 87.9663 564.618 87.8501 564.856 87.7173L565.279 89.1865C564.953 89.4521 564.463 89.6763 563.81 89.8589C563.157 90.0415 562.476 90.1328 561.768 90.1328C560.816 90.1328 560.006 89.9391 559.336 89.5518C558.666 89.1644 558.16 88.6055 557.817 87.875C557.474 87.139 557.302 86.2591 557.302 85.2354C557.302 84.3057 557.482 83.4756 557.842 82.7451C558.201 82.0146 558.724 81.4419 559.411 81.0269C560.102 80.6118 560.924 80.4043 561.876 80.4043C562.562 80.4043 563.182 80.5288 563.735 80.7778C564.289 81.0269 564.731 81.4281 565.063 81.9814C565.401 82.5348 565.575 83.2459 565.586 84.1147ZM563.179 84.4551C563.185 84.3721 563.188 84.2503 563.188 84.0898C563.188 83.4867 563.074 83.0301 562.847 82.7202C562.62 82.4048 562.252 82.2471 561.743 82.2471C561.234 82.2471 560.827 82.4159 560.523 82.7534C560.224 83.0854 560.03 83.6527 559.942 84.4551H563.179ZM570.476 76.2041V90H567.886V76.2041H570.476ZM572.767 85.1772C572.767 84.1646 572.966 83.3013 573.364 82.5874C573.763 81.868 574.316 81.3257 575.024 80.9604C575.733 80.5897 576.546 80.4043 577.465 80.4043C578.511 80.4043 579.371 80.6257 580.046 81.0684C580.722 81.5055 581.211 82.0949 581.516 82.8364C581.826 83.5724 581.98 84.4053 581.98 85.335C581.98 86.3532 581.781 87.222 581.383 87.9414C580.984 88.6608 580.431 89.2059 579.723 89.5767C579.014 89.9474 578.204 90.1328 577.291 90.1328C576.239 90.1328 575.376 89.9115 574.701 89.4688C574.026 89.026 573.533 88.4339 573.223 87.6924C572.919 86.9453 572.767 86.1069 572.767 85.1772ZM579.299 85.3433C579.299 84.4578 579.142 83.7218 578.826 83.1353C578.511 82.5431 578.032 82.2471 577.39 82.2471C576.095 82.2471 575.448 83.21 575.448 85.1357C575.448 85.7168 575.514 86.248 575.647 86.7295C575.785 87.2054 575.998 87.5872 576.286 87.875C576.579 88.1628 576.945 88.3066 577.382 88.3066C578.66 88.3066 579.299 87.3188 579.299 85.3433ZM589.343 80.4043C590.035 80.4043 590.666 80.5731 591.236 80.9106C591.806 81.2427 592.26 81.749 592.597 82.4297C592.94 83.1048 593.112 83.9349 593.112 84.9199C593.112 85.9548 592.91 86.8678 592.506 87.6592C592.107 88.445 591.543 89.0537 590.812 89.4854C590.088 89.917 589.249 90.1328 588.297 90.1328C587.733 90.1328 587.21 90.0443 586.729 89.8672L586.762 91.1538V94.2002H584.172V80.5371H586.587V81.5C586.892 81.1956 587.26 80.9383 587.691 80.728C588.123 80.5122 588.674 80.4043 589.343 80.4043ZM590.397 85.061C590.397 84.0594 590.24 83.3566 589.924 82.9526C589.609 82.5431 589.15 82.3384 588.546 82.3384C588.203 82.3384 587.871 82.3937 587.55 82.5044C587.235 82.6151 586.972 82.7562 586.762 82.9277V87.9331C586.922 88.077 587.124 88.1766 587.368 88.2319C587.617 88.2873 587.902 88.3149 588.223 88.3149C588.643 88.3149 589.017 88.1877 589.343 87.9331C589.67 87.6785 589.927 87.305 590.115 86.8125C590.303 86.32 590.397 85.7362 590.397 85.061ZM606.518 80.3711C607.182 80.3711 607.735 80.4901 608.178 80.728C608.626 80.966 608.966 81.3561 609.199 81.8984C609.431 82.4352 609.547 83.1519 609.547 84.0483V90H606.958V84.6128C606.958 84.0871 606.922 83.6803 606.85 83.3926C606.778 83.0993 606.648 82.889 606.459 82.7617C606.277 82.6289 606.008 82.5625 605.654 82.5625C605.333 82.5625 604.993 82.6289 604.633 82.7617C604.279 82.8945 603.978 83.0605 603.729 83.2598C603.751 83.5033 603.762 83.7938 603.762 84.1313V90H601.172V84.6211C601.172 84.1009 601.133 83.6942 601.056 83.4009C600.984 83.1076 600.854 82.8945 600.666 82.7617C600.483 82.6289 600.22 82.5625 599.877 82.5625C599.606 82.5625 599.282 82.6234 598.906 82.7451C598.529 82.8669 598.206 83.0467 597.935 83.2847V90H595.345V80.5371H597.694L597.744 81.5498C598.125 81.262 598.601 80.9992 599.171 80.7612C599.741 80.5177 600.292 80.3877 600.823 80.3711C601.41 80.349 601.905 80.432 602.309 80.6201C602.713 80.8027 603.031 81.1016 603.264 81.5166C603.634 81.2288 604.116 80.966 604.708 80.728C605.3 80.4901 605.903 80.3711 606.518 80.3711ZM619.973 84.1147C619.973 84.9116 619.943 85.5037 619.882 85.8911H614.287C614.337 86.6714 614.58 87.2524 615.018 87.6343C615.46 88.0161 616.058 88.207 616.811 88.207C617.17 88.207 617.605 88.16 618.114 88.0659C618.628 87.9663 619.005 87.8501 619.243 87.7173L619.666 89.1865C619.34 89.4521 618.85 89.6763 618.197 89.8589C617.544 90.0415 616.863 90.1328 616.155 90.1328C615.203 90.1328 614.392 89.9391 613.723 89.5518C613.053 89.1644 612.547 88.6055 612.204 87.875C611.861 87.139 611.689 86.2591 611.689 85.2354C611.689 84.3057 611.869 83.4756 612.229 82.7451C612.588 82.0146 613.111 81.4419 613.797 81.0269C614.489 80.6118 615.311 80.4043 616.263 80.4043C616.949 80.4043 617.569 80.5288 618.122 80.7778C618.675 81.0269 619.118 81.4281 619.45 81.9814C619.788 82.5348 619.962 83.2459 619.973 84.1147ZM617.566 84.4551C617.571 84.3721 617.574 84.2503 617.574 84.0898C617.574 83.4867 617.461 83.0301 617.234 82.7202C617.007 82.4048 616.639 82.2471 616.13 82.2471C615.621 82.2471 615.214 82.4159 614.91 82.7534C614.611 83.0854 614.417 83.6527 614.329 84.4551H617.566ZM624.572 80.5371L624.622 81.5498C625.003 81.262 625.479 80.9992 626.049 80.7612C626.619 80.5233 627.17 80.396 627.701 80.3794C628.382 80.3573 628.938 80.4652 629.37 80.7031C629.801 80.9355 630.122 81.3257 630.333 81.8735C630.548 82.4159 630.656 83.1463 630.656 84.0649V90H628.066V84.6211C628.066 84.0843 628.025 83.6693 627.942 83.376C627.859 83.0771 627.718 82.8641 627.519 82.7368C627.319 82.6095 627.037 82.5514 626.672 82.5625C626.395 82.568 626.083 82.6317 625.734 82.7534C625.385 82.8752 625.078 83.0522 624.812 83.2847V90H622.223V80.5371H624.572ZM633.752 82.3301H632.615V80.9272C632.98 80.8221 633.243 80.7419 633.404 80.6865C633.57 80.6257 633.716 80.5454 633.844 80.4458C633.971 80.3407 634.071 80.2023 634.143 80.0308C634.259 79.7541 634.466 79.2035 634.765 78.3789H636.342V80.5371H638.907V82.3301H636.342V86.1318C636.342 86.7627 636.375 87.222 636.442 87.5098C636.508 87.7975 636.613 87.9829 636.757 88.0659C636.901 88.1434 637.123 88.1821 637.421 88.1821C637.654 88.1821 637.919 88.1434 638.218 88.0659C638.523 87.9829 638.747 87.8888 638.891 87.7837L639.206 89.2363C638.946 89.4688 638.556 89.6763 638.036 89.8589C637.521 90.0415 636.965 90.1328 636.367 90.1328C635.731 90.1328 635.222 90.036 634.84 89.8423C634.464 89.6431 634.187 89.3304 634.01 88.9043C633.838 88.4727 633.752 87.8999 633.752 87.186V82.3301Z" fill="black"/>
<g clip-path="url(#clip1)">
<path opacity="0.1" d="M227.347 265.848C235.179 293.952 251.76 318.245 277.966 330.021C332.424 354.493 455.242 341.872 546.906 327.37C593.224 320.066 635.266 299.89 666.264 270.09L227.347 265.848Z" fill="#00B0FF"/>
<path opacity="0.1" d="M708.021 133.57H657.727C656.574 133.57 655.469 133.185 654.653 132.501C653.838 131.817 653.38 130.888 653.38 129.921C653.38 128.953 653.838 128.024 654.653 127.34C655.469 126.656 656.574 126.271 657.727 126.271H666.422C665.269 126.271 664.163 125.887 663.348 125.202C662.532 124.518 662.074 123.59 662.074 122.622C662.074 121.654 662.532 120.726 663.348 120.041C664.163 119.357 665.269 118.972 666.422 118.972H660.213C659.06 118.972 657.955 118.588 657.139 117.904C656.324 117.219 655.866 116.291 655.866 115.323C655.866 114.355 656.324 113.427 657.139 112.743C657.955 112.058 659.06 111.674 660.213 111.674H686.463C680.639 109.401 673.83 107.784 665.988 106.936C594.412 99.2164 568.856 104.322 559.842 109.587C548.72 116.064 536.312 120.828 523.052 123.124C478.889 130.771 396.299 139.975 321.442 120.177C284.237 110.329 256.584 126.964 240.011 154.75H716.752C716.129 146.675 714.266 139.221 710.846 132.691C710.06 133.259 709.058 133.571 708.021 133.57Z" fill="#00B0FF"/>
<path opacity="0.1" d="M223.078 207.197C221.146 223.541 221.802 240.028 225.027 256.227L666.598 269.783C678.89 257.913 689.21 244.701 697.279 230.506L223.078 207.197ZM397.725 242.175H389.03C390.183 242.175 391.289 242.56 392.104 243.244C392.92 243.929 393.378 244.857 393.378 245.825C393.378 246.792 392.92 247.721 392.104 248.405C391.289 249.089 390.183 249.474 389.03 249.474H338.736C337.583 249.474 336.478 249.089 335.662 248.405C334.847 247.721 334.389 246.792 334.389 245.825C334.389 244.857 334.847 243.929 335.662 243.244C336.478 242.56 337.583 242.175 338.736 242.175H347.431C346.278 242.175 345.172 241.791 344.357 241.106C343.541 240.422 343.083 239.494 343.083 238.526C343.083 237.558 343.541 236.63 344.357 235.945C345.172 235.261 346.278 234.877 347.431 234.877H341.222C340.069 234.877 338.964 234.492 338.148 233.808C337.333 233.123 336.875 232.195 336.875 231.227C336.875 230.259 337.333 229.331 338.148 228.647C338.964 227.962 340.069 227.578 341.222 227.578H391.516C392.669 227.578 393.775 227.962 394.59 228.647C395.406 229.331 395.864 230.259 395.864 231.227C395.864 232.195 395.406 233.123 394.59 233.808C393.775 234.492 392.669 234.877 391.516 234.877H397.725C398.878 234.877 399.983 235.261 400.799 235.945C401.614 236.63 402.072 237.558 402.072 238.526C402.072 239.494 401.614 240.422 400.799 241.106C399.983 241.791 398.878 242.175 397.725 242.175V242.175Z" fill="#00B0FF"/>
<path opacity="0.1" d="M716.774 155L234.683 164.848C228.822 177.498 224.955 191.804 223.151 206.636H708.328C711.496 197.926 713.839 189.019 715.335 179.998C716.779 171.279 717.356 162.852 716.774 155ZM321.023 187.255H312.328C313.481 187.255 314.587 187.64 315.402 188.324C316.217 189.008 316.675 189.937 316.675 190.904C316.675 191.872 316.217 192.801 315.402 193.485C314.587 194.169 313.481 194.554 312.328 194.554H262.034C260.881 194.554 259.775 194.169 258.96 193.485C258.145 192.801 257.687 191.872 257.687 190.904C257.687 189.937 258.145 189.008 258.96 188.324C259.775 187.64 260.881 187.255 262.034 187.255H270.728C269.576 187.255 268.47 186.871 267.655 186.186C266.839 185.502 266.381 184.574 266.381 183.606C266.381 182.638 266.839 181.71 267.655 181.025C268.47 180.341 269.576 179.956 270.728 179.956H264.52C263.367 179.956 262.261 179.572 261.446 178.888C260.631 178.203 260.173 177.275 260.173 176.307C260.173 175.339 260.631 174.411 261.446 173.727C262.261 173.042 263.367 172.658 264.52 172.658H314.814C315.967 172.658 317.073 173.042 317.888 173.727C318.703 174.411 319.161 175.339 319.161 176.307C319.161 177.275 318.703 178.203 317.888 178.888C317.073 179.572 315.967 179.956 314.814 179.956H321.023C322.176 179.956 323.281 180.341 324.096 181.025C324.912 181.71 325.37 182.638 325.37 183.606C325.37 184.574 324.912 185.502 324.096 186.186C323.281 186.871 322.176 187.255 321.023 187.255V187.255Z" fill="#00B0FF"/>
<g opacity="0.1">
<path opacity="0.1" d="M527.703 339.073C527.703 339.073 540.427 312.75 564.187 302.985C574.188 298.948 582.359 292.296 587.472 284.028C589.861 280.083 591.814 275.963 593.306 271.719" stroke="#535461" stroke-width="2" stroke-miterlimit="10"/>
<path opacity="0.1" d="M608.236 265.488C605.759 268.101 592.941 271.927 592.941 271.927C592.941 271.927 594.484 260.564 596.961 257.97C598.191 256.822 599.896 256.112 601.728 255.984C603.56 255.855 605.382 256.319 606.821 257.28C608.26 258.24 609.208 259.626 609.472 261.153C609.736 262.681 609.296 264.235 608.241 265.499L608.236 265.488Z" fill="#00B0FF"/>
<path opacity="0.1" d="M603.837 286.191C600.065 287.255 586.836 284.608 586.836 284.608C586.836 284.608 595.477 275.79 599.249 274.726C601.021 274.331 602.906 274.518 604.52 275.247C606.135 275.976 607.359 277.194 607.943 278.653C608.527 280.113 608.427 281.704 607.665 283.103C606.902 284.503 605.534 285.607 603.837 286.191V286.191Z" fill="#00B0FF"/>
<path opacity="0.1" d="M579.987 310.659C576.094 309.981 566.262 302.087 566.262 302.087C566.262 302.087 579.022 298.137 582.92 298.815C584.684 299.228 586.195 300.188 587.148 301.501C588.1 302.814 588.423 304.381 588.05 305.886C587.677 307.391 586.637 308.721 585.14 309.607C583.643 310.492 581.801 310.867 579.987 310.655V310.659Z" fill="#00B0FF"/>
<path opacity="0.1" d="M556.977 325.764C553.002 325.646 541.722 319.264 541.722 319.264C541.722 319.264 553.507 313.571 557.482 313.678C558.47 313.652 559.453 313.796 560.372 314.102C561.29 314.409 562.124 314.87 562.822 315.458C563.519 316.046 564.066 316.747 564.427 317.52C564.788 318.292 564.957 319.118 564.922 319.947C564.887 320.776 564.65 321.591 564.225 322.34C563.8 323.089 563.197 323.757 562.452 324.302C561.707 324.847 560.837 325.259 559.895 325.51C558.953 325.761 557.96 325.848 556.977 325.764V325.764Z" fill="#00B0FF"/>
<path opacity="0.1" d="M574.519 277.211C575.029 280.525 583.642 289.357 583.642 289.357C583.642 289.357 589.313 278.979 588.808 275.665C588.456 274.155 587.432 272.814 585.945 271.914C584.458 271.015 582.619 270.623 580.801 270.82C578.983 271.016 577.322 271.786 576.156 272.973C574.989 274.16 574.404 275.675 574.519 277.211Z" fill="#00B0FF"/>
<path opacity="0.1" d="M547.872 295.16C549.537 298.19 560.906 304.459 560.906 304.459C560.906 304.459 562.621 293.13 560.956 290.1C560.601 289.326 560.061 288.622 559.37 288.031C558.678 287.44 557.849 286.974 556.935 286.662C556.02 286.351 555.039 286.2 554.052 286.219C553.065 286.238 552.093 286.427 551.197 286.774C550.3 287.121 549.498 287.619 548.84 288.236C548.182 288.854 547.681 289.578 547.369 290.364C547.058 291.151 546.942 291.982 547.028 292.808C547.114 293.633 547.401 294.435 547.872 295.164V295.16Z" fill="#00B0FF"/>
<path opacity="0.1" d="M524.825 315.59C525.854 318.817 535.802 326.605 535.802 326.605C535.802 326.605 539.773 315.685 538.74 312.458C538.149 311.002 536.921 309.79 535.305 309.066C533.689 308.342 531.806 308.161 530.036 308.559C528.267 308.957 526.744 309.905 525.777 311.211C524.809 312.516 524.469 314.082 524.825 315.59Z" fill="#00B0FF"/>
<path opacity="0.25" d="M608.236 265.488C605.759 268.101 592.941 271.927 592.941 271.927C592.941 271.927 594.484 260.564 596.961 257.97C598.191 256.822 599.896 256.112 601.728 255.984C603.56 255.855 605.382 256.319 606.821 257.28C608.26 258.24 609.208 259.626 609.472 261.153C609.736 262.681 609.296 264.235 608.241 265.499L608.236 265.488Z" fill="black"/>
<path opacity="0.25" d="M603.837 286.191C600.065 287.255 586.836 284.608 586.836 284.608C586.836 284.608 595.477 275.79 599.249 274.726C601.021 274.331 602.906 274.518 604.52 275.247C606.135 275.976 607.359 277.194 607.943 278.653C608.527 280.113 608.427 281.704 607.665 283.103C606.902 284.503 605.534 285.607 603.837 286.191V286.191Z" fill="black"/>
<path opacity="0.25" d="M579.987 310.659C576.094 309.981 566.262 302.087 566.262 302.087C566.262 302.087 579.022 298.137 582.92 298.815C584.684 299.228 586.195 300.188 587.148 301.501C588.1 302.814 588.423 304.381 588.05 305.886C587.677 307.391 586.637 308.721 585.14 309.607C583.643 310.492 581.801 310.867 579.987 310.655V310.659Z" fill="black"/>
<path opacity="0.25" d="M556.977 325.764C553.002 325.646 541.722 319.264 541.722 319.264C541.722 319.264 553.507 313.571 557.482 313.678C558.47 313.652 559.453 313.796 560.372 314.102C561.29 314.409 562.124 314.87 562.822 315.458C563.519 316.046 564.066 316.747 564.427 317.52C564.788 318.292 564.957 319.118 564.922 319.947C564.887 320.776 564.65 321.591 564.225 322.34C563.8 323.089 563.197 323.757 562.452 324.302C561.707 324.847 560.837 325.259 559.895 325.51C558.953 325.761 557.96 325.848 556.977 325.764V325.764Z" fill="black"/>
<path opacity="0.25" d="M574.519 277.211C575.029 280.525 583.642 289.357 583.642 289.357C583.642 289.357 589.313 278.979 588.808 275.665C588.456 274.155 587.432 272.814 585.945 271.914C584.458 271.015 582.619 270.623 580.801 270.82C578.983 271.016 577.322 271.786 576.156 272.973C574.989 274.16 574.404 275.675 574.519 277.211Z" fill="black"/>
<path opacity="0.25" d="M547.872 295.16C549.537 298.19 560.906 304.459 560.906 304.459C560.906 304.459 562.621 293.13 560.956 290.1C560.601 289.326 560.061 288.622 559.37 288.031C558.678 287.44 557.849 286.974 556.935 286.662C556.02 286.351 555.039 286.2 554.052 286.219C553.065 286.238 552.093 286.427 551.197 286.774C550.3 287.121 549.498 287.619 548.84 288.236C548.182 288.854 547.681 289.578 547.369 290.364C547.058 291.151 546.942 291.982 547.028 292.808C547.114 293.633 547.401 294.435 547.872 295.164V295.16Z" fill="black"/>
<path opacity="0.25" d="M524.825 315.59C525.854 318.817 535.802 326.605 535.802 326.605C535.802 326.605 539.773 315.685 538.74 312.458C538.149 311.002 536.921 309.79 535.305 309.066C533.689 308.342 531.806 308.161 530.036 308.559C528.267 308.957 526.744 309.905 525.777 311.211C524.809 312.516 524.469 314.082 524.825 315.59Z" fill="black"/>
</g>
<g opacity="0.1">
<path opacity="0.1" d="M518.68 300.584C518.68 300.584 520.286 272.207 538.843 256.379C546.67 249.779 551.736 241.227 553.281 232.006C553.977 227.623 554.193 223.195 553.927 218.779" stroke="#535461" stroke-width="2" stroke-miterlimit="10"/>
<path opacity="0.1" d="M565.603 208.746C564.299 211.901 553.715 219.071 553.715 219.071C553.715 219.071 550.692 207.939 551.996 204.784C552.254 203.982 552.707 203.232 553.325 202.583C553.943 201.933 554.714 201.398 555.59 201.009C556.465 200.62 557.427 200.387 558.414 200.324C559.401 200.261 560.394 200.368 561.33 200.641C562.265 200.913 563.124 201.344 563.853 201.907C564.582 202.47 565.164 203.153 565.565 203.913C565.966 204.674 566.176 205.495 566.183 206.326C566.19 207.158 565.992 207.981 565.603 208.746V208.746Z" fill="#00B0FF"/>
<path opacity="0.1" d="M569.61 229.487C566.452 231.54 552.943 232.729 552.943 232.729C552.943 232.729 557.613 222.003 560.749 219.95C561.486 219.399 562.351 218.981 563.288 218.722C564.226 218.463 565.217 218.368 566.2 218.443C567.183 218.518 568.137 218.762 569.004 219.159C569.87 219.556 570.631 220.098 571.238 220.751C571.845 221.405 572.286 222.156 572.534 222.958C572.781 223.76 572.83 224.596 572.678 225.415C572.525 226.234 572.174 227.017 571.647 227.718C571.119 228.418 570.426 229.02 569.61 229.487V229.487Z" fill="#00B0FF"/>
<path opacity="0.1" d="M556.774 259.227C552.83 259.67 540.441 254.962 540.441 254.962C540.441 254.962 550.922 247.682 554.879 247.239C555.847 247.076 556.844 247.082 557.81 247.255C558.776 247.429 559.688 247.767 560.492 248.248C561.296 248.73 561.973 249.344 562.483 250.054C562.992 250.765 563.323 251.555 563.454 252.376C563.585 253.198 563.514 254.033 563.245 254.831C562.976 255.629 562.515 256.371 561.891 257.013C561.267 257.656 560.492 258.183 559.615 258.564C558.738 258.945 557.777 259.17 556.792 259.227H556.774Z" fill="#00B0FF"/>
<path opacity="0.1" d="M541.032 279.881C537.233 280.877 524.071 277.987 524.071 277.987C524.071 277.987 532.933 269.325 536.732 268.329C538.515 267.963 540.396 268.182 541.994 268.94C543.592 269.697 544.786 270.937 545.333 272.408C545.881 273.878 545.741 275.468 544.942 276.855C544.143 278.242 542.745 279.321 541.032 279.873V279.881Z" fill="#00B0FF"/>
<path opacity="0.1" d="M538.401 229.191C540.206 232.176 551.811 238.111 551.811 238.111C551.811 238.111 553.06 226.748 551.274 223.756C550.347 222.426 548.851 221.443 547.091 221.006C545.331 220.569 543.439 220.711 541.799 221.403C540.16 222.095 538.896 223.286 538.264 224.733C537.633 226.18 537.682 227.774 538.401 229.191V229.191Z" fill="#00B0FF"/>
<path opacity="0.1" d="M520.354 253.546C523.124 255.943 536.326 258.689 536.326 258.689C536.326 258.689 533.47 247.527 530.699 245.13C529.341 244.093 527.563 243.529 525.727 243.553C523.891 243.578 522.136 244.189 520.817 245.262C519.499 246.335 518.717 247.789 518.631 249.329C518.545 250.868 519.161 252.378 520.354 253.549V253.546Z" fill="#00B0FF"/>
<path opacity="0.1" d="M506.683 279.233C508.938 281.99 521.391 286.57 521.391 286.57C521.391 286.57 520.823 275.161 518.576 272.404C517.439 271.209 515.807 270.419 514.005 270.192C512.204 269.966 510.367 270.319 508.863 271.181C507.359 272.044 506.298 273.352 505.895 274.843C505.491 276.334 505.774 277.898 506.687 279.222L506.683 279.233Z" fill="#00B0FF"/>
</g>
<path opacity="0.1" d="M357.24 396.827C374.98 401.834 396.624 398.789 416.751 399.141C419.508 399.19 422.423 399.334 424.634 400.198C426.845 401.061 427.932 402.47 429.448 403.663C435.088 408.129 446.643 409.564 456.745 408.807C466.847 408.049 476.11 405.542 485.621 403.633C502.098 400.33 520.936 398.83 537.187 402.428C538.681 402.758 540.251 403.137 541.848 403.008C545.413 402.713 546.473 400.319 548.963 398.951C553.475 396.482 563.235 397.152 565.206 393.899C566.366 392.005 563.699 390.035 560.798 388.733C549.69 383.748 533.799 382.926 519.262 383.695C504.724 384.464 490.431 386.585 475.817 386.593C457.611 386.593 440.019 383.339 421.99 382.006C409.501 381.082 395.87 381.195 384.162 383.9C371.506 386.861 368.709 393.467 357.24 396.827Z" fill="#00B0FF"/>
<path d="M390.073 173.033H386.914V210.53H390.073V173.033Z" fill="#535461"/>
<path d="M390.073 223.408H386.914V244.618H390.073V223.408Z" fill="#535461"/>
<path d="M510.044 136.293H410.421C398.685 136.293 389.17 144.28 389.17 154.133V377.525C389.17 387.378 398.685 395.365 410.421 395.365H510.044C521.781 395.365 531.295 387.378 531.295 377.525V154.133C531.295 144.28 521.781 136.293 510.044 136.293Z" fill="#535461"/>
<path d="M510.044 148.413H410.421C398.685 148.413 389.17 156.4 389.17 166.253V366.541C389.17 376.394 398.685 384.381 410.421 384.381H510.044C521.781 384.381 531.295 376.394 531.295 366.541V166.253C531.295 156.4 521.781 148.413 510.044 148.413Z" fill="#00B0FF"/>
<path d="M470.61 141.974H450.306C449.434 141.974 448.727 142.568 448.727 143.3C448.727 144.032 449.434 144.626 450.306 144.626H470.61C471.482 144.626 472.189 144.032 472.189 143.3C472.189 142.568 471.482 141.974 470.61 141.974Z" fill="#EAEAF3"/>
<path d="M480.311 145.383C481.556 145.383 482.566 144.535 482.566 143.489C482.566 142.444 481.556 141.596 480.311 141.596C479.065 141.596 478.055 142.444 478.055 143.489C478.055 144.535 479.065 145.383 480.311 145.383Z" fill="#EAEAF3"/>
<path d="M423.37 253.027V280.676C423.382 281.543 423.188 282.403 422.8 283.207C422.411 284.01 421.837 284.741 421.109 285.356C420.382 285.972 419.516 286.459 418.561 286.791C417.607 287.123 416.584 287.292 415.551 287.289C411.202 287.289 406.979 284.331 406.979 280.676V253.027C406.979 249.421 411.188 246.463 415.551 246.463C417.622 246.47 419.606 247.164 421.071 248.393C422.536 249.623 423.362 251.288 423.37 253.027V253.027ZM426.443 290.501C426.441 291.429 426.657 292.349 427.079 293.207C427.501 294.065 428.12 294.844 428.902 295.501C429.684 296.157 430.613 296.677 431.635 297.031C432.657 297.386 433.752 297.567 434.858 297.565H440.516L440.601 312.151C440.601 320.957 456.298 320.889 456.298 312.151V297.569H466.874V312.155C466.874 320.916 482.666 320.938 482.666 312.155V297.569H488.409C489.511 297.566 490.601 297.381 491.617 297.024C492.633 296.668 493.556 296.146 494.332 295.49C495.109 294.835 495.724 294.057 496.142 293.201C496.56 292.346 496.773 291.43 496.77 290.505V247.667H426.443V290.501ZM496.959 245.364H426.123C426.123 235.138 433.4 226.267 444.206 221.639L438.792 213.212C437.998 212.041 440.015 211.318 440.696 212.306L446.214 220.806C451.069 219.023 456.311 218.102 461.611 218.102C466.91 218.102 472.153 219.023 477.008 220.806L482.494 212.333C483.207 211.306 485.201 212.071 484.398 213.238L478.984 221.639C489.682 226.267 496.959 235.149 496.959 245.364ZM448.42 232.108C448.42 231.443 448.106 230.805 447.546 230.335C446.985 229.865 446.226 229.6 445.434 229.6C444.662 229.626 443.932 229.901 443.397 230.368C442.862 230.835 442.563 231.458 442.563 232.106C442.563 232.754 442.862 233.377 443.397 233.844C443.932 234.311 444.662 234.586 445.434 234.611C446.223 234.611 446.981 234.349 447.541 233.881C448.101 233.413 448.417 232.778 448.42 232.115V232.108ZM480.667 232.108C480.658 231.62 480.477 231.145 480.146 230.743C479.816 230.341 479.351 230.031 478.81 229.85C478.27 229.67 477.678 229.629 477.109 229.731C476.54 229.834 476.021 230.075 475.615 230.425C475.21 230.776 474.938 231.219 474.832 231.699C474.727 232.179 474.794 232.675 475.024 233.123C475.254 233.571 475.637 233.953 476.125 234.218C476.613 234.484 477.184 234.622 477.766 234.615C478.543 234.6 479.282 234.33 479.825 233.863C480.367 233.395 480.67 232.768 480.667 232.115V232.108ZM507.621 246.455C506.593 246.453 505.575 246.621 504.625 246.95C503.675 247.279 502.812 247.762 502.085 248.372C501.359 248.982 500.783 249.707 500.391 250.504C499.999 251.302 499.799 252.156 499.802 253.019V280.669C499.798 281.534 499.997 282.391 500.387 283.192C500.778 283.993 501.353 284.721 502.079 285.335C502.805 285.949 503.669 286.437 504.619 286.771C505.57 287.105 506.59 287.279 507.621 287.282C512.002 287.282 516.194 284.324 516.194 280.669V253.019C516.18 249.353 511.97 246.463 507.621 246.463V246.455Z" fill="white"/>
<path d="M456.172 318.689H426.845V319.825H456.172V318.689Z" fill="#535461"/>
<path d="M486.402 318.689H467V319.825H486.402V318.689Z" fill="#535461"/>
<path d="M420.528 318.689H401.127V319.825H420.528V318.689Z" fill="#535461"/>
<path d="M517.082 318.689H497.681V319.825H517.082V318.689Z" fill="#535461"/>
</g>
</g>
<defs>
<clipPath id="clip0">
<rect width="794.122" height="505.345" fill="white"/>
</clipPath>
<clipPath id="clip1">
<rect width="495" height="306" fill="white" transform="translate(222 103)"/>
</clipPath>
</defs>
</svg>
