<svg width="795" height="506" viewBox="0 0 795 506" fill="none" xmlns="http://www.w3.org/2000/svg">
<g clip-path="url(#clip0)">
<path d="M44.5188 503.871C32.2679 502.863 21.4518 494 15.3008 483.357C13.238 479.788 11.8247 475.107 14.1606 471.71C14.8292 470.738 15.7533 469.969 16.8309 469.488C17.9085 469.008 19.0979 468.834 20.2679 468.986C21.438 469.138 22.5434 469.61 23.4623 470.351C24.3811 471.091 25.0778 472.07 25.4756 473.181C24.7232 469.012 24.3999 464.776 24.5108 460.54C24.6049 456.954 25.2825 452.9 28.2643 450.906C31.7236 448.592 36.7098 450.429 39.226 453.744C41.7422 457.059 42.425 461.37 43.0289 465.488C42.5358 463.745 42.4877 461.907 42.889 460.14C43.2903 458.374 44.1281 456.737 45.3258 455.378C46.5234 454.02 48.0427 452.983 49.7446 452.363C51.4465 451.743 53.2766 451.56 55.0675 451.831C60.1342 452.596 64.1033 456.983 65.6521 461.867C67.2008 466.752 66.7173 472.048 65.7205 477.074C64.5516 482.968 62.6547 488.815 59.2395 493.758C55.8243 498.702 50.7515 502.687 44.866 503.897L44.5188 503.871Z" fill="#F2F2F2"/>
<path d="M794.122 106C794.122 127.984 787.289 149.424 774.569 167.354C761.849 185.284 743.871 198.817 723.122 206.08C722.462 206.31 721.792 206.54 721.122 206.75V99.04H582.352C582.392 98.37 582.442 97.7 582.502 97.04H721.122V76C721.121 74.6741 720.594 73.4026 719.657 72.4651C718.719 71.5275 717.448 71.0005 716.122 71H588.042C588.272 70.33 588.512 69.66 588.772 69C597.449 45.7103 614.032 26.2096 635.626 13.9047C657.22 1.59972 682.45 -2.72714 706.91 1.68C731.369 6.08714 753.503 18.9481 769.444 38.016C785.385 57.0839 794.119 81.1465 794.122 106Z" fill="#F2F2F2"/>
<path d="M716.122 69H229.122C227.266 69.0021 225.487 69.7402 224.174 71.0525C222.862 72.3648 222.124 74.1441 222.122 76V406C222.124 407.856 222.862 409.635 224.174 410.947C225.487 412.26 227.266 412.998 229.122 413H716.122C717.978 412.998 719.757 412.26 721.069 410.947C722.382 409.635 723.12 407.856 723.122 406V76C723.12 74.1441 722.382 72.3648 721.069 71.0525C719.757 69.7402 717.978 69.0021 716.122 69ZM721.122 406C721.121 407.326 720.594 408.597 719.657 409.535C718.719 410.473 717.448 411 716.122 411H229.122C227.796 411 226.524 410.473 225.587 409.535C224.649 408.597 224.122 407.326 224.122 406V76C224.122 74.6741 224.649 73.4026 225.587 72.4651C226.524 71.5275 227.796 71.0005 229.122 71H716.122C717.448 71.0005 718.719 71.5275 719.657 72.4651C720.594 73.4026 721.121 74.6741 721.122 76V406Z" fill="#3F3D56"/>
<path d="M722.122 97.04H223.122V99.04H722.122V97.04Z" fill="#3F3D56"/>
<path d="M240.122 90C243.436 90 246.122 87.3137 246.122 84C246.122 80.6863 243.436 78 240.122 78C236.808 78 234.122 80.6863 234.122 84C234.122 87.3137 236.808 90 240.122 90Z" fill="#3F3D56"/>
<path d="M257.372 90C260.686 90 263.372 87.3137 263.372 84C263.372 80.6863 260.686 78 257.372 78C254.058 78 251.372 80.6863 251.372 84C251.372 87.3137 254.058 90 257.372 90Z" fill="#3F3D56"/>
<path d="M274.622 90C277.936 90 280.622 87.3137 280.622 84C280.622 80.6863 277.936 78 274.622 78C271.308 78 268.622 80.6863 268.622 84C268.622 87.3137 271.308 90 274.622 90Z" fill="#3F3D56"/>
<path d="M202.746 492.088L214.466 488.491L206.17 441.573L188.872 446.881L202.746 492.088Z" fill="#A0616A"/>
<path d="M240.41 492.438L203.574 503.742L199.207 489.51L221.81 482.573C223.679 482 225.643 481.8 227.589 481.985C229.535 482.171 231.426 482.737 233.153 483.653C234.88 484.569 236.41 485.817 237.655 487.324C238.9 488.831 239.836 490.569 240.41 492.438Z" fill="#2F2E41"/>
<path d="M102.748 492.358L115.008 492.357L120.84 445.069L102.746 445.07L102.748 492.358Z" fill="#A0616A"/>
<path d="M138.652 503.74L100.121 503.742L100.121 488.855L123.764 488.854C125.719 488.854 127.655 489.239 129.461 489.987C131.268 490.735 132.909 491.832 134.291 493.214C135.674 494.596 136.77 496.237 137.519 498.043C138.267 499.849 138.652 501.785 138.652 503.74L138.652 503.74Z" fill="#2F2E41"/>
<path d="M101.868 355.28C100.861 354.398 100.06 353.304 99.5207 352.078C98.9816 350.852 98.7179 349.523 98.7483 348.183C98.7786 346.844 99.1022 345.528 99.6962 344.328C100.29 343.127 101.14 342.071 102.186 341.235L111.692 221.54L131.023 226.37L115.545 343.129C116.834 344.979 117.399 347.238 117.133 349.478C116.868 351.717 115.79 353.781 114.104 355.279C112.418 356.777 110.242 357.605 107.986 357.605C105.731 357.605 103.554 356.778 101.868 355.28Z" fill="#A0616A"/>
<path d="M140.579 175.116C154.144 175.116 165.14 164.12 165.14 150.555C165.14 136.991 154.144 125.994 140.579 125.994C127.015 125.994 116.018 136.991 116.018 150.555C116.018 164.12 127.015 175.116 140.579 175.116Z" fill="#A0616A"/>
<path d="M119.223 217.859C113.681 210.25 113.51 199.772 119.48 192.495C123.375 187.745 129.892 183.945 140.772 183.945C169.772 183.945 180.772 206.945 180.772 206.945C180.772 206.945 192.772 228.945 185.772 248.945C178.772 268.945 178.772 270.945 178.772 270.945L132.772 266.945C132.772 266.945 140.532 247.113 119.223 217.859Z" fill="#CCCCCC"/>
<path d="M105.037 237.767L114.947 205.346C115.611 203.175 116.743 201.177 118.264 199.492C119.785 197.807 121.658 196.476 123.75 195.594C125.842 194.712 128.102 194.301 130.37 194.388C132.638 194.476 134.86 195.061 136.877 196.101C140.378 197.914 143.058 200.99 144.374 204.706C145.69 208.422 145.544 212.499 143.965 216.111L131.367 244.802L105.037 237.767Z" fill="#CCCCCC"/>
<path d="M177.772 265.945L216.772 467.945L195.772 473.945L144.772 340.945L121.772 476.945L99.7721 479.945C99.7721 479.945 90.1218 300 132.772 266.945L177.772 265.945Z" fill="#2F2E41"/>
<path d="M233.903 256.477C233.548 256.901 233.226 257.352 232.941 257.827L183.406 260.228L173.867 231.109L157.305 238.98L172.893 282.352L234.155 270.371C235.595 271.942 237.479 273.039 239.557 273.513C241.634 273.988 243.807 273.819 245.787 273.029C247.766 272.239 249.458 270.865 250.637 269.09C251.817 267.314 252.428 265.222 252.389 263.091C252.35 260.96 251.664 258.892 250.421 257.16C249.178 255.429 247.437 254.117 245.431 253.399C243.424 252.681 241.246 252.591 239.187 253.141C237.128 253.691 235.285 254.855 233.903 256.477Z" fill="#A0616A"/>
<path d="M150.375 209.849C150.11 207.595 150.343 205.309 151.058 203.155C151.773 201 152.953 199.029 154.514 197.381C156.074 195.732 157.978 194.447 160.09 193.615C162.203 192.783 164.472 192.425 166.737 192.567C170.671 192.82 174.362 194.559 177.061 197.432C179.76 200.305 181.266 204.097 181.272 208.039V239.374L154.336 243.518L150.375 209.849Z" fill="#CCCCCC"/>
<path d="M145.981 175.339C142.294 175.323 139.45 171.442 139.616 167.759C139.781 164.076 142.254 160.836 145.234 158.666C148.214 156.496 151.709 155.174 155.032 153.579C158.356 151.983 161.65 149.993 163.702 146.931C164.941 144.926 165.681 142.653 165.859 140.303C166.037 137.953 165.648 135.595 164.725 133.426C162.815 129.089 159.537 125.498 155.392 123.202C149.234 119.598 141.944 118.445 134.975 119.974C128.006 121.503 121.868 125.601 117.785 131.452L113.577 142.91C109.289 148.066 108.609 155.724 111.244 161.89C113.88 168.056 119.493 172.696 125.826 174.901C132.251 176.966 139.129 177.172 145.667 175.496" fill="#2F2E41"/>
<path d="M123.534 137.179C121.725 134.279 118.59 132.435 115.348 131.353C111.593 130.1 107.599 129.73 103.677 130.272C99.7559 130.814 96.0123 132.255 92.7384 134.481C89.4645 136.707 86.7485 139.658 84.802 143.105C82.8554 146.553 81.7309 150.403 81.5158 154.356C81.1722 160.67 83.1494 166.845 84.3112 173.061C85.473 179.277 85.7041 186.143 82.2768 191.457C79.6662 195.505 75.3129 198.054 71.0159 200.23C67.4346 202.044 63.5609 203.746 59.5628 203.384C55.5647 203.023 51.5464 199.856 51.6525 195.843C50.314 198.72 49.4103 201.781 48.9708 204.923C48.6896 208.079 49.4674 211.485 51.7469 213.685C55.06 216.884 60.3094 216.65 64.8626 215.96C74.7195 214.466 84.7007 211.664 92.4881 205.439C100.275 199.215 105.443 188.965 103.392 179.208C102.535 175.133 100.522 171.412 98.8952 167.579C97.2684 163.745 95.9983 159.552 96.7456 155.455C97.188 153.344 98.0882 151.356 99.3829 149.631C100.677 147.906 102.335 146.487 104.238 145.473C108.087 143.471 112.491 142.804 116.761 143.574C119.56 144.033 123.055 144.746 124.715 142.446C125.155 141.718 125.38 140.879 125.363 140.029C125.347 139.178 125.089 138.349 124.621 137.638C123.664 136.232 122.444 135.023 121.029 134.078" fill="#2F2E41"/>
<path d="M308.485 505.345H1.1907C1.03405 505.346 0.878838 505.315 0.733978 505.256C0.589119 505.196 0.457459 505.108 0.346527 504.998C0.235596 504.887 0.147578 504.756 0.0875244 504.611C0.0274707 504.466 -0.00344849 504.311 -0.00344849 504.154C-0.00344849 503.998 0.0274707 503.843 0.0875244 503.698C0.147578 503.553 0.235596 503.422 0.346527 503.311C0.457459 503.201 0.589119 503.113 0.733978 503.053C0.878838 502.994 1.03405 502.963 1.1907 502.964H308.485C308.641 502.963 308.797 502.994 308.941 503.053C309.086 503.113 309.218 503.201 309.329 503.311C309.44 503.422 309.528 503.553 309.588 503.698C309.648 503.843 309.679 503.998 309.679 504.154C309.679 504.311 309.648 504.466 309.588 504.611C309.528 504.756 309.44 504.887 309.329 504.998C309.218 505.108 309.086 505.196 308.941 505.256C308.797 505.315 308.641 505.346 308.485 505.345Z" fill="#3F3D56"/>
<path d="M389.61 84.1147C389.61 84.9116 389.579 85.5037 389.519 85.8911H383.924C383.974 86.6714 384.217 87.2524 384.654 87.6343C385.097 88.0161 385.695 88.207 386.447 88.207C386.807 88.207 387.241 88.16 387.75 88.0659C388.265 87.9663 388.641 87.8501 388.879 87.7173L389.303 89.1865C388.976 89.4521 388.486 89.6763 387.833 89.8589C387.181 90.0415 386.5 90.1328 385.792 90.1328C384.84 90.1328 384.029 89.9391 383.359 89.5518C382.69 89.1644 382.183 88.6055 381.84 87.875C381.497 87.139 381.326 86.2591 381.326 85.2354C381.326 84.3057 381.506 83.4756 381.865 82.7451C382.225 82.0146 382.748 81.4419 383.434 81.0269C384.126 80.6118 384.948 80.4043 385.899 80.4043C386.586 80.4043 387.205 80.5288 387.759 80.7778C388.312 81.0269 388.755 81.4281 389.087 81.9814C389.424 82.5348 389.599 83.2459 389.61 84.1147ZM387.203 84.4551C387.208 84.3721 387.211 84.2503 387.211 84.0898C387.211 83.4867 387.097 83.0301 386.871 82.7202C386.644 82.4048 386.276 82.2471 385.767 82.2471C385.257 82.2471 384.851 82.4159 384.546 82.7534C384.248 83.0854 384.054 83.6527 383.965 84.4551H387.203ZM397.438 77.2334C398.052 77.2334 398.561 77.2638 398.965 77.3247C399.374 77.3856 399.812 77.4741 400.276 77.5903C400.614 77.6678 400.813 77.7121 400.874 77.7231L400.492 80.0474C400.459 80.0308 400.315 79.9533 400.061 79.8149C399.806 79.6711 399.463 79.5549 399.031 79.4663C398.6 79.3722 398.124 79.3252 397.604 79.3252C396.917 79.3252 396.298 79.494 395.744 79.8315C395.196 80.1691 394.762 80.6589 394.441 81.3008C394.125 81.9372 393.968 82.687 393.968 83.5503C393.968 84.4246 394.12 85.2077 394.424 85.8994C394.734 86.5856 395.177 87.1224 395.752 87.5098C396.333 87.8971 397.017 88.0908 397.803 88.0908C398.162 88.0908 398.539 88.0493 398.932 87.9663C399.33 87.8778 399.69 87.7726 400.011 87.6509C400.337 87.5236 400.578 87.4046 400.733 87.2939L400.741 89.4688C400.393 89.6071 400.083 89.7205 399.812 89.8091C399.546 89.8976 399.222 89.9723 398.84 90.0332C398.458 90.0996 398.03 90.1328 397.554 90.1328C396.275 90.1328 395.16 89.8672 394.208 89.3359C393.257 88.7992 392.523 88.0465 392.009 87.0781C391.5 86.1097 391.245 84.9891 391.245 83.7163C391.245 82.3605 391.516 81.1956 392.059 80.2217C392.606 79.2422 393.348 78.5007 394.283 77.9971C395.224 77.488 396.275 77.2334 397.438 77.2334ZM402.003 85.1772C402.003 84.1646 402.202 83.3013 402.601 82.5874C402.999 81.868 403.552 81.3257 404.261 80.9604C404.969 80.5897 405.783 80.4043 406.701 80.4043C407.747 80.4043 408.608 80.6257 409.283 81.0684C409.958 81.5055 410.448 82.0949 410.752 82.8364C411.062 83.5724 411.217 84.4053 411.217 85.335C411.217 86.3532 411.018 87.222 410.619 87.9414C410.221 88.6608 409.667 89.2059 408.959 89.5767C408.251 89.9474 407.44 90.1328 406.527 90.1328C405.475 90.1328 404.612 89.9115 403.937 89.4688C403.262 89.026 402.769 88.4339 402.459 87.6924C402.155 86.9453 402.003 86.1069 402.003 85.1772ZM408.536 85.3433C408.536 84.4578 408.378 83.7218 408.062 83.1353C407.747 82.5431 407.268 82.2471 406.626 82.2471C405.332 82.2471 404.684 83.21 404.684 85.1357C404.684 85.7168 404.75 86.248 404.883 86.7295C405.022 87.2054 405.235 87.5872 405.522 87.875C405.816 88.1628 406.181 88.3066 406.618 88.3066C407.896 88.3066 408.536 87.3188 408.536 85.3433ZM424.631 80.3711C425.295 80.3711 425.848 80.4901 426.291 80.728C426.739 80.966 427.08 81.3561 427.312 81.8984C427.544 82.4352 427.661 83.1519 427.661 84.0483V90H425.071V84.6128C425.071 84.0871 425.035 83.6803 424.963 83.3926C424.891 83.0993 424.761 82.889 424.573 82.7617C424.39 82.6289 424.122 82.5625 423.768 82.5625C423.447 82.5625 423.106 82.6289 422.747 82.7617C422.392 82.8945 422.091 83.0605 421.842 83.2598C421.864 83.5033 421.875 83.7938 421.875 84.1313V90H419.285V84.6211C419.285 84.1009 419.246 83.6942 419.169 83.4009C419.097 83.1076 418.967 82.8945 418.779 82.7617C418.596 82.6289 418.333 82.5625 417.99 82.5625C417.719 82.5625 417.395 82.6234 417.019 82.7451C416.643 82.8669 416.319 83.0467 416.048 83.2847V90H413.458V80.5371H415.807L415.857 81.5498C416.239 81.262 416.715 80.9992 417.285 80.7612C417.855 80.5177 418.405 80.3877 418.937 80.3711C419.523 80.349 420.018 80.432 420.422 80.6201C420.826 80.8027 421.145 81.1016 421.377 81.5166C421.748 81.2288 422.229 80.966 422.821 80.728C423.413 80.4901 424.017 80.3711 424.631 80.3711ZM441.631 80.3711C442.295 80.3711 442.848 80.4901 443.291 80.728C443.739 80.966 444.08 81.3561 444.312 81.8984C444.544 82.4352 444.661 83.1519 444.661 84.0483V90H442.071V84.6128C442.071 84.0871 442.035 83.6803 441.963 83.3926C441.891 83.0993 441.761 82.889 441.573 82.7617C441.39 82.6289 441.122 82.5625 440.768 82.5625C440.447 82.5625 440.106 82.6289 439.747 82.7617C439.392 82.8945 439.091 83.0605 438.842 83.2598C438.864 83.5033 438.875 83.7938 438.875 84.1313V90H436.285V84.6211C436.285 84.1009 436.246 83.6942 436.169 83.4009C436.097 83.1076 435.967 82.8945 435.779 82.7617C435.596 82.6289 435.333 82.5625 434.99 82.5625C434.719 82.5625 434.395 82.6234 434.019 82.7451C433.643 82.8669 433.319 83.0467 433.048 83.2847V90H430.458V80.5371H432.807L432.857 81.5498C433.239 81.262 433.715 80.9992 434.285 80.7612C434.855 80.5177 435.405 80.3877 435.937 80.3711C436.523 80.349 437.018 80.432 437.422 80.6201C437.826 80.8027 438.145 81.1016 438.377 81.5166C438.748 81.2288 439.229 80.966 439.821 80.728C440.413 80.4901 441.017 80.3711 441.631 80.3711ZM455.086 84.1147C455.086 84.9116 455.056 85.5037 454.995 85.8911H449.4C449.45 86.6714 449.694 87.2524 450.131 87.6343C450.574 88.0161 451.171 88.207 451.924 88.207C452.284 88.207 452.718 88.16 453.227 88.0659C453.742 87.9663 454.118 87.8501 454.356 87.7173L454.779 89.1865C454.453 89.4521 453.963 89.6763 453.31 89.8589C452.657 90.0415 451.976 90.1328 451.268 90.1328C450.316 90.1328 449.506 89.9391 448.836 89.5518C448.166 89.1644 447.66 88.6055 447.317 87.875C446.974 87.139 446.802 86.2591 446.802 85.2354C446.802 84.3057 446.982 83.4756 447.342 82.7451C447.701 82.0146 448.224 81.4419 448.911 81.0269C449.602 80.6118 450.424 80.4043 451.376 80.4043C452.062 80.4043 452.682 80.5288 453.235 80.7778C453.789 81.0269 454.231 81.4281 454.563 81.9814C454.901 82.5348 455.075 83.2459 455.086 84.1147ZM452.679 84.4551C452.685 84.3721 452.688 84.2503 452.688 84.0898C452.688 83.4867 452.574 83.0301 452.347 82.7202C452.12 82.4048 451.752 82.2471 451.243 82.2471C450.734 82.2471 450.327 82.4159 450.023 82.7534C449.724 83.0854 449.53 83.6527 449.442 84.4551H452.679ZM462.3 80.3794C462.66 80.3794 462.906 80.4181 463.039 80.4956V82.9941C462.911 82.9222 462.765 82.8669 462.599 82.8281C462.438 82.7839 462.206 82.7617 461.901 82.7617C461.104 82.7617 460.402 83.0467 459.793 83.6167V90H457.203V80.5371H459.502L459.619 81.832C459.757 81.5885 459.962 81.3561 460.233 81.1348C460.51 80.9134 460.828 80.7336 461.188 80.5952C461.553 80.4513 461.924 80.3794 462.3 80.3794ZM469.09 80.4043C469.649 80.4043 470.155 80.4541 470.609 80.5537C471.063 80.6478 471.375 80.7585 471.547 80.8857L471.223 82.8862C470.985 82.759 470.72 82.6676 470.426 82.6123C470.139 82.5514 469.782 82.521 469.355 82.521C468.957 82.521 468.578 82.6068 468.218 82.7783C467.859 82.9443 467.56 83.2183 467.322 83.6001C467.084 83.9764 466.957 84.4634 466.94 85.061C466.923 85.7196 467.012 86.2729 467.206 86.7212C467.399 87.1694 467.673 87.5042 468.027 87.7256C468.387 87.9414 468.797 88.0493 469.256 88.0493C469.671 88.0493 470.067 88.0133 470.443 87.9414C470.825 87.8639 471.115 87.7699 471.314 87.6592L471.688 89.1948C471.395 89.4771 470.985 89.7039 470.459 89.8755C469.934 90.047 469.375 90.1328 468.783 90.1328C467.831 90.1328 467.023 89.9308 466.359 89.5269C465.695 89.1174 465.197 88.5557 464.865 87.8418C464.533 87.1224 464.367 86.3034 464.367 85.3848C464.367 84.4329 464.541 83.5807 464.89 82.8281C465.238 82.0755 465.767 81.4834 466.475 81.0518C467.183 80.6201 468.055 80.4043 469.09 80.4043ZM481.35 84.1147C481.35 84.9116 481.32 85.5037 481.259 85.8911H475.664C475.714 86.6714 475.957 87.2524 476.395 87.6343C476.837 88.0161 477.435 88.207 478.188 88.207C478.547 88.207 478.982 88.16 479.491 88.0659C480.005 87.9663 480.382 87.8501 480.62 87.7173L481.043 89.1865C480.716 89.4521 480.227 89.6763 479.574 89.8589C478.921 90.0415 478.24 90.1328 477.532 90.1328C476.58 90.1328 475.769 89.9391 475.1 89.5518C474.43 89.1644 473.924 88.6055 473.581 87.875C473.237 87.139 473.066 86.2591 473.066 85.2354C473.066 84.3057 473.246 83.4756 473.605 82.7451C473.965 82.0146 474.488 81.4419 475.174 81.0269C475.866 80.6118 476.688 80.4043 477.64 80.4043C478.326 80.4043 478.946 80.5288 479.499 80.7778C480.052 81.0269 480.495 81.4281 480.827 81.9814C481.165 82.5348 481.339 83.2459 481.35 84.1147ZM478.943 84.4551C478.948 84.3721 478.951 84.2503 478.951 84.0898C478.951 83.4867 478.838 83.0301 478.611 82.7202C478.384 82.4048 478.016 82.2471 477.507 82.2471C476.998 82.2471 476.591 82.4159 476.287 82.7534C475.988 83.0854 475.794 83.6527 475.706 84.4551H478.943ZM490.531 77.3662C490.708 77.3662 491.062 77.3496 491.593 77.3164C492.335 77.2611 493.002 77.2334 493.594 77.2334C495.669 77.2334 497.218 77.7591 498.242 78.8105C499.271 79.862 499.786 81.3755 499.786 83.3511C499.786 84.7622 499.529 85.9769 499.014 86.9951C498.5 88.0133 497.766 88.7909 496.814 89.3276C495.868 89.8644 494.753 90.1328 493.469 90.1328C493.071 90.1328 492.479 90.1079 491.693 90.0581C491.211 90.0194 490.832 90 490.556 90H489.277V77.3662H490.531ZM493.635 88.1074C494.687 88.0964 495.508 87.7284 496.101 87.0034C496.698 86.2729 496.997 85.1496 496.997 83.6333C496.997 82.5487 496.864 81.6854 496.599 81.0435C496.339 80.396 495.943 79.9312 495.412 79.6489C494.88 79.3667 494.191 79.2256 493.345 79.2256C493.051 79.2256 492.694 79.2533 492.274 79.3086L491.942 79.3418V87.958C492.318 88.0576 492.883 88.1074 493.635 88.1074ZM509.689 84.1147C509.689 84.9116 509.659 85.5037 509.598 85.8911H504.003C504.053 86.6714 504.296 87.2524 504.733 87.6343C505.176 88.0161 505.774 88.207 506.526 88.207C506.886 88.207 507.32 88.16 507.83 88.0659C508.344 87.9663 508.721 87.8501 508.958 87.7173L509.382 89.1865C509.055 89.4521 508.566 89.6763 507.913 89.8589C507.26 90.0415 506.579 90.1328 505.871 90.1328C504.919 90.1328 504.108 89.9391 503.438 89.5518C502.769 89.1644 502.263 88.6055 501.919 87.875C501.576 87.139 501.405 86.2591 501.405 85.2354C501.405 84.3057 501.585 83.4756 501.944 82.7451C502.304 82.0146 502.827 81.4419 503.513 81.0269C504.205 80.6118 505.027 80.4043 505.979 80.4043C506.665 80.4043 507.285 80.5288 507.838 80.7778C508.391 81.0269 508.834 81.4281 509.166 81.9814C509.504 82.5348 509.678 83.2459 509.689 84.1147ZM507.282 84.4551C507.287 84.3721 507.29 84.2503 507.29 84.0898C507.29 83.4867 507.177 83.0301 506.95 82.7202C506.723 82.4048 506.355 82.2471 505.846 82.2471C505.337 82.2471 504.93 82.4159 504.625 82.7534C504.327 83.0854 504.133 83.6527 504.044 84.4551H507.282ZM520.239 80.5371L516.628 90.1328H514.229L510.635 80.5371H513.433L514.877 85.1855L515.483 87.4932L516.056 85.1855L517.5 80.5371H520.239ZM529.461 84.1147C529.461 84.9116 529.431 85.5037 529.37 85.8911H523.775C523.825 86.6714 524.069 87.2524 524.506 87.6343C524.949 88.0161 525.546 88.207 526.299 88.207C526.659 88.207 527.093 88.16 527.602 88.0659C528.117 87.9663 528.493 87.8501 528.731 87.7173L529.154 89.1865C528.828 89.4521 528.338 89.6763 527.685 89.8589C527.032 90.0415 526.351 90.1328 525.643 90.1328C524.691 90.1328 523.881 89.9391 523.211 89.5518C522.541 89.1644 522.035 88.6055 521.692 87.875C521.349 87.139 521.177 86.2591 521.177 85.2354C521.177 84.3057 521.357 83.4756 521.717 82.7451C522.076 82.0146 522.599 81.4419 523.286 81.0269C523.977 80.6118 524.799 80.4043 525.751 80.4043C526.437 80.4043 527.057 80.5288 527.61 80.7778C528.164 81.0269 528.606 81.4281 528.938 81.9814C529.276 82.5348 529.45 83.2459 529.461 84.1147ZM527.054 84.4551C527.06 84.3721 527.062 84.2503 527.062 84.0898C527.062 83.4867 526.949 83.0301 526.722 82.7202C526.495 82.4048 526.127 82.2471 525.618 82.2471C525.109 82.2471 524.702 82.4159 524.398 82.7534C524.099 83.0854 523.905 83.6527 523.817 84.4551H527.054ZM534.351 76.2041V90H531.761V76.2041H534.351ZM536.642 85.1772C536.642 84.1646 536.841 83.3013 537.239 82.5874C537.638 81.868 538.191 81.3257 538.899 80.9604C539.608 80.5897 540.421 80.4043 541.34 80.4043C542.386 80.4043 543.246 80.6257 543.921 81.0684C544.597 81.5055 545.086 82.0949 545.391 82.8364C545.701 83.5724 545.855 84.4053 545.855 85.335C545.855 86.3532 545.656 87.222 545.258 87.9414C544.859 88.6608 544.306 89.2059 543.598 89.5767C542.889 89.9474 542.079 90.1328 541.166 90.1328C540.114 90.1328 539.251 89.9115 538.576 89.4688C537.901 89.026 537.408 88.4339 537.098 87.6924C536.794 86.9453 536.642 86.1069 536.642 85.1772ZM543.174 85.3433C543.174 84.4578 543.017 83.7218 542.701 83.1353C542.386 82.5431 541.907 82.2471 541.265 82.2471C539.97 82.2471 539.323 83.21 539.323 85.1357C539.323 85.7168 539.389 86.248 539.522 86.7295C539.66 87.2054 539.873 87.5872 540.161 87.875C540.454 88.1628 540.82 88.3066 541.257 88.3066C542.535 88.3066 543.174 87.3188 543.174 85.3433ZM553.218 80.4043C553.91 80.4043 554.541 80.5731 555.111 80.9106C555.681 81.2427 556.135 81.749 556.472 82.4297C556.815 83.1048 556.987 83.9349 556.987 84.9199C556.987 85.9548 556.785 86.8678 556.381 87.6592C555.982 88.445 555.418 89.0537 554.688 89.4854C553.963 89.917 553.124 90.1328 552.172 90.1328C551.608 90.1328 551.085 90.0443 550.604 89.8672L550.637 91.1538V94.2002H548.047V80.5371H550.462V81.5C550.767 81.1956 551.135 80.9383 551.566 80.728C551.998 80.5122 552.549 80.4043 553.218 80.4043ZM554.272 85.061C554.272 84.0594 554.115 83.3566 553.799 82.9526C553.484 82.5431 553.025 82.3384 552.421 82.3384C552.078 82.3384 551.746 82.3937 551.425 82.5044C551.11 82.6151 550.847 82.7562 550.637 82.9277V87.9331C550.797 88.077 550.999 88.1766 551.243 88.2319C551.492 88.2873 551.777 88.3149 552.098 88.3149C552.518 88.3149 552.892 88.1877 553.218 87.9331C553.545 87.6785 553.802 87.305 553.99 86.8125C554.178 86.32 554.272 85.7362 554.272 85.061ZM570.393 80.3711C571.057 80.3711 571.61 80.4901 572.053 80.728C572.501 80.966 572.841 81.3561 573.074 81.8984C573.306 82.4352 573.422 83.1519 573.422 84.0483V90H570.833V84.6128C570.833 84.0871 570.797 83.6803 570.725 83.3926C570.653 83.0993 570.523 82.889 570.334 82.7617C570.152 82.6289 569.883 82.5625 569.529 82.5625C569.208 82.5625 568.868 82.6289 568.508 82.7617C568.154 82.8945 567.853 83.0605 567.604 83.2598C567.626 83.5033 567.637 83.7938 567.637 84.1313V90H565.047V84.6211C565.047 84.1009 565.008 83.6942 564.931 83.4009C564.859 83.1076 564.729 82.8945 564.541 82.7617C564.358 82.6289 564.095 82.5625 563.752 82.5625C563.481 82.5625 563.157 82.6234 562.781 82.7451C562.404 82.8669 562.081 83.0467 561.81 83.2847V90H559.22V80.5371H561.569L561.619 81.5498C562 81.262 562.476 80.9992 563.046 80.7612C563.616 80.5177 564.167 80.3877 564.698 80.3711C565.285 80.349 565.78 80.432 566.184 80.6201C566.588 80.8027 566.906 81.1016 567.139 81.5166C567.509 81.2288 567.991 80.966 568.583 80.728C569.175 80.4901 569.778 80.3711 570.393 80.3711ZM583.848 84.1147C583.848 84.9116 583.818 85.5037 583.757 85.8911H578.162C578.212 86.6714 578.455 87.2524 578.893 87.6343C579.335 88.0161 579.933 88.207 580.686 88.207C581.045 88.207 581.48 88.16 581.989 88.0659C582.503 87.9663 582.88 87.8501 583.118 87.7173L583.541 89.1865C583.215 89.4521 582.725 89.6763 582.072 89.8589C581.419 90.0415 580.738 90.1328 580.03 90.1328C579.078 90.1328 578.267 89.9391 577.598 89.5518C576.928 89.1644 576.422 88.6055 576.079 87.875C575.736 87.139 575.564 86.2591 575.564 85.2354C575.564 84.3057 575.744 83.4756 576.104 82.7451C576.463 82.0146 576.986 81.4419 577.672 81.0269C578.364 80.6118 579.186 80.4043 580.138 80.4043C580.824 80.4043 581.444 80.5288 581.997 80.7778C582.55 81.0269 582.993 81.4281 583.325 81.9814C583.663 82.5348 583.837 83.2459 583.848 84.1147ZM581.441 84.4551C581.446 84.3721 581.449 84.2503 581.449 84.0898C581.449 83.4867 581.336 83.0301 581.109 82.7202C580.882 82.4048 580.514 82.2471 580.005 82.2471C579.496 82.2471 579.089 82.4159 578.785 82.7534C578.486 83.0854 578.292 83.6527 578.204 84.4551H581.441ZM588.447 80.5371L588.497 81.5498C588.878 81.262 589.354 80.9992 589.924 80.7612C590.494 80.5233 591.045 80.396 591.576 80.3794C592.257 80.3573 592.813 80.4652 593.245 80.7031C593.676 80.9355 593.997 81.3257 594.208 81.8735C594.423 82.4159 594.531 83.1463 594.531 84.0649V90H591.941V84.6211C591.941 84.0843 591.9 83.6693 591.817 83.376C591.734 83.0771 591.593 82.8641 591.394 82.7368C591.194 82.6095 590.912 82.5514 590.547 82.5625C590.27 82.568 589.958 82.6317 589.609 82.7534C589.26 82.8752 588.953 83.0522 588.688 83.2847V90H586.098V80.5371H588.447ZM597.627 82.3301H596.49V80.9272C596.855 80.8221 597.118 80.7419 597.279 80.6865C597.445 80.6257 597.591 80.5454 597.719 80.4458C597.846 80.3407 597.946 80.2023 598.018 80.0308C598.134 79.7541 598.341 79.2035 598.64 78.3789H600.217V80.5371H602.782V82.3301H600.217V86.1318C600.217 86.7627 600.25 87.222 600.317 87.5098C600.383 87.7975 600.488 87.9829 600.632 88.0659C600.776 88.1434 600.998 88.1821 601.296 88.1821C601.529 88.1821 601.794 88.1434 602.093 88.0659C602.398 87.9829 602.622 87.8888 602.766 87.7837L603.081 89.2363C602.821 89.4688 602.431 89.6763 601.911 89.8589C601.396 90.0415 600.84 90.1328 600.242 90.1328C599.606 90.1328 599.097 90.036 598.715 89.8423C598.339 89.6431 598.062 89.3304 597.885 88.9043C597.713 88.4727 597.627 87.8999 597.627 87.186V82.3301Z" fill="black"/>
<path d="M585.847 106.173H224.154V301.821H585.847V106.173Z" fill="#E6E6E6"/>
<path d="M575.505 130.712H234.497V290.247H575.505V130.712Z" fill="white"/>
<path d="M585.693 106H224V118.978H585.693V106Z" fill="#00B0FF"/>
<path d="M235.419 115.041C236.992 115.041 238.267 113.964 238.267 112.635C238.267 111.307 236.992 110.23 235.419 110.23C233.846 110.23 232.571 111.307 232.571 112.635C232.571 113.964 233.846 115.041 235.419 115.041Z" fill="white"/>
<path d="M246.229 115.041C247.802 115.041 249.077 113.964 249.077 112.635C249.077 111.307 247.802 110.23 246.229 110.23C244.656 110.23 243.381 111.307 243.381 112.635C243.381 113.964 244.656 115.041 246.229 115.041Z" fill="white"/>
<path d="M257.039 115.041C258.612 115.041 259.887 113.964 259.887 112.635C259.887 111.307 258.612 110.23 257.039 110.23C255.466 110.23 254.191 111.307 254.191 112.635C254.191 113.964 255.466 115.041 257.039 115.041Z" fill="white"/>
<path d="M343.15 143.834H276.454V204.949H343.15V143.834Z" fill="#E6E6E6"/>
<path d="M438.348 143.834H371.652V204.949H438.348V143.834Z" fill="#E6E6E6"/>
<path d="M533.546 143.834H466.85V204.949H533.546V143.834Z" fill="#E6E6E6"/>
<path d="M343.15 216.011H276.454V277.126H343.15V216.011Z" fill="#E6E6E6"/>
<path d="M438.348 216.011H371.652V277.126H438.348V216.011Z" fill="#E6E6E6"/>
<path d="M533.546 216.011H466.85V277.126H533.546V216.011Z" fill="#E6E6E6"/>
<path d="M387.772 231.718L399.959 227.649L401.376 247.995C401.376 247.995 403.926 254.218 403.076 256.612C403.076 256.612 403.643 260.681 402.226 260.92C400.809 261.159 396.841 261.638 396.558 261.399C396.274 261.159 396.274 260.441 396.274 260.441C396.274 260.441 393.44 262.117 393.157 264.032C393.157 264.032 381.254 267.143 380.971 264.271C380.687 261.399 386.922 259.005 386.922 259.005L391.74 252.782L387.772 231.718Z" fill="white"/>
<path d="M413.562 231.718L425.748 227.649L427.165 247.995C427.165 247.995 429.715 254.218 428.865 256.612C428.865 256.612 429.432 260.681 428.015 260.92C426.598 261.159 422.63 261.638 422.347 261.399C422.064 261.159 422.064 260.441 422.064 260.441C422.064 260.441 419.23 262.117 418.946 264.032C418.946 264.032 407.043 267.143 406.76 264.271C406.477 261.399 412.711 259.005 412.711 259.005L417.529 252.782L413.562 231.718Z" fill="white"/>
<path d="M414.754 153.15C414.754 153.15 412.159 159.274 415.165 162.036L412.659 169.31C412.659 169.31 421.564 191.874 419.02 195.026C419.02 195.026 409.521 199.038 390.523 193.594L398.241 168.307L397.138 157.634L398.665 152.619L402.057 152.333C402.057 152.333 400.022 158.78 403.754 159.783C407.485 160.786 411.126 152.494 411.126 152.494L414.754 153.15Z" fill="#3F3D56"/>
<path d="M294.923 192.682L298.197 193.814L313.826 176.466L318.737 196.831L322.012 196.328C324.112 178.771 325.825 160.862 323.723 152.392L311.593 151.952L306.086 166.786L303.407 176.843L294.923 192.682Z" fill="white"/>
<path d="M493.662 152.251C493.662 152.251 489.193 157.499 489.411 159.616C489.629 161.733 492.463 196.255 492.463 196.255L499.112 196.532L497.15 171.676L498.785 164.955L502.818 196.255L510.992 196.44L503.69 155.842L502.273 152.251L493.662 152.251Z" fill="white"/>
<path d="M518.92 236.785C517.733 235.582 515.693 234.932 513.735 234.58C513.793 234.43 507.778 233.381 507.677 233.597L505.41 232.072L498.445 235.126L494.531 232.876L492.712 233.421C492.787 233.15 487.068 233.986 487.068 233.986C485.976 234.02 484.581 234.077 483.019 234.179C477.55 234.534 477.129 246.497 477.129 246.497C479.645 245.628 482.328 245.153 485.047 245.097L486.525 259.408C494.128 258.857 502.102 259.498 510.365 261.066L514.241 249.817L523.267 246.852C523.267 246.852 521.724 239.627 518.92 236.785Z" fill="#3F3D56"/>
<path d="M325.228 229.971C324.25 228.98 322.57 228.445 320.956 228.155C321.004 228.031 316.048 227.167 315.965 227.345L314.097 226.088L308.358 228.605L305.133 226.751L303.634 227.2C303.695 226.977 298.984 227.666 298.984 227.666C298.084 227.693 296.934 227.741 295.647 227.824C291.141 228.117 290.794 237.974 290.794 237.974C292.868 237.258 295.078 236.867 297.318 236.82L298.536 265.683C304.801 265.229 311.371 265.757 318.179 267.049L321.373 240.71L328.81 238.267C328.81 238.267 327.539 232.314 325.228 229.971Z" fill="white"/>
<path d="M567.895 396.275L522.778 404.074L521.75 403.986L482.101 400.606V358.169L530.637 351.238L565.845 354.706L565.858 354.894V354.983L567.895 396.275Z" fill="#E6E6E6"/>
<path opacity="0.1" d="M567.895 396.275L522.778 404.074L521.75 403.986V360.481L565.858 354.894L567.895 396.275Z" fill="black"/>
<path opacity="0.05" d="M565.858 354.983L565.845 354.994L521.75 360.481L482.101 358.169L530.637 351.238L565.845 354.706L565.858 354.894V354.983Z" fill="black"/>
<path d="M514.991 374.491L487.56 372.979L486.72 383.854L514.15 385.366L514.991 374.491Z" fill="white"/>
<path d="M508.279 377.683L493.724 376.88L493.431 380.663L507.987 381.465L508.279 377.683Z" fill="#00B0FF"/>
<path d="M629.044 396.275L583.927 404.074L582.899 403.986L543.251 400.606V358.169L591.787 351.238L626.995 354.706L627.008 354.894V354.983L629.044 396.275Z" fill="#00B0FF"/>
<path opacity="0.1" d="M629.044 396.275L583.927 404.074L582.899 403.986V360.481L627.008 354.894L629.044 396.275Z" fill="black"/>
<path opacity="0.05" d="M627.007 354.983L626.995 354.994L582.899 360.481L543.251 358.169L591.787 351.238L626.995 354.706L627.007 354.894V354.983Z" fill="black"/>
<path d="M576.14 374.491L548.709 372.979L547.869 383.854L575.3 385.366L576.14 374.491Z" fill="white"/>
<path d="M569.428 377.683L554.873 376.88L554.581 380.663L569.136 381.465L569.428 377.683Z" fill="#00B0FF"/>
<path d="M661.692 184.476C661.692 184.476 669.652 201.844 655.058 201.844C640.464 201.844 677.613 219.213 692.207 209.128C706.801 199.043 698.177 198.483 698.177 198.483C698.177 198.483 678.939 200.164 679.603 185.596L661.692 184.476Z" fill="#FFB8B8"/>
<path d="M672.062 189.704C685.019 189.704 695.523 180.832 695.523 169.888C695.523 158.945 685.019 150.073 672.062 150.073C659.105 150.073 648.601 158.945 648.601 169.888C648.601 180.832 659.105 189.704 672.062 189.704Z" fill="#2F2E41"/>
<path d="M657.712 256.752L632.504 311.66C632.504 311.66 619.9 328.468 624.543 345.277C629.187 362.085 641.948 392.677 641.948 392.677C641.948 392.677 651.587 394.748 650.924 387.465C650.26 380.181 651.337 344.869 641.387 335.344L681.593 296.532L682.92 340.795C682.92 340.795 680.266 360.965 680.93 369.929C681.593 378.894 682.92 394.022 682.92 394.022L690.88 392.901C690.88 392.901 701.619 351.634 700.292 338.187C700.292 338.187 724.939 272.85 699.731 257.162L657.712 256.752Z" fill="#2F2E41"/>
<path d="M644.719 392.586C644.719 392.586 641.473 391.888 641.099 394.402C640.725 396.916 633.898 408.097 641.026 408.657C648.153 409.217 650.619 403.585 651.813 399.625C653.006 395.665 653.459 395.438 654.456 394.68C655.452 393.921 657.825 389.765 654.848 389.449C651.871 389.133 650.345 386.66 650.345 386.66C650.345 386.66 649.407 393.594 644.719 392.586Z" fill="#2F2E41"/>
<path d="M688.116 390.641C688.116 390.641 682.097 389.915 682.527 391.731C682.957 393.546 681.667 401.172 682.527 401.899C683.387 402.625 685.107 404.078 685.107 405.167C685.107 406.256 685.537 409.888 692.846 408.798C700.155 407.709 698.435 402.262 698.005 401.536C697.575 400.809 692.416 397.178 692.846 394.999C693.276 392.82 690.696 389.189 688.116 390.641Z" fill="#2F2E41"/>
<path d="M672.351 191.877C681.326 191.877 688.601 185.733 688.601 178.152C688.601 170.572 681.326 164.428 672.351 164.428C663.377 164.428 656.101 170.572 656.101 178.152C656.101 185.733 663.377 191.877 672.351 191.877Z" fill="#FFB8B8"/>
<path d="M687.895 197.082C687.895 197.082 693.563 206.553 676.479 206.822C671.227 206.904 664.981 203.672 662.402 199.806C660.883 197.529 660.5 200.674 658.044 200.444C653.392 200.007 648.423 201.637 643.976 203.634C643.402 203.892 642.951 204.31 642.701 204.817C642.451 205.323 642.418 205.888 642.606 206.414C645.978 215.864 655.608 261.321 657.095 263.796C660.891 270.116 701.975 259.532 701.975 259.532C702.538 242.335 695.148 218.275 708.146 200.777C705.287 198.962 701.996 197.692 698.5 197.054C695.004 196.417 691.386 196.426 687.895 197.082V197.082Z" fill="#575A89"/>
<path d="M687.548 167.598L675.641 162.331L659.2 164.486L655.799 177.175L664.267 176.9L666.632 172.238V176.823L670.539 176.696L672.807 169.274L674.224 177.175L688.114 176.936L687.548 167.598Z" fill="#2F2E41"/>
<path d="M673.297 155.288C678.525 155.288 682.763 151.708 682.763 147.292C682.763 142.876 678.525 139.297 673.297 139.297C668.068 139.297 663.83 142.876 663.83 147.292C663.83 151.708 668.068 155.288 673.297 155.288Z" fill="#2F2E41"/>
<path d="M661.36 144.859C661.361 142.949 662.17 141.102 663.642 139.653C665.114 138.203 667.152 137.246 669.387 136.955C668.038 136.781 666.661 136.855 665.349 137.172C664.038 137.489 662.823 138.042 661.788 138.792C660.753 139.543 659.922 140.474 659.352 141.521C658.783 142.568 658.488 143.706 658.488 144.859C658.488 146.011 658.783 147.15 659.352 148.197C659.922 149.244 660.753 150.174 661.788 150.925C662.823 151.676 664.038 152.228 665.349 152.546C666.661 152.863 668.038 152.937 669.387 152.762C667.152 152.471 665.114 151.514 663.642 150.065C662.17 148.615 661.361 146.769 661.36 144.859V144.859Z" fill="#2F2E41"/>
<path d="M716 335.151L670.883 342.951L669.855 342.862L630.206 339.482V297.045L678.742 290.114L713.95 293.582L713.963 293.77V293.859L716 335.151Z" fill="#E6E6E6"/>
<path opacity="0.1" d="M716 335.151L670.883 342.951L669.855 342.862V299.357L713.963 293.77L716 335.151Z" fill="black"/>
<path opacity="0.05" d="M713.963 293.859L713.95 293.87L669.855 299.357L630.206 297.045L678.742 290.114L713.95 293.582L713.963 293.77V293.859Z" fill="black"/>
<path d="M663.096 313.368L635.665 311.856L634.825 322.731L662.255 324.243L663.096 313.368Z" fill="white"/>
<path d="M656.384 316.559L641.829 315.757L641.536 319.539L656.092 320.342L656.384 316.559Z" fill="#00B0FF"/>
<path d="M645.718 286.146C645.718 286.146 629.134 297.352 636.431 301.274C643.728 305.196 652.352 286.146 652.352 286.146H645.718Z" fill="#FFB8B8"/>
<path d="M646.436 203.146C645.576 202.328 634.729 207.001 636.337 213.097L637.094 255.331C637.094 255.331 633.114 290.068 643.065 290.068C653.015 290.068 651.841 291.236 653.168 288.435C654.494 285.634 654.851 261.901 654.851 261.901L646.436 203.146Z" fill="#575A89"/>
<path d="M697.742 282.356C697.742 282.356 706.366 301.405 713.663 297.483C720.96 293.561 704.375 282.356 704.375 282.356H697.742Z" fill="#FFB8B8"/>
<path d="M699.731 258.584C699.731 258.584 695.599 281.843 696.926 284.644C698.253 287.446 697.078 286.278 707.029 286.278C716.979 286.278 712.999 251.54 712.999 251.54L713.756 209.306C715.365 203.21 704.517 198.538 703.658 199.356L694.121 226.837L699.731 258.584Z" fill="#575A89"/>
</g>
<defs>
<clipPath id="clip0">
<rect width="794.122" height="505.345" fill="white"/>
</clipPath>
</defs>
</svg>
